<?xml version="1.0" encoding="UTF-8" standalone="no"?>
<!DOCTYPE svg PUBLIC "-//W3C//DTD SVG 1.1//EN" "http://www.w3.org/Graphics/SVG/1.1/DTD/svg11.dtd">
<svg width="100%" height="100%" viewBox="0 0 461 346" version="1.1" xmlns="http://www.w3.org/2000/svg" xmlns:xlink="http://www.w3.org/1999/xlink" xml:space="preserve" xmlns:serif="http://www.serif.com/" style="fill-rule:evenodd;clip-rule:evenodd;stroke-linejoin:round;stroke-miterlimit:10;">
    <rect x="0" y="0" width="460.8" height="345.6" style="fill:white;"/>
    <g transform="matrix(1,0,0,1,0,3.456)">
        <rect x="57.6" y="38.016" width="357.12" height="266.112" style="fill:white;"/>
    </g>
    <g transform="matrix(0,1,1,0,37.5667,235.501)">
        <path d="M72.083,36.266L75.583,36.266" style="fill:none;fill-rule:nonzero;stroke:black;stroke-width:0.8px;"/>
    </g>
    <g transform="matrix(0,1,1,0,91.7662,181.302)">
        <path d="M126.282,36.266L129.782,36.266" style="fill:none;fill-rule:nonzero;stroke:black;stroke-width:0.8px;"/>
    </g>
    <g transform="matrix(0,1,1,0,145.966,127.102)">
        <path d="M180.482,36.266L183.982,36.266" style="fill:none;fill-rule:nonzero;stroke:black;stroke-width:0.8px;"/>
    </g>
    <g transform="matrix(0,1,1,0,200.165,72.903)">
        <path d="M234.681,36.266L238.181,36.266" style="fill:none;fill-rule:nonzero;stroke:black;stroke-width:0.8px;"/>
    </g>
    <g transform="matrix(0,1,1,0,254.364,18.7036)">
        <path d="M288.88,36.266L292.38,36.266" style="fill:none;fill-rule:nonzero;stroke:black;stroke-width:0.8px;"/>
    </g>
    <g transform="matrix(0,1,1,0,308.564,-35.4958)">
        <path d="M343.08,36.266L346.58,36.266" style="fill:none;fill-rule:nonzero;stroke:black;stroke-width:0.8px;"/>
    </g>
    <g transform="matrix(0,1,1,0,362.763,-89.6953)">
        <path d="M397.279,36.266L400.779,36.266" style="fill:none;fill-rule:nonzero;stroke:black;stroke-width:0.8px;"/>
    </g>
    <g transform="matrix(-1,0,0,1,111.7,249.44)">
        <path d="M54.1,48.08L57.6,48.08" style="fill:none;fill-rule:nonzero;stroke:black;stroke-width:0.8px;"/>
    </g>
    <g transform="matrix(0.01,0,0,0.01,29.5063,295.047)">
        <rect x="106" y="272" width="626" height="83"/>
    </g>
    <g transform="matrix(-1,0,0,1,111.7,186.033)">
        <path d="M54.1,79.783L57.6,79.783" style="fill:none;fill-rule:nonzero;stroke:black;stroke-width:0.8px;"/>
    </g>
    <g transform="matrix(0.01,0,0,0.01,29.5063,263.343)">
        <rect x="106" y="272" width="626" height="83"/>
    </g>
    <g transform="matrix(-1,0,0,1,111.7,122.626)">
        <path d="M54.1,111.487L57.6,111.487" style="fill:none;fill-rule:nonzero;stroke:black;stroke-width:0.8px;"/>
    </g>
    <g transform="matrix(0.01,0,0,0.01,29.5063,231.64)">
        <rect x="106" y="272" width="626" height="83"/>
    </g>
    <g transform="matrix(-1,0,0,1,111.7,59.2188)">
        <path d="M54.1,143.191L57.6,143.191" style="fill:none;fill-rule:nonzero;stroke:black;stroke-width:0.8px;"/>
    </g>
    <g transform="matrix(0.01,0,0,0.01,29.5063,199.936)">
        <rect x="106" y="272" width="626" height="83"/>
    </g>
    <g transform="matrix(-1,0,0,1,111.7,-4.18843)">
        <path d="M54.1,174.894L57.6,174.894" style="fill:none;fill-rule:nonzero;stroke:black;stroke-width:0.8px;"/>
    </g>
    <g transform="matrix(0.01,0,0,0.01,29.5063,168.233)">
        <rect x="106" y="272" width="626" height="83"/>
    </g>
    <g transform="matrix(-1,0,0,1,111.7,-67.5956)">
        <path d="M54.1,206.598L57.6,206.598" style="fill:none;fill-rule:nonzero;stroke:black;stroke-width:0.8px;"/>
    </g>
    <g transform="matrix(0.01,0,0,0.01,29.5063,136.529)">
        <rect x="106" y="272" width="626" height="83"/>
    </g>
    <g transform="matrix(-1,0,0,1,111.7,-131.003)">
        <path d="M54.1,238.301L57.6,238.301" style="fill:none;fill-rule:nonzero;stroke:black;stroke-width:0.8px;"/>
    </g>
    <g transform="matrix(0.01,0,0,0.01,35.8656,104.825)">
        <rect x="106" y="272" width="626" height="83"/>
    </g>
    <g transform="matrix(-1,0,0,1,111.7,-194.41)">
        <path d="M54.1,270.005L57.6,270.005" style="fill:none;fill-rule:nonzero;stroke:black;stroke-width:0.8px;"/>
    </g>
    <g transform="matrix(-1,0,0,1,111.7,-257.817)">
        <path d="M54.1,301.709L57.6,301.709" style="fill:none;fill-rule:nonzero;stroke:black;stroke-width:0.8px;"/>
    </g>
    <g transform="matrix(1,0,0,1,0,3.456)">
        <path d="M73.833,70.047L74.375,70.999L74.917,72.346L75.459,72.98L76.001,72.544L76.543,71.791L77.085,71.316L77.627,71.514L78.169,71.474L78.711,71.038L79.795,70.483L80.337,69.81L80.879,69.374L81.421,69.453L81.963,70.959L83.589,78.767L84.131,79.876L84.673,80.352L85.215,79.639L85.757,77.102L87.383,63.984L87.925,63.389L88.467,65.529L90.093,74.407L90.635,76.389L91.719,79.242L92.261,80.233L92.803,80.748L93.345,80.471L93.887,79.163L94.429,76.389L95.512,69.057L96.054,67.868L96.596,68.779L97.68,71.831L98.222,72.465L98.764,71.355L99.848,67.194L100.39,66.282L100.932,67.115L102.016,74.011L102.558,75.834L103.1,75.2L104.184,70.84L104.726,69.532L105.81,67.59L106.352,66.243L106.894,65.331L107.436,64.816L108.52,61.923L109.062,61.289L109.604,61.487L111.23,62.438L111.772,62.398L112.314,62.16L112.856,62.715L113.398,64.618L113.94,67.432L114.482,69.493L115.024,70.919L115.566,71.91L116.108,72.505L116.65,72.822L117.192,72.544L117.734,71.633L118.276,71.395L118.818,72.148L119.36,73.099L119.902,73.416L120.986,72.703L122.07,71.435L122.612,70.047L123.154,68.343L123.696,68.383L124.238,70.364L124.78,74.169L125.322,80.748L125.864,89.904L126.406,101.952L127.49,134.253L128.574,177.413L129.658,223.824L130.2,243.085L130.742,257.234L131.284,266.865L132.368,278.676L133.452,288.505L133.994,291.041L134.536,292.032L135.078,290.962L135.62,288.306L137.246,277.209L137.788,272.85L139.956,250.1L142.666,230.165L143.208,224.656L143.75,217.363L144.834,196.318L145.918,173.648L146.46,165.404L147.002,160.886L147.544,159.261L148.086,159.499L148.628,159.499L149.17,158.508L149.712,156.764L150.254,154.03L151.88,142.933L152.964,138.652L153.506,136.948L154.048,136.076L154.59,136.512L155.132,137.661L155.674,138.177L156.216,137.146L156.758,134.689L157.842,127.872L158.384,125.97L158.926,126.406L160.01,130.369L160.552,131.043L161.094,128.823L162.178,117.171L162.72,111.622L163.804,104.528L164.888,98.187L165.43,96.047L165.972,95.611L166.514,96.205L168.14,100.327L168.682,100.644L169.224,99.931L170.85,95.73L171.392,96.364L172.476,99.376L173.018,99.059L173.56,96.324L174.644,89.904L175.186,88.318L175.728,89.19L177.354,96.958L177.896,96.879L178.438,94.461L180.064,82.77L180.606,81.898L181.148,81.858L181.69,81.977L182.232,81.66L182.774,79.995L183.858,75.834L184.4,74.447L184.942,74.447L186.026,74.962L186.568,75.477L187.11,75.794L187.652,75.438L188.194,74.169L188.736,72.465L189.277,71.553L189.819,72.505L190.361,75.2L191.987,87.565L192.529,88.952L193.071,88.12L194.697,80.828L195.239,80.431L197.407,84.315L197.949,84.434L198.491,83.879L199.033,82.294L199.575,79.956L200.117,77.062L200.659,75.517L201.201,76.309L201.743,79.084L202.827,85.94L203.369,88.279L203.911,89.785L204.453,90.34L204.995,89.547L205.537,87.327L207.163,77.102L207.705,75.517L208.247,75.12L208.789,75.002L209.331,75.556L209.873,76.508L210.415,76.825L210.957,76.587L211.499,75.517L212.041,73.575L213.667,65.212L214.209,64.657L217.461,73.099L219.087,78.727L219.629,80.867L220.171,82.254L220.713,82.294L221.255,80.511L222.881,72.465L223.423,70.919L223.965,70.523L224.507,70.325L225.591,70.087L226.675,69.572L227.217,69.453L227.759,69.77L228.301,70.444L228.843,70.682L229.385,71.672L230.469,75.2L231.011,76.151L231.553,76.151L232.095,75.953L232.637,75.279L233.179,74.843L233.721,75.002L234.263,75.358L234.805,75.2L235.347,74.407L236.431,70.999L236.973,70.404L238.057,72.861L238.599,72.544L239.683,67.075L240.225,66.203L240.767,67.313L241.309,68.779L241.851,69.136L242.393,67.432L243.477,62.16L244.019,60.971L244.561,60.892L245.103,61.526L245.645,63.865L247.271,76.23L247.813,77.736L248.897,77.697L249.439,78.291L249.981,79.599L250.523,80.312L251.065,79.361L251.607,76.27L253.775,59.426L254.317,54.194L254.859,50.152L255.401,50.112L255.943,54.155L258.111,82.096L258.653,84.434L259.195,83.126L259.737,79.639L260.821,71.553L261.363,69.453L261.905,69.215L262.447,70.404L263.531,75.477L265.157,83.047L265.699,85.068L266.241,86.02L266.783,84.078L267.867,74.922L268.409,72.703L268.951,71.989L270.035,72.148L270.577,71.078L271.661,67.59L272.203,66.56L272.745,67.075L273.287,67.907L273.829,67.471L274.371,65.569L274.913,63.191L275.455,61.883L275.997,62.478L276.539,64.657L278.165,74.447L278.707,76.547L279.249,76.587L279.791,75.398L280.875,72.188L281.417,71.435L281.959,71.831L282.501,73.139L283.584,76.785L284.668,79.758L285.21,80.392L285.752,80.075L286.294,79.242L286.836,77.657L287.378,75.715L287.92,74.605L288.462,73.852L289.004,74.407L289.546,76.032L290.088,77.102L290.63,76.825L291.172,75.755L291.714,75.2L292.256,75.438L292.798,76.111L293.34,77.617L294.424,81.898L294.966,83.324L295.508,83.681L296.05,83.562L296.592,83.8L297.134,84.91L297.676,85.187L298.218,84.038L299.302,80.154L299.844,79.599L300.386,80.828L300.928,82.69L301.47,83.76L302.012,83.324L302.554,82.373L303.096,81.739L303.638,82.334L305.264,90.022L305.806,89.745L306.348,87.803L307.974,79.401L308.516,77.102L309.058,75.715L309.6,76.428L310.142,78.687L311.226,84.87L311.768,87.209L312.31,87.922L312.852,86.178L313.394,82.73L314.478,74.169L315.562,68.105L316.646,62.953L317.188,62.953L317.73,65.45L318.814,72.822L319.356,74.367L319.898,73.813L320.44,72.584L320.982,72.148L323.15,73.456L323.692,73.416L324.234,73.139L324.776,72.386L326.944,67.551L327.486,65.965L328.028,65.49L328.57,66.639L329.112,68.145L329.654,69.057L330.196,69.255L330.738,69.651L331.822,73.892L332.364,74.764L332.906,74.367L333.448,73.099L335.074,66.837L336.158,64.816L336.7,64.182L337.242,64.538L337.784,66.599L338.868,72.108L339.41,73.654L339.952,74.486L340.494,74.605L341.036,73.813L341.578,72.029L343.746,62.596L344.83,60.456L345.372,59.188L345.914,59.346L346.456,61.685L347.54,68.264L348.082,70.563L348.624,72.108L349.166,72.544L349.708,71.989L350.25,70.602L351.334,65.212L351.876,63.666L352.418,64.538L353.502,70.087L354.044,72.822L354.586,74.645L355.128,75.675L355.67,75.16L356.754,71.831L357.296,70.761L357.838,69.968L358.38,69.611L358.922,69.968L359.464,70.642L360.006,72.108L361.09,75.675L361.632,76.428L362.174,76.468L362.716,76.349L363.258,76.626L363.8,76.706L364.342,75.913L365.426,73.773L365.968,72.267L366.51,71.435L367.052,71.791L367.594,73.337L369.22,79.242L369.762,80.709L370.304,81.145L370.846,79.599L371.388,75.715L372.472,66.322L373.014,64.102L373.556,62.913L374.098,62.398L374.64,62.953L375.182,65.173L376.808,74.922L377.349,77.142L377.891,78.212L378.433,78.133L378.975,77.102L380.059,74.011L380.601,72.861L381.143,71.236L381.685,69.096L382.769,63.746L383.311,62.557L383.853,63.191L385.479,66.837L386.021,68.858L386.563,72.267L387.647,80.075L388.189,81.779L388.731,81.739L389.273,81.026L390.357,79.956L390.899,78.251L391.441,74.724L393.067,61.685L393.609,59.386L394.151,59.307L394.693,61.843L395.777,72.941L396.861,83.959L397.403,87.288L397.945,88.516L398.487,88.715" style="fill:none;fill-rule:nonzero;stroke:rgb(31,119,180);stroke-width:1.5px;stroke-linecap:square;"/>
    </g>
    <g transform="matrix(0,-1,-1,0,228.672,232.128)">
        <path d="M-75.456,171.072L190.656,171.072" style="fill:none;fill-rule:nonzero;stroke:black;stroke-width:0.8px;stroke-linecap:square;stroke-linejoin:miter;"/>
    </g>
    <g transform="matrix(0,-1,-1,0,585.792,589.248)">
        <path d="M281.664,171.072L547.776,171.072" style="fill:none;fill-rule:nonzero;stroke:black;stroke-width:0.8px;stroke-linecap:square;stroke-linejoin:miter;"/>
    </g>
    <g transform="matrix(1,0,0,1,0,269.568)">
        <path d="M57.6,38.016L414.72,38.016" style="fill:none;fill-rule:nonzero;stroke:black;stroke-width:0.8px;stroke-linecap:square;stroke-linejoin:miter;"/>
    </g>
    <g transform="matrix(1,0,0,1,0,-262.656)">
        <path d="M57.6,304.128L414.72,304.128" style="fill:none;fill-rule:nonzero;stroke:black;stroke-width:0.8px;stroke-linecap:square;stroke-linejoin:miter;"/>
    </g>
    <g transform="matrix(10,0,0,10,70.653,322.178)">
        <path d="M0.318,-0.664C0.267,-0.664 0.229,-0.639 0.203,-0.589C0.178,-0.539 0.165,-0.464 0.165,-0.364C0.165,-0.264 0.178,-0.189 0.203,-0.139C0.229,-0.089 0.267,-0.064 0.318,-0.064C0.369,-0.064 0.407,-0.089 0.433,-0.139C0.458,-0.189 0.471,-0.264 0.471,-0.364C0.471,-0.464 0.458,-0.539 0.433,-0.589C0.407,-0.639 0.369,-0.664 0.318,-0.664ZM0.318,-0.742C0.4,-0.742 0.462,-0.71 0.505,-0.645C0.548,-0.581 0.57,-0.487 0.57,-0.364C0.57,-0.241 0.548,-0.147 0.505,-0.083C0.462,-0.018 0.4,0.014 0.318,0.014C0.236,0.014 0.174,-0.018 0.131,-0.083C0.087,-0.147 0.066,-0.241 0.066,-0.364C0.066,-0.487 0.087,-0.581 0.131,-0.645C0.174,-0.71 0.236,-0.742 0.318,-0.742Z" style="fill-rule:nonzero;"/>
    </g>
    <g transform="matrix(10,0,0,10,118.493,322.178)">
        <path d="M0.124,-0.083L0.285,-0.083L0.285,-0.639L0.11,-0.604L0.11,-0.694L0.284,-0.729L0.383,-0.729L0.383,-0.083L0.544,-0.083L0.544,-0L0.124,-0L0.124,-0.083Z" style="fill-rule:nonzero;"/>
    </g>
    <g transform="matrix(10,0,0,10,124.853,322.178)">
        <path d="M0.318,-0.664C0.267,-0.664 0.229,-0.639 0.203,-0.589C0.178,-0.539 0.165,-0.464 0.165,-0.364C0.165,-0.264 0.178,-0.189 0.203,-0.139C0.229,-0.089 0.267,-0.064 0.318,-0.064C0.369,-0.064 0.407,-0.089 0.433,-0.139C0.458,-0.189 0.471,-0.264 0.471,-0.364C0.471,-0.464 0.458,-0.539 0.433,-0.589C0.407,-0.639 0.369,-0.664 0.318,-0.664ZM0.318,-0.742C0.4,-0.742 0.462,-0.71 0.505,-0.645C0.548,-0.581 0.57,-0.487 0.57,-0.364C0.57,-0.241 0.548,-0.147 0.505,-0.083C0.462,-0.018 0.4,0.014 0.318,0.014C0.236,0.014 0.174,-0.018 0.131,-0.083C0.087,-0.147 0.066,-0.241 0.066,-0.364C0.066,-0.487 0.087,-0.581 0.131,-0.645C0.174,-0.71 0.236,-0.742 0.318,-0.742Z" style="fill-rule:nonzero;"/>
    </g>
    <g transform="matrix(10,0,0,10,131.213,322.178)">
        <path d="M0.318,-0.664C0.267,-0.664 0.229,-0.639 0.203,-0.589C0.178,-0.539 0.165,-0.464 0.165,-0.364C0.165,-0.264 0.178,-0.189 0.203,-0.139C0.229,-0.089 0.267,-0.064 0.318,-0.064C0.369,-0.064 0.407,-0.089 0.433,-0.139C0.458,-0.189 0.471,-0.264 0.471,-0.364C0.471,-0.464 0.458,-0.539 0.433,-0.589C0.407,-0.639 0.369,-0.664 0.318,-0.664ZM0.318,-0.742C0.4,-0.742 0.462,-0.71 0.505,-0.645C0.548,-0.581 0.57,-0.487 0.57,-0.364C0.57,-0.241 0.548,-0.147 0.505,-0.083C0.462,-0.018 0.4,0.014 0.318,0.014C0.236,0.014 0.174,-0.018 0.131,-0.083C0.087,-0.147 0.066,-0.241 0.066,-0.364C0.066,-0.487 0.087,-0.581 0.131,-0.645C0.174,-0.71 0.236,-0.742 0.318,-0.742Z" style="fill-rule:nonzero;"/>
    </g>
    <g transform="matrix(10,0,0,10,172.693,322.178)">
        <path d="M0.192,-0.083L0.536,-0.083L0.536,-0L0.073,-0L0.073,-0.083C0.111,-0.122 0.162,-0.174 0.226,-0.239C0.291,-0.304 0.332,-0.346 0.348,-0.365C0.38,-0.401 0.402,-0.431 0.414,-0.455C0.427,-0.48 0.433,-0.504 0.433,-0.528C0.433,-0.567 0.42,-0.598 0.392,-0.623C0.365,-0.647 0.33,-0.659 0.286,-0.659C0.255,-0.659 0.223,-0.654 0.188,-0.643C0.154,-0.632 0.117,-0.616 0.078,-0.594L0.078,-0.694C0.118,-0.71 0.155,-0.722 0.189,-0.73C0.224,-0.738 0.256,-0.742 0.284,-0.742C0.36,-0.742 0.42,-0.723 0.465,-0.686C0.51,-0.648 0.532,-0.597 0.532,-0.534C0.532,-0.504 0.527,-0.476 0.515,-0.449C0.504,-0.422 0.484,-0.39 0.454,-0.354C0.446,-0.345 0.42,-0.317 0.376,-0.272C0.333,-0.227 0.271,-0.164 0.192,-0.083Z" style="fill-rule:nonzero;"/>
    </g>
    <g transform="matrix(10,0,0,10,179.053,322.178)">
        <path d="M0.318,-0.664C0.267,-0.664 0.229,-0.639 0.203,-0.589C0.178,-0.539 0.165,-0.464 0.165,-0.364C0.165,-0.264 0.178,-0.189 0.203,-0.139C0.229,-0.089 0.267,-0.064 0.318,-0.064C0.369,-0.064 0.407,-0.089 0.433,-0.139C0.458,-0.189 0.471,-0.264 0.471,-0.364C0.471,-0.464 0.458,-0.539 0.433,-0.589C0.407,-0.639 0.369,-0.664 0.318,-0.664ZM0.318,-0.742C0.4,-0.742 0.462,-0.71 0.505,-0.645C0.548,-0.581 0.57,-0.487 0.57,-0.364C0.57,-0.241 0.548,-0.147 0.505,-0.083C0.462,-0.018 0.4,0.014 0.318,0.014C0.236,0.014 0.174,-0.018 0.131,-0.083C0.087,-0.147 0.066,-0.241 0.066,-0.364C0.066,-0.487 0.087,-0.581 0.131,-0.645C0.174,-0.71 0.236,-0.742 0.318,-0.742Z" style="fill-rule:nonzero;"/>
    </g>
    <g transform="matrix(10,0,0,10,185.413,322.178)">
        <path d="M0.318,-0.664C0.267,-0.664 0.229,-0.639 0.203,-0.589C0.178,-0.539 0.165,-0.464 0.165,-0.364C0.165,-0.264 0.178,-0.189 0.203,-0.139C0.229,-0.089 0.267,-0.064 0.318,-0.064C0.369,-0.064 0.407,-0.089 0.433,-0.139C0.458,-0.189 0.471,-0.264 0.471,-0.364C0.471,-0.464 0.458,-0.539 0.433,-0.589C0.407,-0.639 0.369,-0.664 0.318,-0.664ZM0.318,-0.742C0.4,-0.742 0.462,-0.71 0.505,-0.645C0.548,-0.581 0.57,-0.487 0.57,-0.364C0.57,-0.241 0.548,-0.147 0.505,-0.083C0.462,-0.018 0.4,0.014 0.318,0.014C0.236,0.014 0.174,-0.018 0.131,-0.083C0.087,-0.147 0.066,-0.241 0.066,-0.364C0.066,-0.487 0.087,-0.581 0.131,-0.645C0.174,-0.71 0.236,-0.742 0.318,-0.742Z" style="fill-rule:nonzero;"/>
    </g>
    <g transform="matrix(10,0,0,10,226.892,322.178)">
        <path d="M0.406,-0.393C0.453,-0.383 0.49,-0.362 0.516,-0.33C0.543,-0.298 0.556,-0.259 0.556,-0.212C0.556,-0.14 0.531,-0.084 0.482,-0.045C0.432,-0.006 0.362,0.014 0.271,0.014C0.24,0.014 0.209,0.011 0.177,0.005C0.144,-0.001 0.111,-0.01 0.076,-0.022L0.076,-0.117C0.104,-0.101 0.133,-0.089 0.166,-0.081C0.199,-0.073 0.233,-0.069 0.268,-0.069C0.33,-0.069 0.377,-0.081 0.409,-0.105C0.442,-0.13 0.458,-0.165 0.458,-0.212C0.458,-0.255 0.443,-0.288 0.413,-0.313C0.383,-0.337 0.341,-0.349 0.287,-0.349L0.202,-0.349L0.202,-0.43L0.291,-0.43C0.34,-0.43 0.377,-0.44 0.402,-0.459C0.428,-0.479 0.441,-0.507 0.441,-0.543C0.441,-0.58 0.428,-0.609 0.401,-0.629C0.375,-0.649 0.337,-0.659 0.287,-0.659C0.26,-0.659 0.231,-0.656 0.2,-0.65C0.169,-0.645 0.135,-0.635 0.098,-0.623L0.098,-0.711C0.136,-0.721 0.171,-0.729 0.203,-0.734C0.236,-0.74 0.267,-0.742 0.296,-0.742C0.371,-0.742 0.43,-0.725 0.474,-0.691C0.517,-0.657 0.539,-0.611 0.539,-0.553C0.539,-0.513 0.528,-0.479 0.504,-0.451C0.481,-0.423 0.448,-0.404 0.406,-0.393Z" style="fill-rule:nonzero;"/>
    </g>
    <g transform="matrix(10,0,0,10,233.252,322.178)">
        <path d="M0.318,-0.664C0.267,-0.664 0.229,-0.639 0.203,-0.589C0.178,-0.539 0.165,-0.464 0.165,-0.364C0.165,-0.264 0.178,-0.189 0.203,-0.139C0.229,-0.089 0.267,-0.064 0.318,-0.064C0.369,-0.064 0.407,-0.089 0.433,-0.139C0.458,-0.189 0.471,-0.264 0.471,-0.364C0.471,-0.464 0.458,-0.539 0.433,-0.589C0.407,-0.639 0.369,-0.664 0.318,-0.664ZM0.318,-0.742C0.4,-0.742 0.462,-0.71 0.505,-0.645C0.548,-0.581 0.57,-0.487 0.57,-0.364C0.57,-0.241 0.548,-0.147 0.505,-0.083C0.462,-0.018 0.4,0.014 0.318,0.014C0.236,0.014 0.174,-0.018 0.131,-0.083C0.087,-0.147 0.066,-0.241 0.066,-0.364C0.066,-0.487 0.087,-0.581 0.131,-0.645C0.174,-0.71 0.236,-0.742 0.318,-0.742Z" style="fill-rule:nonzero;"/>
    </g>
    <g transform="matrix(10,0,0,10,239.612,322.178)">
        <path d="M0.318,-0.664C0.267,-0.664 0.229,-0.639 0.203,-0.589C0.178,-0.539 0.165,-0.464 0.165,-0.364C0.165,-0.264 0.178,-0.189 0.203,-0.139C0.229,-0.089 0.267,-0.064 0.318,-0.064C0.369,-0.064 0.407,-0.089 0.433,-0.139C0.458,-0.189 0.471,-0.264 0.471,-0.364C0.471,-0.464 0.458,-0.539 0.433,-0.589C0.407,-0.639 0.369,-0.664 0.318,-0.664ZM0.318,-0.742C0.4,-0.742 0.462,-0.71 0.505,-0.645C0.548,-0.581 0.57,-0.487 0.57,-0.364C0.57,-0.241 0.548,-0.147 0.505,-0.083C0.462,-0.018 0.4,0.014 0.318,0.014C0.236,0.014 0.174,-0.018 0.131,-0.083C0.087,-0.147 0.066,-0.241 0.066,-0.364C0.066,-0.487 0.087,-0.581 0.131,-0.645C0.174,-0.71 0.236,-0.742 0.318,-0.742Z" style="fill-rule:nonzero;"/>
    </g>
    <g transform="matrix(10,0,0,10,281.091,322.178)">
        <path d="M0.378,-0.643L0.129,-0.254L0.378,-0.254L0.378,-0.643ZM0.352,-0.729L0.476,-0.729L0.476,-0.254L0.58,-0.254L0.58,-0.172L0.476,-0.172L0.476,-0L0.378,-0L0.378,-0.172L0.049,-0.172L0.049,-0.267L0.352,-0.729Z" style="fill-rule:nonzero;"/>
    </g>
    <g transform="matrix(10,0,0,10,287.451,322.178)">
        <path d="M0.318,-0.664C0.267,-0.664 0.229,-0.639 0.203,-0.589C0.178,-0.539 0.165,-0.464 0.165,-0.364C0.165,-0.264 0.178,-0.189 0.203,-0.139C0.229,-0.089 0.267,-0.064 0.318,-0.064C0.369,-0.064 0.407,-0.089 0.433,-0.139C0.458,-0.189 0.471,-0.264 0.471,-0.364C0.471,-0.464 0.458,-0.539 0.433,-0.589C0.407,-0.639 0.369,-0.664 0.318,-0.664ZM0.318,-0.742C0.4,-0.742 0.462,-0.71 0.505,-0.645C0.548,-0.581 0.57,-0.487 0.57,-0.364C0.57,-0.241 0.548,-0.147 0.505,-0.083C0.462,-0.018 0.4,0.014 0.318,0.014C0.236,0.014 0.174,-0.018 0.131,-0.083C0.087,-0.147 0.066,-0.241 0.066,-0.364C0.066,-0.487 0.087,-0.581 0.131,-0.645C0.174,-0.71 0.236,-0.742 0.318,-0.742Z" style="fill-rule:nonzero;"/>
    </g>
    <g transform="matrix(10,0,0,10,293.811,322.178)">
        <path d="M0.318,-0.664C0.267,-0.664 0.229,-0.639 0.203,-0.589C0.178,-0.539 0.165,-0.464 0.165,-0.364C0.165,-0.264 0.178,-0.189 0.203,-0.139C0.229,-0.089 0.267,-0.064 0.318,-0.064C0.369,-0.064 0.407,-0.089 0.433,-0.139C0.458,-0.189 0.471,-0.264 0.471,-0.364C0.471,-0.464 0.458,-0.539 0.433,-0.589C0.407,-0.639 0.369,-0.664 0.318,-0.664ZM0.318,-0.742C0.4,-0.742 0.462,-0.71 0.505,-0.645C0.548,-0.581 0.57,-0.487 0.57,-0.364C0.57,-0.241 0.548,-0.147 0.505,-0.083C0.462,-0.018 0.4,0.014 0.318,0.014C0.236,0.014 0.174,-0.018 0.131,-0.083C0.087,-0.147 0.066,-0.241 0.066,-0.364C0.066,-0.487 0.087,-0.581 0.131,-0.645C0.174,-0.71 0.236,-0.742 0.318,-0.742Z" style="fill-rule:nonzero;"/>
    </g>
    <g transform="matrix(10,0,0,10,335.291,322.178)">
        <path d="M0.108,-0.729L0.495,-0.729L0.495,-0.646L0.198,-0.646L0.198,-0.467C0.213,-0.472 0.227,-0.476 0.241,-0.478C0.256,-0.481 0.27,-0.482 0.284,-0.482C0.366,-0.482 0.43,-0.46 0.478,-0.415C0.525,-0.37 0.549,-0.31 0.549,-0.234C0.549,-0.155 0.524,-0.094 0.476,-0.051C0.427,-0.008 0.358,0.014 0.269,0.014C0.238,0.014 0.207,0.012 0.176,0.006C0.144,0.001 0.111,-0.007 0.077,-0.017L0.077,-0.116C0.106,-0.1 0.137,-0.088 0.168,-0.081C0.199,-0.073 0.232,-0.069 0.267,-0.069C0.323,-0.069 0.368,-0.084 0.401,-0.113C0.434,-0.143 0.45,-0.183 0.45,-0.234C0.45,-0.285 0.434,-0.325 0.401,-0.354C0.368,-0.384 0.323,-0.399 0.267,-0.399C0.241,-0.399 0.214,-0.396 0.188,-0.39C0.162,-0.384 0.135,-0.375 0.108,-0.363L0.108,-0.729Z" style="fill-rule:nonzero;"/>
    </g>
    <g transform="matrix(10,0,0,10,341.651,322.178)">
        <path d="M0.318,-0.664C0.267,-0.664 0.229,-0.639 0.203,-0.589C0.178,-0.539 0.165,-0.464 0.165,-0.364C0.165,-0.264 0.178,-0.189 0.203,-0.139C0.229,-0.089 0.267,-0.064 0.318,-0.064C0.369,-0.064 0.407,-0.089 0.433,-0.139C0.458,-0.189 0.471,-0.264 0.471,-0.364C0.471,-0.464 0.458,-0.539 0.433,-0.589C0.407,-0.639 0.369,-0.664 0.318,-0.664ZM0.318,-0.742C0.4,-0.742 0.462,-0.71 0.505,-0.645C0.548,-0.581 0.57,-0.487 0.57,-0.364C0.57,-0.241 0.548,-0.147 0.505,-0.083C0.462,-0.018 0.4,0.014 0.318,0.014C0.236,0.014 0.174,-0.018 0.131,-0.083C0.087,-0.147 0.066,-0.241 0.066,-0.364C0.066,-0.487 0.087,-0.581 0.131,-0.645C0.174,-0.71 0.236,-0.742 0.318,-0.742Z" style="fill-rule:nonzero;"/>
    </g>
    <g transform="matrix(10,0,0,10,348.011,322.178)">
        <path d="M0.318,-0.664C0.267,-0.664 0.229,-0.639 0.203,-0.589C0.178,-0.539 0.165,-0.464 0.165,-0.364C0.165,-0.264 0.178,-0.189 0.203,-0.139C0.229,-0.089 0.267,-0.064 0.318,-0.064C0.369,-0.064 0.407,-0.089 0.433,-0.139C0.458,-0.189 0.471,-0.264 0.471,-0.364C0.471,-0.464 0.458,-0.539 0.433,-0.589C0.407,-0.639 0.369,-0.664 0.318,-0.664ZM0.318,-0.742C0.4,-0.742 0.462,-0.71 0.505,-0.645C0.548,-0.581 0.57,-0.487 0.57,-0.364C0.57,-0.241 0.548,-0.147 0.505,-0.083C0.462,-0.018 0.4,0.014 0.318,0.014C0.236,0.014 0.174,-0.018 0.131,-0.083C0.087,-0.147 0.066,-0.241 0.066,-0.364C0.066,-0.487 0.087,-0.581 0.131,-0.645C0.174,-0.71 0.236,-0.742 0.318,-0.742Z" style="fill-rule:nonzero;"/>
    </g>
    <g transform="matrix(10,0,0,10,389.49,322.178)">
        <path d="M0.33,-0.404C0.286,-0.404 0.251,-0.389 0.225,-0.358C0.199,-0.328 0.186,-0.287 0.186,-0.234C0.186,-0.181 0.199,-0.14 0.225,-0.11C0.251,-0.079 0.286,-0.064 0.33,-0.064C0.374,-0.064 0.409,-0.079 0.435,-0.11C0.461,-0.14 0.474,-0.181 0.474,-0.234C0.474,-0.287 0.461,-0.328 0.435,-0.358C0.409,-0.389 0.374,-0.404 0.33,-0.404ZM0.526,-0.713L0.526,-0.623C0.501,-0.635 0.476,-0.644 0.451,-0.65C0.426,-0.656 0.401,-0.659 0.376,-0.659C0.311,-0.659 0.261,-0.637 0.227,-0.593C0.192,-0.549 0.173,-0.483 0.168,-0.394C0.187,-0.422 0.211,-0.444 0.24,-0.459C0.269,-0.474 0.301,-0.482 0.336,-0.482C0.409,-0.482 0.467,-0.46 0.51,-0.415C0.552,-0.371 0.573,-0.31 0.573,-0.234C0.573,-0.159 0.551,-0.099 0.507,-0.054C0.463,-0.008 0.404,0.014 0.33,0.014C0.246,0.014 0.181,-0.018 0.137,-0.083C0.092,-0.147 0.07,-0.241 0.07,-0.364C0.07,-0.479 0.097,-0.571 0.152,-0.639C0.207,-0.708 0.28,-0.742 0.372,-0.742C0.397,-0.742 0.422,-0.74 0.447,-0.735C0.472,-0.73 0.499,-0.723 0.526,-0.713Z" style="fill-rule:nonzero;"/>
    </g>
    <g transform="matrix(10,0,0,10,395.85,322.178)">
        <path d="M0.318,-0.664C0.267,-0.664 0.229,-0.639 0.203,-0.589C0.178,-0.539 0.165,-0.464 0.165,-0.364C0.165,-0.264 0.178,-0.189 0.203,-0.139C0.229,-0.089 0.267,-0.064 0.318,-0.064C0.369,-0.064 0.407,-0.089 0.433,-0.139C0.458,-0.189 0.471,-0.264 0.471,-0.364C0.471,-0.464 0.458,-0.539 0.433,-0.589C0.407,-0.639 0.369,-0.664 0.318,-0.664ZM0.318,-0.742C0.4,-0.742 0.462,-0.71 0.505,-0.645C0.548,-0.581 0.57,-0.487 0.57,-0.364C0.57,-0.241 0.548,-0.147 0.505,-0.083C0.462,-0.018 0.4,0.014 0.318,0.014C0.236,0.014 0.174,-0.018 0.131,-0.083C0.087,-0.147 0.066,-0.241 0.066,-0.364C0.066,-0.487 0.087,-0.581 0.131,-0.645C0.174,-0.71 0.236,-0.742 0.318,-0.742Z" style="fill-rule:nonzero;"/>
    </g>
    <g transform="matrix(10,0,0,10,402.21,322.178)">
        <path d="M0.318,-0.664C0.267,-0.664 0.229,-0.639 0.203,-0.589C0.178,-0.539 0.165,-0.464 0.165,-0.364C0.165,-0.264 0.178,-0.189 0.203,-0.139C0.229,-0.089 0.267,-0.064 0.318,-0.064C0.369,-0.064 0.407,-0.089 0.433,-0.139C0.458,-0.189 0.471,-0.264 0.471,-0.364C0.471,-0.464 0.458,-0.539 0.433,-0.589C0.407,-0.639 0.369,-0.664 0.318,-0.664ZM0.318,-0.742C0.4,-0.742 0.462,-0.71 0.505,-0.645C0.548,-0.581 0.57,-0.487 0.57,-0.364C0.57,-0.241 0.548,-0.147 0.505,-0.083C0.462,-0.018 0.4,0.014 0.318,0.014C0.236,0.014 0.174,-0.018 0.131,-0.083C0.087,-0.147 0.066,-0.241 0.066,-0.364C0.066,-0.487 0.087,-0.581 0.131,-0.645C0.174,-0.71 0.236,-0.742 0.318,-0.742Z" style="fill-rule:nonzero;"/>
    </g>
    <g transform="matrix(10,0,0,10,201.738,335.85)">
        <path d="M0.183,-0.702L0.183,-0.547L0.368,-0.547L0.368,-0.477L0.183,-0.477L0.183,-0.18C0.183,-0.136 0.189,-0.107 0.201,-0.094C0.214,-0.082 0.238,-0.075 0.276,-0.075L0.368,-0.075L0.368,-0L0.276,-0C0.207,-0 0.159,-0.013 0.132,-0.039C0.106,-0.065 0.093,-0.112 0.093,-0.18L0.093,-0.477L0.027,-0.477L0.027,-0.547L0.093,-0.547L0.093,-0.702L0.183,-0.702Z" style="fill-rule:nonzero;"/>
    </g>
    <g transform="matrix(10,0,0,10,205.66,335.85)">
        <path d="M0.094,-0.547L0.184,-0.547L0.184,-0L0.094,-0L0.094,-0.547ZM0.094,-0.76L0.184,-0.76L0.184,-0.646L0.094,-0.646L0.094,-0.76Z" style="fill-rule:nonzero;"/>
    </g>
    <g transform="matrix(10,0,0,10,208.439,335.85)">
        <path d="M0.52,-0.442C0.542,-0.482 0.569,-0.512 0.601,-0.531C0.632,-0.55 0.669,-0.56 0.711,-0.56C0.768,-0.56 0.812,-0.54 0.843,-0.5C0.874,-0.46 0.889,-0.404 0.889,-0.33L0.889,-0L0.799,-0L0.799,-0.327C0.799,-0.38 0.79,-0.418 0.771,-0.444C0.752,-0.469 0.724,-0.482 0.686,-0.482C0.639,-0.482 0.603,-0.466 0.576,-0.436C0.549,-0.405 0.535,-0.362 0.535,-0.309L0.535,-0L0.445,-0L0.445,-0.327C0.445,-0.38 0.436,-0.419 0.417,-0.444C0.398,-0.469 0.37,-0.482 0.331,-0.482C0.285,-0.482 0.249,-0.466 0.222,-0.435C0.195,-0.404 0.181,-0.362 0.181,-0.309L0.181,-0L0.091,-0L0.091,-0.547L0.181,-0.547L0.181,-0.462C0.202,-0.495 0.226,-0.52 0.255,-0.536C0.284,-0.552 0.318,-0.56 0.357,-0.56C0.397,-0.56 0.43,-0.55 0.458,-0.53C0.486,-0.51 0.507,-0.48 0.52,-0.442Z" style="fill-rule:nonzero;"/>
    </g>
    <g transform="matrix(10,0,0,10,218.181,335.85)">
        <path d="M0.562,-0.296L0.562,-0.252L0.149,-0.252C0.153,-0.19 0.171,-0.143 0.205,-0.111C0.238,-0.078 0.285,-0.062 0.344,-0.062C0.379,-0.062 0.412,-0.066 0.445,-0.075C0.477,-0.083 0.509,-0.096 0.541,-0.113L0.541,-0.028C0.509,-0.014 0.476,-0.004 0.442,0.003C0.408,0.011 0.374,0.014 0.339,0.014C0.252,0.014 0.183,-0.011 0.132,-0.062C0.081,-0.113 0.055,-0.181 0.055,-0.268C0.055,-0.358 0.079,-0.429 0.128,-0.481C0.176,-0.534 0.241,-0.56 0.323,-0.56C0.397,-0.56 0.455,-0.536 0.498,-0.489C0.541,-0.442 0.562,-0.377 0.562,-0.296ZM0.472,-0.322C0.472,-0.371 0.458,-0.411 0.431,-0.44C0.404,-0.469 0.368,-0.484 0.324,-0.484C0.274,-0.484 0.234,-0.47 0.204,-0.441C0.174,-0.413 0.156,-0.373 0.152,-0.322L0.472,-0.322Z" style="fill-rule:nonzero;"/>
    </g>
    <g transform="matrix(10,0,0,10,227.516,335.85)">
        <path d="M0.094,-0.547L0.184,-0.547L0.184,-0L0.094,-0L0.094,-0.547ZM0.094,-0.76L0.184,-0.76L0.184,-0.646L0.094,-0.646L0.094,-0.76Z" style="fill-rule:nonzero;"/>
    </g>
    <g transform="matrix(10,0,0,10,230.295,335.85)">
        <path d="M0.549,-0.33L0.549,-0L0.459,-0L0.459,-0.327C0.459,-0.379 0.449,-0.418 0.429,-0.443C0.409,-0.469 0.378,-0.482 0.338,-0.482C0.289,-0.482 0.251,-0.466 0.223,-0.436C0.195,-0.405 0.181,-0.362 0.181,-0.309L0.181,-0L0.091,-0L0.091,-0.547L0.181,-0.547L0.181,-0.462C0.203,-0.495 0.228,-0.519 0.257,-0.536C0.286,-0.552 0.32,-0.56 0.358,-0.56C0.421,-0.56 0.468,-0.541 0.5,-0.502C0.533,-0.463 0.549,-0.406 0.549,-0.33Z" style="fill-rule:nonzero;"/>
    </g>
    <g transform="matrix(10,0,0,10,239.816,335.85)">
        <path d="M0.181,-0.082L0.181,0.208L0.091,0.208L0.091,-0.547L0.181,-0.547L0.181,-0.464C0.2,-0.496 0.224,-0.521 0.253,-0.536C0.281,-0.552 0.316,-0.56 0.356,-0.56C0.422,-0.56 0.476,-0.534 0.518,-0.481C0.559,-0.428 0.58,-0.359 0.58,-0.273C0.58,-0.187 0.559,-0.118 0.518,-0.065C0.476,-0.012 0.422,0.014 0.356,0.014C0.316,0.014 0.281,0.006 0.253,-0.01C0.224,-0.025 0.2,-0.049 0.181,-0.082ZM0.487,-0.273C0.487,-0.339 0.473,-0.391 0.446,-0.428C0.419,-0.466 0.382,-0.485 0.334,-0.485C0.286,-0.485 0.249,-0.466 0.222,-0.428C0.195,-0.391 0.181,-0.339 0.181,-0.273C0.181,-0.207 0.195,-0.155 0.222,-0.117C0.249,-0.08 0.286,-0.061 0.334,-0.061C0.382,-0.061 0.419,-0.08 0.446,-0.117C0.473,-0.155 0.487,-0.207 0.487,-0.273Z" style="fill-rule:nonzero;"/>
    </g>
    <g transform="matrix(10,0,0,10,246.164,335.85)">
        <path d="M0.306,-0.484C0.258,-0.484 0.22,-0.465 0.192,-0.427C0.164,-0.39 0.15,-0.338 0.15,-0.273C0.15,-0.208 0.164,-0.156 0.192,-0.118C0.219,-0.081 0.258,-0.062 0.306,-0.062C0.354,-0.062 0.392,-0.081 0.42,-0.119C0.448,-0.156 0.462,-0.208 0.462,-0.273C0.462,-0.338 0.448,-0.389 0.42,-0.427C0.392,-0.465 0.354,-0.484 0.306,-0.484ZM0.306,-0.56C0.384,-0.56 0.446,-0.535 0.49,-0.484C0.535,-0.433 0.557,-0.363 0.557,-0.273C0.557,-0.183 0.535,-0.113 0.49,-0.062C0.446,-0.011 0.384,0.014 0.306,0.014C0.228,0.014 0.166,-0.011 0.122,-0.062C0.077,-0.113 0.055,-0.183 0.055,-0.273C0.055,-0.363 0.077,-0.433 0.122,-0.484C0.166,-0.535 0.228,-0.56 0.306,-0.56Z" style="fill-rule:nonzero;"/>
    </g>
    <g transform="matrix(10,0,0,10,252.283,335.85)">
        <path d="M0.094,-0.547L0.184,-0.547L0.184,-0L0.094,-0L0.094,-0.547ZM0.094,-0.76L0.184,-0.76L0.184,-0.646L0.094,-0.646L0.094,-0.76Z" style="fill-rule:nonzero;"/>
    </g>
    <g transform="matrix(10,0,0,10,255.062,335.85)">
        <path d="M0.549,-0.33L0.549,-0L0.459,-0L0.459,-0.327C0.459,-0.379 0.449,-0.418 0.429,-0.443C0.409,-0.469 0.378,-0.482 0.338,-0.482C0.289,-0.482 0.251,-0.466 0.223,-0.436C0.195,-0.405 0.181,-0.362 0.181,-0.309L0.181,-0L0.091,-0L0.091,-0.547L0.181,-0.547L0.181,-0.462C0.203,-0.495 0.228,-0.519 0.257,-0.536C0.286,-0.552 0.32,-0.56 0.358,-0.56C0.421,-0.56 0.468,-0.541 0.5,-0.502C0.533,-0.463 0.549,-0.406 0.549,-0.33Z" style="fill-rule:nonzero;"/>
    </g>
    <g transform="matrix(10,0,0,10,261.401,335.85)">
        <path d="M0.183,-0.702L0.183,-0.547L0.368,-0.547L0.368,-0.477L0.183,-0.477L0.183,-0.18C0.183,-0.136 0.189,-0.107 0.201,-0.094C0.214,-0.082 0.238,-0.075 0.276,-0.075L0.368,-0.075L0.368,-0L0.276,-0C0.207,-0 0.159,-0.013 0.132,-0.039C0.106,-0.065 0.093,-0.112 0.093,-0.18L0.093,-0.477L0.027,-0.477L0.027,-0.547L0.093,-0.547L0.093,-0.702L0.183,-0.702Z" style="fill-rule:nonzero;"/>
    </g>
    <g transform="matrix(10,0,0,10,265.322,335.85)">
        <path d="M0.443,-0.531L0.443,-0.446C0.417,-0.459 0.391,-0.469 0.364,-0.475C0.336,-0.482 0.308,-0.485 0.279,-0.485C0.234,-0.485 0.201,-0.478 0.178,-0.464C0.156,-0.451 0.145,-0.43 0.145,-0.403C0.145,-0.382 0.153,-0.366 0.169,-0.354C0.185,-0.342 0.217,-0.331 0.265,-0.32L0.296,-0.313C0.36,-0.299 0.405,-0.28 0.432,-0.255C0.459,-0.23 0.472,-0.195 0.472,-0.151C0.472,-0.1 0.452,-0.06 0.412,-0.03C0.372,-0.001 0.316,0.014 0.246,0.014C0.217,0.014 0.186,0.011 0.155,0.006C0.123,-0 0.089,-0.009 0.054,-0.02L0.054,-0.113C0.087,-0.096 0.12,-0.083 0.152,-0.074C0.185,-0.065 0.216,-0.061 0.248,-0.061C0.29,-0.061 0.323,-0.068 0.346,-0.083C0.368,-0.097 0.38,-0.118 0.38,-0.144C0.38,-0.168 0.372,-0.187 0.355,-0.2C0.339,-0.213 0.303,-0.226 0.247,-0.238L0.216,-0.245C0.16,-0.257 0.12,-0.275 0.095,-0.299C0.07,-0.323 0.058,-0.357 0.058,-0.399C0.058,-0.45 0.076,-0.49 0.113,-0.518C0.149,-0.546 0.201,-0.56 0.268,-0.56C0.301,-0.56 0.333,-0.558 0.362,-0.553C0.391,-0.548 0.418,-0.541 0.443,-0.531Z" style="fill-rule:nonzero;"/>
    </g>
    <g transform="matrix(10,0,0,10,37.8852,301.317)">
        <path d="M0.406,-0.393C0.453,-0.383 0.49,-0.362 0.516,-0.33C0.543,-0.298 0.556,-0.259 0.556,-0.212C0.556,-0.14 0.531,-0.084 0.482,-0.045C0.432,-0.006 0.362,0.014 0.271,0.014C0.24,0.014 0.209,0.011 0.177,0.005C0.144,-0.001 0.111,-0.01 0.076,-0.022L0.076,-0.117C0.104,-0.101 0.133,-0.089 0.166,-0.081C0.199,-0.073 0.233,-0.069 0.268,-0.069C0.33,-0.069 0.377,-0.081 0.409,-0.105C0.442,-0.13 0.458,-0.165 0.458,-0.212C0.458,-0.255 0.443,-0.288 0.413,-0.313C0.383,-0.337 0.341,-0.349 0.287,-0.349L0.202,-0.349L0.202,-0.43L0.291,-0.43C0.34,-0.43 0.377,-0.44 0.402,-0.459C0.428,-0.479 0.441,-0.507 0.441,-0.543C0.441,-0.58 0.428,-0.609 0.401,-0.629C0.375,-0.649 0.337,-0.659 0.287,-0.659C0.26,-0.659 0.231,-0.656 0.2,-0.65C0.169,-0.645 0.135,-0.635 0.098,-0.623L0.098,-0.711C0.136,-0.721 0.171,-0.729 0.203,-0.734C0.236,-0.74 0.267,-0.742 0.296,-0.742C0.371,-0.742 0.43,-0.725 0.474,-0.691C0.517,-0.657 0.539,-0.611 0.539,-0.553C0.539,-0.513 0.528,-0.479 0.504,-0.451C0.481,-0.423 0.448,-0.404 0.406,-0.393Z" style="fill-rule:nonzero;"/>
    </g>
    <g transform="matrix(10,0,0,10,44.2452,301.317)">
        <path d="M0.108,-0.729L0.495,-0.729L0.495,-0.646L0.198,-0.646L0.198,-0.467C0.213,-0.472 0.227,-0.476 0.241,-0.478C0.256,-0.481 0.27,-0.482 0.284,-0.482C0.366,-0.482 0.43,-0.46 0.478,-0.415C0.525,-0.37 0.549,-0.31 0.549,-0.234C0.549,-0.155 0.524,-0.094 0.476,-0.051C0.427,-0.008 0.358,0.014 0.269,0.014C0.238,0.014 0.207,0.012 0.176,0.006C0.144,0.001 0.111,-0.007 0.077,-0.017L0.077,-0.116C0.106,-0.1 0.137,-0.088 0.168,-0.081C0.199,-0.073 0.232,-0.069 0.267,-0.069C0.323,-0.069 0.368,-0.084 0.401,-0.113C0.434,-0.143 0.45,-0.183 0.45,-0.234C0.45,-0.285 0.434,-0.325 0.401,-0.354C0.368,-0.384 0.323,-0.399 0.267,-0.399C0.241,-0.399 0.214,-0.396 0.188,-0.39C0.162,-0.384 0.135,-0.375 0.108,-0.363L0.108,-0.729Z" style="fill-rule:nonzero;"/>
    </g>
    <g transform="matrix(10,0,0,10,37.8852,269.613)">
        <path d="M0.406,-0.393C0.453,-0.383 0.49,-0.362 0.516,-0.33C0.543,-0.298 0.556,-0.259 0.556,-0.212C0.556,-0.14 0.531,-0.084 0.482,-0.045C0.432,-0.006 0.362,0.014 0.271,0.014C0.24,0.014 0.209,0.011 0.177,0.005C0.144,-0.001 0.111,-0.01 0.076,-0.022L0.076,-0.117C0.104,-0.101 0.133,-0.089 0.166,-0.081C0.199,-0.073 0.233,-0.069 0.268,-0.069C0.33,-0.069 0.377,-0.081 0.409,-0.105C0.442,-0.13 0.458,-0.165 0.458,-0.212C0.458,-0.255 0.443,-0.288 0.413,-0.313C0.383,-0.337 0.341,-0.349 0.287,-0.349L0.202,-0.349L0.202,-0.43L0.291,-0.43C0.34,-0.43 0.377,-0.44 0.402,-0.459C0.428,-0.479 0.441,-0.507 0.441,-0.543C0.441,-0.58 0.428,-0.609 0.401,-0.629C0.375,-0.649 0.337,-0.659 0.287,-0.659C0.26,-0.659 0.231,-0.656 0.2,-0.65C0.169,-0.645 0.135,-0.635 0.098,-0.623L0.098,-0.711C0.136,-0.721 0.171,-0.729 0.203,-0.734C0.236,-0.74 0.267,-0.742 0.296,-0.742C0.371,-0.742 0.43,-0.725 0.474,-0.691C0.517,-0.657 0.539,-0.611 0.539,-0.553C0.539,-0.513 0.528,-0.479 0.504,-0.451C0.481,-0.423 0.448,-0.404 0.406,-0.393Z" style="fill-rule:nonzero;"/>
    </g>
    <g transform="matrix(10,0,0,10,44.2452,269.613)">
        <path d="M0.318,-0.664C0.267,-0.664 0.229,-0.639 0.203,-0.589C0.178,-0.539 0.165,-0.464 0.165,-0.364C0.165,-0.264 0.178,-0.189 0.203,-0.139C0.229,-0.089 0.267,-0.064 0.318,-0.064C0.369,-0.064 0.407,-0.089 0.433,-0.139C0.458,-0.189 0.471,-0.264 0.471,-0.364C0.471,-0.464 0.458,-0.539 0.433,-0.589C0.407,-0.639 0.369,-0.664 0.318,-0.664ZM0.318,-0.742C0.4,-0.742 0.462,-0.71 0.505,-0.645C0.548,-0.581 0.57,-0.487 0.57,-0.364C0.57,-0.241 0.548,-0.147 0.505,-0.083C0.462,-0.018 0.4,0.014 0.318,0.014C0.236,0.014 0.174,-0.018 0.131,-0.083C0.087,-0.147 0.066,-0.241 0.066,-0.364C0.066,-0.487 0.087,-0.581 0.131,-0.645C0.174,-0.71 0.236,-0.742 0.318,-0.742Z" style="fill-rule:nonzero;"/>
    </g>
    <g transform="matrix(10,0,0,10,37.8852,237.91)">
        <path d="M0.192,-0.083L0.536,-0.083L0.536,-0L0.073,-0L0.073,-0.083C0.111,-0.122 0.162,-0.174 0.226,-0.239C0.291,-0.304 0.332,-0.346 0.348,-0.365C0.38,-0.401 0.402,-0.431 0.414,-0.455C0.427,-0.48 0.433,-0.504 0.433,-0.528C0.433,-0.567 0.42,-0.598 0.392,-0.623C0.365,-0.647 0.33,-0.659 0.286,-0.659C0.255,-0.659 0.223,-0.654 0.188,-0.643C0.154,-0.632 0.117,-0.616 0.078,-0.594L0.078,-0.694C0.118,-0.71 0.155,-0.722 0.189,-0.73C0.224,-0.738 0.256,-0.742 0.284,-0.742C0.36,-0.742 0.42,-0.723 0.465,-0.686C0.51,-0.648 0.532,-0.597 0.532,-0.534C0.532,-0.504 0.527,-0.476 0.515,-0.449C0.504,-0.422 0.484,-0.39 0.454,-0.354C0.446,-0.345 0.42,-0.317 0.376,-0.272C0.333,-0.227 0.271,-0.164 0.192,-0.083Z" style="fill-rule:nonzero;"/>
    </g>
    <g transform="matrix(10,0,0,10,44.2452,237.91)">
        <path d="M0.108,-0.729L0.495,-0.729L0.495,-0.646L0.198,-0.646L0.198,-0.467C0.213,-0.472 0.227,-0.476 0.241,-0.478C0.256,-0.481 0.27,-0.482 0.284,-0.482C0.366,-0.482 0.43,-0.46 0.478,-0.415C0.525,-0.37 0.549,-0.31 0.549,-0.234C0.549,-0.155 0.524,-0.094 0.476,-0.051C0.427,-0.008 0.358,0.014 0.269,0.014C0.238,0.014 0.207,0.012 0.176,0.006C0.144,0.001 0.111,-0.007 0.077,-0.017L0.077,-0.116C0.106,-0.1 0.137,-0.088 0.168,-0.081C0.199,-0.073 0.232,-0.069 0.267,-0.069C0.323,-0.069 0.368,-0.084 0.401,-0.113C0.434,-0.143 0.45,-0.183 0.45,-0.234C0.45,-0.285 0.434,-0.325 0.401,-0.354C0.368,-0.384 0.323,-0.399 0.267,-0.399C0.241,-0.399 0.214,-0.396 0.188,-0.39C0.162,-0.384 0.135,-0.375 0.108,-0.363L0.108,-0.729Z" style="fill-rule:nonzero;"/>
    </g>
    <g transform="matrix(10,0,0,10,37.8852,206.206)">
        <path d="M0.192,-0.083L0.536,-0.083L0.536,-0L0.073,-0L0.073,-0.083C0.111,-0.122 0.162,-0.174 0.226,-0.239C0.291,-0.304 0.332,-0.346 0.348,-0.365C0.38,-0.401 0.402,-0.431 0.414,-0.455C0.427,-0.48 0.433,-0.504 0.433,-0.528C0.433,-0.567 0.42,-0.598 0.392,-0.623C0.365,-0.647 0.33,-0.659 0.286,-0.659C0.255,-0.659 0.223,-0.654 0.188,-0.643C0.154,-0.632 0.117,-0.616 0.078,-0.594L0.078,-0.694C0.118,-0.71 0.155,-0.722 0.189,-0.73C0.224,-0.738 0.256,-0.742 0.284,-0.742C0.36,-0.742 0.42,-0.723 0.465,-0.686C0.51,-0.648 0.532,-0.597 0.532,-0.534C0.532,-0.504 0.527,-0.476 0.515,-0.449C0.504,-0.422 0.484,-0.39 0.454,-0.354C0.446,-0.345 0.42,-0.317 0.376,-0.272C0.333,-0.227 0.271,-0.164 0.192,-0.083Z" style="fill-rule:nonzero;"/>
    </g>
    <g transform="matrix(10,0,0,10,44.2452,206.206)">
        <path d="M0.318,-0.664C0.267,-0.664 0.229,-0.639 0.203,-0.589C0.178,-0.539 0.165,-0.464 0.165,-0.364C0.165,-0.264 0.178,-0.189 0.203,-0.139C0.229,-0.089 0.267,-0.064 0.318,-0.064C0.369,-0.064 0.407,-0.089 0.433,-0.139C0.458,-0.189 0.471,-0.264 0.471,-0.364C0.471,-0.464 0.458,-0.539 0.433,-0.589C0.407,-0.639 0.369,-0.664 0.318,-0.664ZM0.318,-0.742C0.4,-0.742 0.462,-0.71 0.505,-0.645C0.548,-0.581 0.57,-0.487 0.57,-0.364C0.57,-0.241 0.548,-0.147 0.505,-0.083C0.462,-0.018 0.4,0.014 0.318,0.014C0.236,0.014 0.174,-0.018 0.131,-0.083C0.087,-0.147 0.066,-0.241 0.066,-0.364C0.066,-0.487 0.087,-0.581 0.131,-0.645C0.174,-0.71 0.236,-0.742 0.318,-0.742Z" style="fill-rule:nonzero;"/>
    </g>
    <g transform="matrix(10,0,0,10,37.8852,174.503)">
        <path d="M0.124,-0.083L0.285,-0.083L0.285,-0.639L0.11,-0.604L0.11,-0.694L0.284,-0.729L0.383,-0.729L0.383,-0.083L0.544,-0.083L0.544,-0L0.124,-0L0.124,-0.083Z" style="fill-rule:nonzero;"/>
    </g>
    <g transform="matrix(10,0,0,10,44.2452,174.503)">
        <path d="M0.108,-0.729L0.495,-0.729L0.495,-0.646L0.198,-0.646L0.198,-0.467C0.213,-0.472 0.227,-0.476 0.241,-0.478C0.256,-0.481 0.27,-0.482 0.284,-0.482C0.366,-0.482 0.43,-0.46 0.478,-0.415C0.525,-0.37 0.549,-0.31 0.549,-0.234C0.549,-0.155 0.524,-0.094 0.476,-0.051C0.427,-0.008 0.358,0.014 0.269,0.014C0.238,0.014 0.207,0.012 0.176,0.006C0.144,0.001 0.111,-0.007 0.077,-0.017L0.077,-0.116C0.106,-0.1 0.137,-0.088 0.168,-0.081C0.199,-0.073 0.232,-0.069 0.267,-0.069C0.323,-0.069 0.368,-0.084 0.401,-0.113C0.434,-0.143 0.45,-0.183 0.45,-0.234C0.45,-0.285 0.434,-0.325 0.401,-0.354C0.368,-0.384 0.323,-0.399 0.267,-0.399C0.241,-0.399 0.214,-0.396 0.188,-0.39C0.162,-0.384 0.135,-0.375 0.108,-0.363L0.108,-0.729Z" style="fill-rule:nonzero;"/>
    </g>
    <g transform="matrix(10,0,0,10,37.8852,142.799)">
        <path d="M0.124,-0.083L0.285,-0.083L0.285,-0.639L0.11,-0.604L0.11,-0.694L0.284,-0.729L0.383,-0.729L0.383,-0.083L0.544,-0.083L0.544,-0L0.124,-0L0.124,-0.083Z" style="fill-rule:nonzero;"/>
    </g>
    <g transform="matrix(10,0,0,10,44.2452,142.799)">
        <path d="M0.318,-0.664C0.267,-0.664 0.229,-0.639 0.203,-0.589C0.178,-0.539 0.165,-0.464 0.165,-0.364C0.165,-0.264 0.178,-0.189 0.203,-0.139C0.229,-0.089 0.267,-0.064 0.318,-0.064C0.369,-0.064 0.407,-0.089 0.433,-0.139C0.458,-0.189 0.471,-0.264 0.471,-0.364C0.471,-0.464 0.458,-0.539 0.433,-0.589C0.407,-0.639 0.369,-0.664 0.318,-0.664ZM0.318,-0.742C0.4,-0.742 0.462,-0.71 0.505,-0.645C0.548,-0.581 0.57,-0.487 0.57,-0.364C0.57,-0.241 0.548,-0.147 0.505,-0.083C0.462,-0.018 0.4,0.014 0.318,0.014C0.236,0.014 0.174,-0.018 0.131,-0.083C0.087,-0.147 0.066,-0.241 0.066,-0.364C0.066,-0.487 0.087,-0.581 0.131,-0.645C0.174,-0.71 0.236,-0.742 0.318,-0.742Z" style="fill-rule:nonzero;"/>
    </g>
    <g transform="matrix(10,0,0,10,44.2445,111.095)">
        <path d="M0.108,-0.729L0.495,-0.729L0.495,-0.646L0.198,-0.646L0.198,-0.467C0.213,-0.472 0.227,-0.476 0.241,-0.478C0.256,-0.481 0.27,-0.482 0.284,-0.482C0.366,-0.482 0.43,-0.46 0.478,-0.415C0.525,-0.37 0.549,-0.31 0.549,-0.234C0.549,-0.155 0.524,-0.094 0.476,-0.051C0.427,-0.008 0.358,0.014 0.269,0.014C0.238,0.014 0.207,0.012 0.176,0.006C0.144,0.001 0.111,-0.007 0.077,-0.017L0.077,-0.116C0.106,-0.1 0.137,-0.088 0.168,-0.081C0.199,-0.073 0.232,-0.069 0.267,-0.069C0.323,-0.069 0.368,-0.084 0.401,-0.113C0.434,-0.143 0.45,-0.183 0.45,-0.234C0.45,-0.285 0.434,-0.325 0.401,-0.354C0.368,-0.384 0.323,-0.399 0.267,-0.399C0.241,-0.399 0.214,-0.396 0.188,-0.39C0.162,-0.384 0.135,-0.375 0.108,-0.363L0.108,-0.729Z" style="fill-rule:nonzero;"/>
    </g>
    <g transform="matrix(10,0,0,10,44.2406,79.3919)">
        <path d="M0.318,-0.664C0.267,-0.664 0.229,-0.639 0.203,-0.589C0.178,-0.539 0.165,-0.464 0.165,-0.364C0.165,-0.264 0.178,-0.189 0.203,-0.139C0.229,-0.089 0.267,-0.064 0.318,-0.064C0.369,-0.064 0.407,-0.089 0.433,-0.139C0.458,-0.189 0.471,-0.264 0.471,-0.364C0.471,-0.464 0.458,-0.539 0.433,-0.589C0.407,-0.639 0.369,-0.664 0.318,-0.664ZM0.318,-0.742C0.4,-0.742 0.462,-0.71 0.505,-0.645C0.548,-0.581 0.57,-0.487 0.57,-0.364C0.57,-0.241 0.548,-0.147 0.505,-0.083C0.462,-0.018 0.4,0.014 0.318,0.014C0.236,0.014 0.174,-0.018 0.131,-0.083C0.087,-0.147 0.066,-0.241 0.066,-0.364C0.066,-0.487 0.087,-0.581 0.131,-0.645C0.174,-0.71 0.236,-0.742 0.318,-0.742Z" style="fill-rule:nonzero;"/>
    </g>
    <g transform="matrix(10,0,0,10,44.2406,47.6883)">
        <path d="M0.108,-0.729L0.495,-0.729L0.495,-0.646L0.198,-0.646L0.198,-0.467C0.213,-0.472 0.227,-0.476 0.241,-0.478C0.256,-0.481 0.27,-0.482 0.284,-0.482C0.366,-0.482 0.43,-0.46 0.478,-0.415C0.525,-0.37 0.549,-0.31 0.549,-0.234C0.549,-0.155 0.524,-0.094 0.476,-0.051C0.427,-0.008 0.358,0.014 0.269,0.014C0.238,0.014 0.207,0.012 0.176,0.006C0.144,0.001 0.111,-0.007 0.077,-0.017L0.077,-0.116C0.106,-0.1 0.137,-0.088 0.168,-0.081C0.199,-0.073 0.232,-0.069 0.267,-0.069C0.323,-0.069 0.368,-0.084 0.401,-0.113C0.434,-0.143 0.45,-0.183 0.45,-0.234C0.45,-0.285 0.434,-0.325 0.401,-0.354C0.368,-0.384 0.323,-0.399 0.267,-0.399C0.241,-0.399 0.214,-0.396 0.188,-0.39C0.162,-0.384 0.135,-0.375 0.108,-0.363L0.108,-0.729Z" style="fill-rule:nonzero;"/>
    </g>
    <g transform="matrix(0,-1,1,0,0,0)">
        <g transform="matrix(10,0,0,10,-181.122,23.4281)">
            <path d="M0.181,-0.082L0.181,0.208L0.091,0.208L0.091,-0.547L0.181,-0.547L0.181,-0.464C0.2,-0.496 0.224,-0.521 0.253,-0.536C0.281,-0.552 0.316,-0.56 0.356,-0.56C0.422,-0.56 0.476,-0.534 0.518,-0.481C0.559,-0.428 0.58,-0.359 0.58,-0.273C0.58,-0.187 0.559,-0.118 0.518,-0.065C0.476,-0.012 0.422,0.014 0.356,0.014C0.316,0.014 0.281,0.006 0.253,-0.01C0.224,-0.025 0.2,-0.049 0.181,-0.082ZM0.487,-0.273C0.487,-0.339 0.473,-0.391 0.446,-0.428C0.419,-0.466 0.382,-0.485 0.334,-0.485C0.286,-0.485 0.249,-0.466 0.222,-0.428C0.195,-0.391 0.181,-0.339 0.181,-0.273C0.181,-0.207 0.195,-0.155 0.222,-0.117C0.249,-0.08 0.286,-0.061 0.334,-0.061C0.382,-0.061 0.419,-0.08 0.446,-0.117C0.473,-0.155 0.487,-0.207 0.487,-0.273Z" style="fill-rule:nonzero;"/>
        </g>
        <g transform="matrix(10,0,0,10,-174.772,23.4281)">
            <path d="M0.342,-0.632L0.208,-0.269L0.476,-0.269L0.342,-0.632ZM0.286,-0.729L0.398,-0.729L0.676,-0L0.573,-0L0.507,-0.187L0.178,-0.187L0.112,-0L0.008,-0L0.286,-0.729Z" style="fill-rule:nonzero;"/>
        </g>
    </g>
    <g transform="matrix(12,0,0,12,176.441,35.472)">
        <path d="M0.562,-0.296L0.562,-0.252L0.149,-0.252C0.153,-0.19 0.171,-0.143 0.205,-0.111C0.238,-0.078 0.285,-0.062 0.344,-0.062C0.379,-0.062 0.412,-0.066 0.445,-0.075C0.477,-0.083 0.509,-0.096 0.541,-0.113L0.541,-0.028C0.509,-0.014 0.476,-0.004 0.442,0.003C0.408,0.011 0.374,0.014 0.339,0.014C0.252,0.014 0.183,-0.011 0.132,-0.062C0.081,-0.113 0.055,-0.181 0.055,-0.268C0.055,-0.358 0.079,-0.429 0.128,-0.481C0.176,-0.534 0.241,-0.56 0.323,-0.56C0.397,-0.56 0.455,-0.536 0.498,-0.489C0.541,-0.442 0.562,-0.377 0.562,-0.296ZM0.472,-0.322C0.472,-0.371 0.458,-0.411 0.431,-0.44C0.404,-0.469 0.368,-0.484 0.324,-0.484C0.274,-0.484 0.234,-0.47 0.204,-0.441C0.174,-0.413 0.156,-0.373 0.152,-0.322L0.472,-0.322Z" style="fill-rule:nonzero;"/>
    </g>
    <g transform="matrix(12,0,0,12,183.614,35.472)">
        <path d="M0.549,-0.547L0.351,-0.281L0.559,-0L0.453,-0L0.294,-0.215L0.135,-0L0.029,-0L0.241,-0.286L0.047,-0.547L0.153,-0.547L0.298,-0.352L0.443,-0.547L0.549,-0.547Z" style="fill-rule:nonzero;"/>
    </g>
    <g transform="matrix(12,0,0,12,190.716,35.472)">
        <path d="M0.343,-0.275C0.27,-0.275 0.22,-0.267 0.192,-0.25C0.164,-0.233 0.15,-0.205 0.15,-0.165C0.15,-0.133 0.16,-0.108 0.181,-0.089C0.202,-0.07 0.231,-0.061 0.267,-0.061C0.317,-0.061 0.357,-0.079 0.387,-0.114C0.417,-0.149 0.432,-0.196 0.432,-0.255L0.432,-0.275L0.343,-0.275ZM0.522,-0.312L0.522,-0L0.432,-0L0.432,-0.083C0.412,-0.05 0.386,-0.025 0.355,-0.01C0.325,0.006 0.287,0.014 0.243,0.014C0.187,0.014 0.143,-0.002 0.11,-0.033C0.077,-0.064 0.06,-0.106 0.06,-0.159C0.06,-0.221 0.081,-0.267 0.122,-0.298C0.163,-0.33 0.224,-0.345 0.306,-0.345L0.432,-0.345L0.432,-0.354C0.432,-0.395 0.419,-0.427 0.391,-0.45C0.364,-0.473 0.326,-0.484 0.277,-0.484C0.246,-0.484 0.215,-0.48 0.186,-0.473C0.156,-0.465 0.127,-0.454 0.1,-0.439L0.1,-0.522C0.133,-0.535 0.165,-0.544 0.196,-0.551C0.227,-0.557 0.257,-0.56 0.286,-0.56C0.365,-0.56 0.424,-0.54 0.463,-0.499C0.502,-0.458 0.522,-0.395 0.522,-0.312Z" style="fill-rule:nonzero;"/>
    </g>
    <g transform="matrix(12,0,0,12,198.071,35.472)">
        <path d="M0.52,-0.442C0.542,-0.482 0.569,-0.512 0.601,-0.531C0.632,-0.55 0.669,-0.56 0.711,-0.56C0.768,-0.56 0.812,-0.54 0.843,-0.5C0.874,-0.46 0.889,-0.404 0.889,-0.33L0.889,-0L0.799,-0L0.799,-0.327C0.799,-0.38 0.79,-0.418 0.771,-0.444C0.752,-0.469 0.724,-0.482 0.686,-0.482C0.639,-0.482 0.603,-0.466 0.576,-0.436C0.549,-0.405 0.535,-0.362 0.535,-0.309L0.535,-0L0.445,-0L0.445,-0.327C0.445,-0.38 0.436,-0.419 0.417,-0.444C0.398,-0.469 0.37,-0.482 0.331,-0.482C0.285,-0.482 0.249,-0.466 0.222,-0.435C0.195,-0.404 0.181,-0.362 0.181,-0.309L0.181,-0L0.091,-0L0.091,-0.547L0.181,-0.547L0.181,-0.462C0.202,-0.495 0.226,-0.52 0.255,-0.536C0.284,-0.552 0.318,-0.56 0.357,-0.56C0.397,-0.56 0.43,-0.55 0.458,-0.53C0.486,-0.51 0.507,-0.48 0.52,-0.442Z" style="fill-rule:nonzero;"/>
    </g>
    <g transform="matrix(12,0,0,12,209.761,35.472)">
        <path d="M0.181,-0.082L0.181,0.208L0.091,0.208L0.091,-0.547L0.181,-0.547L0.181,-0.464C0.2,-0.496 0.224,-0.521 0.253,-0.536C0.281,-0.552 0.316,-0.56 0.356,-0.56C0.422,-0.56 0.476,-0.534 0.518,-0.481C0.559,-0.428 0.58,-0.359 0.58,-0.273C0.58,-0.187 0.559,-0.118 0.518,-0.065C0.476,-0.012 0.422,0.014 0.356,0.014C0.316,0.014 0.281,0.006 0.253,-0.01C0.224,-0.025 0.2,-0.049 0.181,-0.082ZM0.487,-0.273C0.487,-0.339 0.473,-0.391 0.446,-0.428C0.419,-0.466 0.382,-0.485 0.334,-0.485C0.286,-0.485 0.249,-0.466 0.222,-0.428C0.195,-0.391 0.181,-0.339 0.181,-0.273C0.181,-0.207 0.195,-0.155 0.222,-0.117C0.249,-0.08 0.286,-0.061 0.334,-0.061C0.382,-0.061 0.419,-0.08 0.446,-0.117C0.473,-0.155 0.487,-0.207 0.487,-0.273Z" style="fill-rule:nonzero;"/>
    </g>
    <g transform="matrix(12,0,0,12,217.379,35.472)">
        <rect x="0.094" y="-0.76" width="0.09" height="0.76" style="fill-rule:nonzero;"/>
    </g>
    <g transform="matrix(12,0,0,12,220.714,35.472)">
        <path d="M0.562,-0.296L0.562,-0.252L0.149,-0.252C0.153,-0.19 0.171,-0.143 0.205,-0.111C0.238,-0.078 0.285,-0.062 0.344,-0.062C0.379,-0.062 0.412,-0.066 0.445,-0.075C0.477,-0.083 0.509,-0.096 0.541,-0.113L0.541,-0.028C0.509,-0.014 0.476,-0.004 0.442,0.003C0.408,0.011 0.374,0.014 0.339,0.014C0.252,0.014 0.183,-0.011 0.132,-0.062C0.081,-0.113 0.055,-0.181 0.055,-0.268C0.055,-0.358 0.079,-0.429 0.128,-0.481C0.176,-0.534 0.241,-0.56 0.323,-0.56C0.397,-0.56 0.455,-0.536 0.498,-0.489C0.541,-0.442 0.562,-0.377 0.562,-0.296ZM0.472,-0.322C0.472,-0.371 0.458,-0.411 0.431,-0.44C0.404,-0.469 0.368,-0.484 0.324,-0.484C0.274,-0.484 0.234,-0.47 0.204,-0.441C0.174,-0.413 0.156,-0.373 0.152,-0.322L0.472,-0.322Z" style="fill-rule:nonzero;"/>
    </g>
    <g transform="matrix(12,0,0,12,231.913,35.472)">
        <path d="M0.595,-0.104L0.595,-0.3L0.434,-0.3L0.434,-0.381L0.693,-0.381L0.693,-0.068C0.655,-0.041 0.613,-0.02 0.567,-0.007C0.521,0.007 0.472,0.014 0.42,0.014C0.306,0.014 0.217,-0.019 0.153,-0.086C0.088,-0.152 0.056,-0.245 0.056,-0.364C0.056,-0.483 0.088,-0.576 0.153,-0.642C0.217,-0.709 0.306,-0.742 0.42,-0.742C0.467,-0.742 0.513,-0.736 0.555,-0.725C0.598,-0.713 0.638,-0.696 0.674,-0.673L0.674,-0.568C0.637,-0.599 0.599,-0.622 0.558,-0.638C0.517,-0.653 0.473,-0.661 0.428,-0.661C0.339,-0.661 0.272,-0.636 0.227,-0.586C0.183,-0.537 0.16,-0.462 0.16,-0.364C0.16,-0.265 0.183,-0.191 0.227,-0.142C0.272,-0.092 0.339,-0.067 0.428,-0.067C0.463,-0.067 0.494,-0.07 0.521,-0.076C0.549,-0.082 0.573,-0.091 0.595,-0.104Z" style="fill-rule:nonzero;"/>
    </g>
    <g transform="matrix(12,0,0,12,241.213,35.472)">
        <path d="M0.644,-0.673L0.644,-0.569C0.611,-0.6 0.575,-0.623 0.538,-0.638C0.5,-0.653 0.46,-0.661 0.418,-0.661C0.335,-0.661 0.271,-0.636 0.227,-0.585C0.182,-0.534 0.16,-0.46 0.16,-0.364C0.16,-0.268 0.182,-0.194 0.227,-0.143C0.271,-0.092 0.335,-0.067 0.418,-0.067C0.46,-0.067 0.5,-0.075 0.538,-0.09C0.575,-0.105 0.611,-0.128 0.644,-0.159L0.644,-0.056C0.61,-0.033 0.573,-0.015 0.534,-0.003C0.496,0.008 0.455,0.014 0.412,0.014C0.302,0.014 0.215,-0.02 0.151,-0.087C0.088,-0.155 0.056,-0.247 0.056,-0.364C0.056,-0.481 0.088,-0.573 0.151,-0.641C0.215,-0.708 0.302,-0.742 0.412,-0.742C0.456,-0.742 0.497,-0.736 0.535,-0.725C0.574,-0.713 0.61,-0.696 0.644,-0.673Z" style="fill-rule:nonzero;"/>
    </g>
    <g transform="matrix(12,0,0,12,253.408,35.472)">
        <path d="M0.52,-0.442C0.542,-0.482 0.569,-0.512 0.601,-0.531C0.632,-0.55 0.669,-0.56 0.711,-0.56C0.768,-0.56 0.812,-0.54 0.843,-0.5C0.874,-0.46 0.889,-0.404 0.889,-0.33L0.889,-0L0.799,-0L0.799,-0.327C0.799,-0.38 0.79,-0.418 0.771,-0.444C0.752,-0.469 0.724,-0.482 0.686,-0.482C0.639,-0.482 0.603,-0.466 0.576,-0.436C0.549,-0.405 0.535,-0.362 0.535,-0.309L0.535,-0L0.445,-0L0.445,-0.327C0.445,-0.38 0.436,-0.419 0.417,-0.444C0.398,-0.469 0.37,-0.482 0.331,-0.482C0.285,-0.482 0.249,-0.466 0.222,-0.435C0.195,-0.404 0.181,-0.362 0.181,-0.309L0.181,-0L0.091,-0L0.091,-0.547L0.181,-0.547L0.181,-0.462C0.202,-0.495 0.226,-0.52 0.255,-0.536C0.284,-0.552 0.318,-0.56 0.357,-0.56C0.397,-0.56 0.43,-0.55 0.458,-0.53C0.486,-0.51 0.507,-0.48 0.52,-0.442Z" style="fill-rule:nonzero;"/>
    </g>
    <g transform="matrix(12,0,0,12,265.099,35.472)">
        <path d="M0.098,-0.729L0.559,-0.729L0.559,-0.646L0.197,-0.646L0.197,-0.43L0.544,-0.43L0.544,-0.347L0.197,-0.347L0.197,-0.083L0.568,-0.083L0.568,-0L0.098,-0L0.098,-0.729Z" style="fill-rule:nonzero;"/>
    </g>
    <g transform="matrix(12,0,0,12,272.682,35.472)">
        <path d="M0.197,-0.648L0.197,-0.374L0.321,-0.374C0.367,-0.374 0.402,-0.386 0.427,-0.41C0.452,-0.433 0.465,-0.467 0.465,-0.511C0.465,-0.555 0.452,-0.589 0.427,-0.612C0.402,-0.636 0.367,-0.648 0.321,-0.648L0.197,-0.648ZM0.098,-0.729L0.321,-0.729C0.403,-0.729 0.464,-0.711 0.506,-0.674C0.548,-0.637 0.569,-0.583 0.569,-0.511C0.569,-0.439 0.548,-0.385 0.506,-0.348C0.464,-0.311 0.403,-0.293 0.321,-0.293L0.197,-0.293L0.197,-0L0.098,-0L0.098,-0.729Z" style="fill-rule:nonzero;"/>
    </g>
    <g transform="matrix(12,0,0,12,279.919,35.472)">
        <path d="M0.535,-0.705L0.535,-0.609C0.498,-0.627 0.462,-0.64 0.429,-0.649C0.396,-0.658 0.364,-0.662 0.333,-0.662C0.279,-0.662 0.238,-0.652 0.209,-0.631C0.18,-0.61 0.165,-0.58 0.165,-0.542C0.165,-0.51 0.175,-0.485 0.194,-0.469C0.213,-0.453 0.25,-0.439 0.304,-0.429L0.364,-0.417C0.437,-0.403 0.492,-0.378 0.527,-0.343C0.562,-0.308 0.579,-0.26 0.579,-0.201C0.579,-0.131 0.555,-0.077 0.508,-0.041C0.461,-0.004 0.391,0.014 0.3,0.014C0.265,0.014 0.229,0.01 0.19,0.002C0.151,-0.005 0.111,-0.017 0.069,-0.032L0.069,-0.134C0.109,-0.111 0.148,-0.094 0.187,-0.083C0.225,-0.072 0.263,-0.066 0.3,-0.066C0.356,-0.066 0.4,-0.077 0.43,-0.099C0.461,-0.121 0.476,-0.153 0.476,-0.194C0.476,-0.23 0.465,-0.258 0.443,-0.278C0.421,-0.298 0.385,-0.313 0.335,-0.323L0.275,-0.335C0.201,-0.35 0.148,-0.373 0.115,-0.404C0.082,-0.435 0.066,-0.479 0.066,-0.534C0.066,-0.599 0.089,-0.649 0.134,-0.687C0.179,-0.724 0.242,-0.742 0.322,-0.742C0.356,-0.742 0.391,-0.739 0.426,-0.733C0.462,-0.727 0.498,-0.717 0.535,-0.705Z" style="fill-rule:nonzero;"/>
    </g>
    <g transform="matrix(12,0,0,12,287.537,35.472)">
        <path d="M0.644,-0.673L0.644,-0.569C0.611,-0.6 0.575,-0.623 0.538,-0.638C0.5,-0.653 0.46,-0.661 0.418,-0.661C0.335,-0.661 0.271,-0.636 0.227,-0.585C0.182,-0.534 0.16,-0.46 0.16,-0.364C0.16,-0.268 0.182,-0.194 0.227,-0.143C0.271,-0.092 0.335,-0.067 0.418,-0.067C0.46,-0.067 0.5,-0.075 0.538,-0.09C0.575,-0.105 0.611,-0.128 0.644,-0.159L0.644,-0.056C0.61,-0.033 0.573,-0.015 0.534,-0.003C0.496,0.008 0.455,0.014 0.412,0.014C0.302,0.014 0.215,-0.02 0.151,-0.087C0.088,-0.155 0.056,-0.247 0.056,-0.364C0.056,-0.481 0.088,-0.573 0.151,-0.641C0.215,-0.708 0.302,-0.742 0.412,-0.742C0.456,-0.742 0.497,-0.736 0.535,-0.725C0.574,-0.713 0.61,-0.696 0.644,-0.673Z" style="fill-rule:nonzero;"/>
    </g>
</svg>
