<?xml version="1.0" encoding="UTF-8" standalone="no"?>
<!DOCTYPE svg PUBLIC "-//W3C//DTD SVG 1.1//EN" "http://www.w3.org/Graphics/SVG/1.1/DTD/svg11.dtd">
<svg width="100%" height="100%" viewBox="0 0 407 311" version="1.1" xmlns="http://www.w3.org/2000/svg" xmlns:xlink="http://www.w3.org/1999/xlink" xml:space="preserve" xmlns:serif="http://www.serif.com/" style="fill-rule:evenodd;clip-rule:evenodd;stroke-linejoin:round;stroke-miterlimit:10;">
    <rect x="0" y="0" width="406.926" height="310.856" style="fill:white;"/>
    <g transform="matrix(1,0,0,1,0,-30.3438)">
        <rect x="42.606" y="37.544" width="357.12" height="266.112" style="fill:white;"/>
    </g>
    <g transform="matrix(0,1,1,0,23.0452,216.223)">
        <path d="M57.089,35.794L60.589,35.794" style="fill:none;fill-rule:nonzero;stroke:black;stroke-width:0.8px;"/>
    </g>
    <text x="55.659px" y="287.906px" style="font-family:'Roboto-Regular', 'Roboto';font-size:10px;">0</text>
    <text x="109.859px" y="287.906px" style="font-family:'Roboto-Regular', 'Roboto';font-size:10px;">2</text>
    <text x="164.058px" y="287.906px" style="font-family:'Roboto-Regular', 'Roboto';font-size:10px;">4</text>
    <text x="218.258px" y="287.906px" style="font-family:'Roboto-Regular', 'Roboto';font-size:10px;">6</text>
    <text x="272.457px" y="287.906px" style="font-family:'Roboto-Regular', 'Roboto';font-size:10px;">8</text>
    <text x="323.477px" y="287.906px" style="font-family:'Roboto-Regular', 'Roboto';font-size:10px;">1<tspan x="329.837px " y="287.906px ">0</tspan></text>
    <text x="377.676px" y="287.906px" style="font-family:'Roboto-Regular', 'Roboto';font-size:10px;">1<tspan x="384.036px " y="287.906px ">2</tspan></text>
    <text x="213.682px" y="301.578px" style="font-family:'Roboto-Regular', 'Roboto';font-size:10px;">m<tspan x="223.422px " y="301.578px ">s</tspan></text>
    <text x="29.251px" y="258.168px" style="font-family:'Roboto-Regular', 'Roboto';font-size:10px;">4</text>
    <text x="29.251px" y="219.934px" style="font-family:'Roboto-Regular', 'Roboto';font-size:10px;">3</text>
    <text x="29.251px" y="181.7px" style="font-family:'Roboto-Regular', 'Roboto';font-size:10px;">2</text>
    <text x="29.251px" y="143.466px" style="font-family:'Roboto-Regular', 'Roboto';font-size:10px;">1</text>
    <text x="29.247px" y="105.232px" style="font-family:'Roboto-Regular', 'Roboto';font-size:10px;">0</text>
    <text x="29.247px" y="66.998px" style="font-family:'Roboto-Regular', 'Roboto';font-size:10px;">1</text>
    <text x="29.247px" y="28.764px" style="font-family:'Roboto-Regular', 'Roboto';font-size:10px;">2</text>
    <g transform="matrix(0,-1,1,0,0,0)">
        <text x="-146.85px" y="14.794px" style="font-family:'Roboto-Regular', 'Roboto';font-size:10px;">p<tspan x="-140.5px " y="14.794px ">A</tspan></text>
    </g>
    <g transform="matrix(0,1,1,0,77.2447,162.024)">
        <path d="M111.288,35.794L114.788,35.794" style="fill:none;fill-rule:nonzero;stroke:black;stroke-width:0.8px;"/>
    </g>
    <g transform="matrix(0,1,1,0,131.444,107.824)">
        <path d="M165.488,35.794L168.988,35.794" style="fill:none;fill-rule:nonzero;stroke:black;stroke-width:0.8px;"/>
    </g>
    <g transform="matrix(0,1,1,0,185.643,53.6248)">
        <path d="M219.687,35.794L223.187,35.794" style="fill:none;fill-rule:nonzero;stroke:black;stroke-width:0.8px;"/>
    </g>
    <g transform="matrix(0,1,1,0,239.843,-0.57467)">
        <path d="M273.887,35.794L277.387,35.794" style="fill:none;fill-rule:nonzero;stroke:black;stroke-width:0.8px;"/>
    </g>
    <g transform="matrix(0,1,1,0,294.042,-54.7741)">
        <path d="M328.086,35.794L331.586,35.794" style="fill:none;fill-rule:nonzero;stroke:black;stroke-width:0.8px;"/>
    </g>
    <g transform="matrix(0,1,1,0,348.242,-108.974)">
        <path d="M382.286,35.794L385.786,35.794" style="fill:none;fill-rule:nonzero;stroke:black;stroke-width:0.8px;"/>
    </g>
    <g transform="matrix(-1,0,0,1,81.7125,197.887)">
        <path d="M39.106,56.485L42.606,56.485" style="fill:none;fill-rule:nonzero;stroke:black;stroke-width:0.8px;"/>
    </g>
    <g transform="matrix(0.01,0,0,0.01,20.8719,251.898)">
        <rect x="106" y="272" width="626" height="83"/>
    </g>
    <g transform="matrix(-1,0,0,1,81.7125,121.419)">
        <path d="M39.106,94.719L42.606,94.719" style="fill:none;fill-rule:nonzero;stroke:black;stroke-width:0.8px;"/>
    </g>
    <g transform="matrix(0.01,0,0,0.01,20.8719,213.664)">
        <rect x="106" y="272" width="626" height="83"/>
    </g>
    <g transform="matrix(-1,0,0,1,81.7125,44.9508)">
        <path d="M39.106,132.952L42.606,132.952" style="fill:none;fill-rule:nonzero;stroke:black;stroke-width:0.8px;"/>
    </g>
    <g transform="matrix(0.01,0,0,0.01,20.8719,175.43)">
        <rect x="106" y="272" width="626" height="83"/>
    </g>
    <g transform="matrix(-1,0,0,1,81.7125,-31.517)">
        <path d="M39.106,171.186L42.606,171.186" style="fill:none;fill-rule:nonzero;stroke:black;stroke-width:0.8px;"/>
    </g>
    <g transform="matrix(0.01,0,0,0.01,20.8719,137.196)">
        <rect x="106" y="272" width="626" height="83"/>
    </g>
    <g transform="matrix(-1,0,0,1,81.7125,-107.985)">
        <path d="M39.106,209.42L42.606,209.42" style="fill:none;fill-rule:nonzero;stroke:black;stroke-width:0.8px;"/>
    </g>
    <g transform="matrix(-1,0,0,1,81.7125,-184.453)">
        <path d="M39.106,247.654L42.606,247.654" style="fill:none;fill-rule:nonzero;stroke:black;stroke-width:0.8px;"/>
    </g>
    <g transform="matrix(-1,0,0,1,81.7125,-260.921)">
        <path d="M39.106,285.888L42.606,285.888" style="fill:none;fill-rule:nonzero;stroke:black;stroke-width:0.8px;"/>
    </g>
    <g transform="matrix(1,0,0,1,0,-30.3438)">
        <path d="M58.839,131.513L59.381,141.061L59.923,146.551L60.465,142.135L61.007,132.826L61.549,126.023L62.091,128.649L62.633,141.061L63.717,175.911L64.259,178.536L64.801,169.705L65.885,141.658L68.595,65.871L69.137,58.352L69.679,63.604L70.763,100.363L72.931,178.894L73.473,185.22L74.015,182.833L74.557,179.133L75.099,176.388L75.641,176.388L76.183,180.088L76.725,186.772L77.267,189.517L77.809,179.969L78.351,158.844L79.977,72.674L80.519,59.188L81.061,57.875L81.603,67.065L82.687,96.783L83.229,105.853L83.771,103.466L84.855,80.551L85.397,79.596L85.939,92.247L86.481,112.179L87.023,124.471L87.565,126.023L88.107,122.562L88.649,122.443L89.191,128.887L90.275,150.489L90.817,151.683L91.359,150.728L91.901,155.144L92.985,172.45L93.527,174.359L94.069,167.795L94.611,153.115L95.695,119.101L96.237,107.285L96.779,100.244L97.321,100.005L97.863,104.301L98.947,108.956L99.489,112.059L100.031,114.207L100.573,114.446L101.115,112.179L101.657,106.808L102.199,103.466L102.741,107.166L104.366,139.987L104.908,147.386L105.45,156.934L106.534,186.891L107.076,194.768L107.618,187.607L108.702,147.028L109.244,126.739L109.786,113.491L110.328,111.82L111.412,120.891L112.496,133.184L113.038,132.587L113.58,122.443L114.122,106.211L114.664,93.441L115.206,90.218L115.748,97.976L116.29,112.775L116.832,134.855L117.916,193.097L118.458,210.164L119,216.609L119.542,211.954L120.084,197.513L121.168,151.922L121.71,127.694L122.252,109.792L122.794,101.795L123.336,103.705L123.878,112.179L124.42,118.862L124.962,121.488L125.504,120.772L126.588,113.372L127.13,114.327L128.214,120.772L128.756,122.084L129.298,121.01L129.84,122.443L130.382,130.32L130.924,141.061L131.466,145.716L132.008,142.732L133.092,123.994L133.634,112.537L134.176,105.614L134.718,105.137L135.26,104.301L135.802,97.141L136.344,86.28L136.886,83.654L137.428,94.396L138.512,132.229L139.054,138.913L139.596,137.958L140.138,137.6L140.68,141.419L141.222,150.609L141.764,171.137L143.39,260.052L143.932,279.506L144.474,289.77L145.016,291.56L145.558,286.428L147.184,260.887L147.726,255.516L148.268,253.965L148.81,253.846L149.352,253.846L149.894,253.01L150.978,246.446L151.52,245.133L152.062,247.281L152.604,252.294L153.146,255.158L153.688,248.714L155.314,203.838L155.856,192.739L156.398,187.965L156.94,197.274L158.566,263.632L159.108,267.809L159.65,261.484L161.276,231.05L161.818,225.202L162.36,222.218L162.902,221.383L163.444,220.07L163.986,219.831L164.528,225.918L165.07,234.034L165.612,236.063L166.154,231.289L167.238,217.683L168.322,209.567L168.864,206.583L169.406,206.703L169.948,212.312L170.49,219.712L171.032,224.486L171.574,225.202L172.116,222.457L172.658,212.79L173.2,193.216L174.284,145.716L174.826,133.065L175.368,131.99L175.91,138.316L176.452,146.909L176.994,152.757L178.078,157.292L178.62,160.992L179.162,165.647L179.704,171.376L180.246,175.553L180.788,175.672L181.33,170.182L181.872,161.708L182.414,155.144L182.956,156.696L183.498,170.063L184.582,213.744L185.124,223.173L185.666,221.263L186.208,210.641L187.292,170.182L188.376,128.649L188.918,114.685L189.46,110.627L190.002,118.862L191.628,164.215L192.17,171.972L192.712,169.585L193.254,161.708L194.338,142.135L194.88,135.571L195.422,133.303L195.964,134.019L196.506,137.719L197.59,147.386L198.131,153.115L198.673,156.218L199.215,156.815L199.757,154.189L203.009,133.065L203.551,131.752L204.635,130.439L205.177,126.739L206.261,114.088L206.803,112.656L207.887,118.743L208.429,118.743L208.971,117.788L209.513,118.385L210.055,125.068L210.597,134.497L211.139,140.703L211.681,143.209L212.223,144.403L213.307,141.777L213.849,139.271L214.391,132.587L216.559,98.573L217.101,94.992L217.643,93.321L218.185,96.902L218.727,105.376L219.811,127.575L220.353,134.974L220.895,136.168L221.437,128.41L221.979,114.685L222.521,105.614L223.063,105.256L223.605,110.15L224.147,121.13L225.231,150.37L225.773,156.457L226.315,152.638L226.857,141.777L227.399,127.694L227.941,116.714L228.483,115.64L229.025,123.875L229.567,135.213L230.109,144.164L230.651,149.415L231.193,149.177L231.735,146.909L232.277,146.79L232.819,147.983L233.361,151.206L234.445,164.453L235.529,178.536L236.071,181.281L236.613,175.911L238.781,138.197L239.323,129.484L239.865,123.159L240.407,120.056L240.949,122.443L241.491,128.529L242.033,137.122L242.575,140.225L243.117,137.6L243.659,135.81L244.201,139.151L244.743,144.88L245.285,148.819L245.827,146.432L246.369,137.122L247.453,114.924L247.995,109.433L248.537,109.792L249.079,116.236L250.163,134.735L251.247,147.625L251.789,156.457L252.331,162.663L252.873,160.992L253.415,151.444L253.957,137.719L254.499,143.209L255.041,174.001L255.583,197.274L256.125,193.694L256.667,164.334L257.751,84.251L258.293,60.859L258.835,56.92L259.377,72.913L260.461,131.155L261.003,144.88L261.545,142.732L262.629,129.126L263.171,126.858L264.255,131.036L264.797,126.381L266.965,78.283L267.507,74.106L268.049,77.567L268.591,88.309L270.217,133.542L270.759,144.999L271.301,152.876L271.843,156.815L272.385,155.144L272.927,144.761L273.469,123.397L274.011,96.663L274.553,76.732L275.095,73.271L275.637,81.387L276.179,92.128L276.721,98.453L277.263,98.573L277.805,95.231L278.347,94.396L278.889,97.618L279.431,107.285L281.599,163.976L282.141,168.63L282.683,169.824L283.767,168.272L284.309,170.898L285.393,181.998L285.935,182.475L286.477,177.94L287.019,166.244L287.561,144.761L288.645,89.144L289.187,73.151L289.729,74.464L290.271,91.651L290.813,113.372L291.355,128.887L291.896,137.958L292.438,140.106L292.98,136.287L293.522,129.961L295.148,105.853L296.232,84.848L296.774,79.119L297.316,83.774L298.942,113.014L300.026,144.045L300.568,148.461L301.11,139.509L302.194,103.347L302.736,92.963L303.278,91.054L304.362,103.108L305.446,107.763L305.988,109.672L306.53,111.104L307.072,110.627L307.614,111.94L308.156,117.311L309.24,134.139L309.782,138.077L310.324,139.509L310.866,139.509L311.408,140.584L311.95,143.687L312.492,150.131L313.576,164.573L314.118,170.182L314.66,174.598L315.202,176.149L315.744,170.898L316.286,158.605L317.37,129.603L317.912,119.459L318.454,113.849L318.996,107.047L320.08,90.457L320.622,90.576L321.164,100.602L322.248,134.855L322.79,143.209L323.332,141.658L323.874,134.855L327.126,74.942L327.668,69.332L328.21,74.703L329.836,122.443L330.378,125.546L330.92,115.162L332.546,59.665L333.088,52.146L333.63,49.64L334.172,50.953L334.714,58.949L335.256,79.835L336.34,132.587L336.882,142.971L337.424,138.913L338.508,120.772L339.592,109.792L340.134,106.092L340.676,104.779L341.218,104.421L341.76,101.437L342.844,91.889L343.386,89.98L343.928,93.918L345.554,128.529L346.096,131.871L346.638,129.723L348.264,103.108L348.806,98.573L349.89,91.889L350.974,81.506L351.516,78.283L352.058,81.028L352.6,87.473L354.226,116.594L354.768,122.443L355.31,125.904L355.852,131.632L356.394,146.551L357.478,188.442L358.02,190.71L358.562,176.388L360.188,118.981L361.272,89.622L361.814,79.477L362.356,77.209L362.898,84.609L365.066,130.558L365.608,137.242L366.15,140.345L366.692,139.509L367.776,124.949L368.318,117.072L369.402,97.021L369.944,91.651L370.486,91.054L371.028,89.98L372.112,80.432L372.654,79.716L373.196,85.206L373.738,94.276L374.28,100.602L374.822,100.124L375.364,93.56L376.448,76.016L376.99,72.555L377.532,75.18L378.616,85.683L379.7,107.166L380.784,129.842L381.868,166.602L382.41,186.533L382.952,200.497L383.494,204.674" style="fill:none;fill-rule:nonzero;stroke:black;stroke-width:1.5px;stroke-linecap:square;"/>
    </g>
    <g transform="matrix(0,-1,-1,0,213.206,182.862)">
        <path d="M-90.45,170.6L175.662,170.6" style="fill:none;fill-rule:nonzero;stroke:black;stroke-width:0.8px;stroke-linecap:square;stroke-linejoin:miter;"/>
    </g>
    <g transform="matrix(0,-1,-1,0,570.326,539.982)">
        <path d="M266.67,170.6L532.782,170.6" style="fill:none;fill-rule:nonzero;stroke:black;stroke-width:0.8px;stroke-linecap:square;stroke-linejoin:miter;"/>
    </g>
    <g transform="matrix(1,0,0,1,0,235.768)">
        <path d="M42.606,37.544L399.726,37.544" style="fill:none;fill-rule:nonzero;stroke:black;stroke-width:0.8px;stroke-linecap:square;stroke-linejoin:miter;"/>
    </g>
    <g transform="matrix(1,0,0,1,0,-296.456)">
        <path d="M42.606,303.656L399.726,303.656" style="fill:none;fill-rule:nonzero;stroke:black;stroke-width:0.8px;stroke-linecap:square;stroke-linejoin:miter;"/>
    </g>
</svg>
