<?xml version="1.0" encoding="UTF-8" standalone="no"?>
<!DOCTYPE svg PUBLIC "-//W3C//DTD SVG 1.1//EN" "http://www.w3.org/Graphics/SVG/1.1/DTD/svg11.dtd">
<svg width="100%" height="100%" viewBox="0 0 414 311" version="1.1" xmlns="http://www.w3.org/2000/svg" xmlns:xlink="http://www.w3.org/1999/xlink" xml:space="preserve" xmlns:serif="http://www.serif.com/" style="fill-rule:evenodd;clip-rule:evenodd;stroke-linejoin:round;stroke-miterlimit:10;">
    <rect x="0" y="0" width="413.286" height="310.856" style="fill:white;"/>
    <g transform="matrix(1,0,0,1,0,-30.3438)">
        <rect x="48.966" y="37.544" width="357.12" height="266.112" style="fill:white;"/>
    </g>
    <g transform="matrix(0,1,1,0,29.4046,209.864)">
        <path d="M63.448,35.794L66.948,35.794" style="fill:none;fill-rule:nonzero;stroke:black;stroke-width:0.8px;"/>
    </g>
    <text x="62.019px" y="287.906px" style="font-family:'Roboto-Regular', 'Roboto';font-size:10px;">0</text>
    <text x="116.218px" y="287.906px" style="font-family:'Roboto-Regular', 'Roboto';font-size:10px;">2</text>
    <text x="170.418px" y="287.906px" style="font-family:'Roboto-Regular', 'Roboto';font-size:10px;">4</text>
    <text x="224.617px" y="287.906px" style="font-family:'Roboto-Regular', 'Roboto';font-size:10px;">6</text>
    <text x="278.816px" y="287.906px" style="font-family:'Roboto-Regular', 'Roboto';font-size:10px;">8</text>
    <text x="329.836px" y="287.906px" style="font-family:'Roboto-Regular', 'Roboto';font-size:10px;">1<tspan x="336.196px " y="287.906px ">0</tspan></text>
    <text x="384.036px" y="287.906px" style="font-family:'Roboto-Regular', 'Roboto';font-size:10px;">1<tspan x="390.396px " y="287.906px ">2</tspan></text>
    <text x="220.041px" y="301.578px" style="font-family:'Roboto-Regular', 'Roboto';font-size:10px;">m<tspan x="229.781px " y="301.578px ">s</tspan></text>
    <text x="29.251px" y="256.835px" style="font-family:'Roboto-Regular', 'Roboto';font-size:10px;">1<tspan x="35.611px " y="256.835px ">0</tspan></text>
    <text x="35.61px" y="220.749px" style="font-family:'Roboto-Regular', 'Roboto';font-size:10px;">8</text>
    <text x="35.61px" y="184.664px" style="font-family:'Roboto-Regular', 'Roboto';font-size:10px;">6</text>
    <text x="35.61px" y="148.578px" style="font-family:'Roboto-Regular', 'Roboto';font-size:10px;">4</text>
    <text x="35.61px" y="112.492px" style="font-family:'Roboto-Regular', 'Roboto';font-size:10px;">2</text>
    <text x="35.606px" y="76.406px" style="font-family:'Roboto-Regular', 'Roboto';font-size:10px;">0</text>
    <text x="35.606px" y="40.32px" style="font-family:'Roboto-Regular', 'Roboto';font-size:10px;">2</text>
    <g transform="matrix(0,-1,1,0,0,0)">
        <text x="-146.85px" y="14.794px" style="font-family:'Roboto-Regular', 'Roboto';font-size:10px;">p<tspan x="-140.5px " y="14.794px ">A</tspan></text>
    </g>
    <g transform="matrix(0,1,1,0,83.604,155.664)">
        <path d="M117.648,35.794L121.148,35.794" style="fill:none;fill-rule:nonzero;stroke:black;stroke-width:0.8px;"/>
    </g>
    <g transform="matrix(0,1,1,0,137.803,101.465)">
        <path d="M171.847,35.794L175.347,35.794" style="fill:none;fill-rule:nonzero;stroke:black;stroke-width:0.8px;"/>
    </g>
    <g transform="matrix(0,1,1,0,192.003,47.2654)">
        <path d="M226.047,35.794L229.547,35.794" style="fill:none;fill-rule:nonzero;stroke:black;stroke-width:0.8px;"/>
    </g>
    <g transform="matrix(0,1,1,0,246.202,-6.93404)">
        <path d="M280.246,35.794L283.746,35.794" style="fill:none;fill-rule:nonzero;stroke:black;stroke-width:0.8px;"/>
    </g>
    <g transform="matrix(0,1,1,0,300.402,-61.1335)">
        <path d="M334.445,35.794L337.945,35.794" style="fill:none;fill-rule:nonzero;stroke:black;stroke-width:0.8px;"/>
    </g>
    <g transform="matrix(0,1,1,0,354.601,-115.333)">
        <path d="M388.645,35.794L392.145,35.794" style="fill:none;fill-rule:nonzero;stroke:black;stroke-width:0.8px;"/>
    </g>
    <g transform="matrix(-1,0,0,1,94.4313,195.221)">
        <path d="M45.466,57.817L48.966,57.817" style="fill:none;fill-rule:nonzero;stroke:black;stroke-width:0.8px;"/>
    </g>
    <g transform="matrix(0.01,0,0,0.01,20.8719,250.565)">
        <rect x="106" y="272" width="626" height="83"/>
    </g>
    <g transform="matrix(-1,0,0,1,94.4313,123.049)">
        <path d="M45.466,93.903L48.966,93.903" style="fill:none;fill-rule:nonzero;stroke:black;stroke-width:0.8px;"/>
    </g>
    <g transform="matrix(0.01,0,0,0.01,27.2313,214.479)">
        <rect x="106" y="272" width="626" height="83"/>
    </g>
    <g transform="matrix(-1,0,0,1,94.4313,50.8778)">
        <path d="M45.466,129.989L48.966,129.989" style="fill:none;fill-rule:nonzero;stroke:black;stroke-width:0.8px;"/>
    </g>
    <g transform="matrix(0.01,0,0,0.01,27.2313,178.394)">
        <rect x="106" y="272" width="626" height="83"/>
    </g>
    <g transform="matrix(-1,0,0,1,94.4313,-21.2938)">
        <path d="M45.466,166.075L48.966,166.075" style="fill:none;fill-rule:nonzero;stroke:black;stroke-width:0.8px;"/>
    </g>
    <g transform="matrix(0.01,0,0,0.01,27.2313,142.308)">
        <rect x="106" y="272" width="626" height="83"/>
    </g>
    <g transform="matrix(-1,0,0,1,94.4313,-93.4655)">
        <path d="M45.466,202.161L48.966,202.161" style="fill:none;fill-rule:nonzero;stroke:black;stroke-width:0.8px;"/>
    </g>
    <g transform="matrix(0.01,0,0,0.01,27.2313,106.222)">
        <rect x="106" y="272" width="626" height="83"/>
    </g>
    <g transform="matrix(-1,0,0,1,94.4313,-165.637)">
        <path d="M45.466,238.246L48.966,238.246" style="fill:none;fill-rule:nonzero;stroke:black;stroke-width:0.8px;"/>
    </g>
    <g transform="matrix(-1,0,0,1,94.4313,-237.809)">
        <path d="M45.466,274.332L48.966,274.332" style="fill:none;fill-rule:nonzero;stroke:black;stroke-width:0.8px;"/>
    </g>
    <g transform="matrix(1,0,0,1,0,-30.3438)">
        <path d="M65.198,100.329L66.282,64.847L66.824,54.258L67.366,49.64L67.908,52.794L68.45,63.945L70.076,116.888L70.618,126.8L71.16,132.658L71.702,135.023L72.244,134.235L73.328,131.419L73.87,131.982L74.412,132.996L74.954,131.644L75.496,127.138L76.038,119.028L77.122,100.555L77.664,94.134L78.206,92.895L78.748,96.837L79.29,102.47L79.832,106.187L80.374,107.313L80.916,107.426L81.458,108.102L82,112.157L83.084,129.617L83.626,134.46L84.168,132.32L85.794,105.624L86.336,102.807L86.878,104.61L88.504,114.748L89.046,115.649L89.588,109.341L90.13,96.499L91.214,67.663L91.756,61.918L92.298,64.396L93.382,75.773L94.466,81.18L95.55,91.093L96.092,96.387L96.634,103.821L97.718,121.168L98.26,124.21L98.802,122.52L99.344,119.141L99.886,113.396L101.512,89.628L102.054,89.29L102.596,95.598L104.222,139.98L104.764,144.598L105.306,143.134L105.848,134.798L106.932,107.651L107.474,98.64L108.016,95.035L108.558,95.035L109.1,94.697L109.642,89.966L110.184,80.955L110.726,73.971L111.268,72.619L111.81,76.674L112.352,86.024L113.436,109.679L113.978,117.789L114.52,119.366L115.062,111.932L115.604,102.244L116.146,98.302L116.688,102.244L117.23,110.692L117.772,116.212L118.314,116.099L118.856,113.621L119.398,109.566L119.94,103.258L120.482,94.472L122.108,60.679L122.65,55.159L123.192,56.398L126.444,114.635L126.986,121.281L127.528,121.281L128.07,115.761L128.612,106.299L129.154,98.865L129.696,96.95L130.238,97.626L130.78,100.104L131.322,105.06L131.864,111.481L132.406,114.86L132.948,113.171L133.49,126.004L134.032,122.2L134.574,120.225L135.116,120.192L135.658,120.41L136.2,121.668L136.742,125.544L137.826,137.429L138.368,136.878L138.91,115.072L139.452,110.154L139.994,107.94L140.536,107.641L141.078,110.608L141.62,119.095L142.162,129.947L142.704,135.956L143.246,134.304L144.33,121.653L144.872,121.804L145.413,129.727L146.497,155.149L147.039,167.916L147.581,176.629L149.207,188.91L149.749,188.61L150.833,175.508L151.375,172.054L151.917,174.346L152.459,179.341L154.085,198.831L154.627,203.15L155.169,206.117L155.711,206.043L156.253,201.914L156.795,194.856L157.337,190.051L157.879,190.878L158.963,199.178L159.505,203.947L160.589,211.233L161.131,216.003L161.673,222.124L162.215,226.33L162.757,227.045L163.299,226.295L163.841,228.248L164.383,234.144L164.925,245.672L166.009,278.529L166.551,289.606L167.093,291.56L167.635,282.587L168.719,254.39L169.261,248.909L169.803,251.313L170.345,241.222L171.429,254.382L171.971,256.69L172.513,252.619L173.055,240.256L175.223,173.643L175.765,174.77L177.933,101.456L178.475,91.881L179.017,87.713L179.559,87.939L180.101,91.43L180.643,99.09L181.727,124.21L182.269,132.433L182.811,135.361L183.353,137.276L183.895,137.727L184.437,133.559L186.063,114.41L186.605,110.692L187.689,101.906L188.231,100.442L188.773,103.709L189.315,109.228L189.857,113.396L190.399,112.945L190.941,110.467L191.483,109.904L192.025,114.41L193.109,132.996L193.651,138.628L194.193,138.403L194.735,133.221L195.819,114.41L196.361,109.341L196.903,111.03L197.987,121.506L198.529,124.097L199.071,124.21L199.613,125.111L200.155,127.138L200.697,128.715L201.239,128.715L201.781,127.927L202.323,126.237L202.865,123.421L203.407,118.465L203.949,111.143L204.491,100.442L205.033,86.136L205.575,74.985L206.117,72.281L206.659,77.012L207.743,93.12L208.285,97.738L208.827,94.472L209.369,88.614L209.911,88.051L212.621,117.226L213.705,131.419L214.789,137.952L215.331,138.966L215.873,135.699L216.957,123.083L217.499,114.41L218.583,90.529L219.125,83.095L219.667,83.883L220.209,93.458L221.293,119.366L221.835,128.828L222.377,133.446L222.919,134.348L223.461,132.095L224.003,127.814L224.545,122.295L225.629,108.327L226.171,103.821L226.713,103.596L227.255,107.989L227.797,113.734L228.339,115.198L228.881,107.989L229.423,98.752L229.965,96.612L230.507,104.722L232.133,153.046L232.675,156.426L233.217,151.357L233.759,140.768L235.385,93.796L235.927,83.433L236.469,84.109L237.011,95.373L238.095,122.407L238.637,132.207L239.179,137.389L239.72,138.628L240.262,135.925L240.804,129.729L241.346,118.69L241.888,105.06L242.43,94.697L242.972,90.304L243.514,91.881L244.598,102.019L245.14,105.961L245.682,107.201L246.224,106.863L246.766,108.665L247.308,112.495L247.85,115.198L248.392,116.325L248.934,118.578L251.102,134.01L251.644,132.883L252.728,126.35L253.812,117.451L254.354,115.649L254.896,116.437L255.98,120.605L256.522,127.026L257.606,149.329L258.148,153.497L258.69,148.315L260.858,99.428L261.4,94.021L261.942,90.304L262.484,88.389L263.026,91.768L263.568,101.343L264.652,130.405L265.194,138.741L265.736,138.065L267.362,119.028L267.904,116.775L268.446,117.676L268.988,121.506L270.072,132.433L270.614,134.122L271.156,130.743L271.698,129.391L272.24,137.614L273.324,166.226L273.866,164.874L274.408,148.991L275.492,104.61L276.034,91.768L276.576,86.136L277.118,85.686L277.66,86.362L278.202,89.741L278.744,98.64L280.37,141.331L280.912,149.329L281.454,150.681L281.996,142.12L283.622,90.529L284.164,84.559L284.706,83.095L285.248,86.136L285.79,94.359L286.332,104.272L286.874,111.819L287.416,115.424L287.958,116.212L288.5,115.424L289.042,114.86L289.584,117.902L292.294,152.371L292.836,156.989L293.378,156.426L293.92,150.906L295.004,134.798L295.546,129.504L296.088,126.8L296.63,123.196L297.714,114.522L298.256,111.143L298.798,112.382L299.882,122.295L300.424,124.097L300.966,120.718L301.508,115.536L302.05,114.41L303.134,120.042L303.676,122.069L304.218,121.394L304.76,115.649L305.844,97.851L306.386,94.697L306.928,98.752L308.012,117.564L308.554,124.097L309.096,124.998L309.638,121.506L310.18,116.325L311.264,104.159L311.806,103.709L312.348,106.975L312.89,111.594L313.432,114.86L313.974,114.748L314.516,111.143L315.6,97.175L316.684,78.927L317.226,71.155L317.768,68.226L318.31,74.647L319.394,94.922L320.478,108.44L321.562,127.589L322.104,134.122L322.646,133.559L323.188,124.66L324.272,98.865L324.814,91.093L325.356,90.304L325.898,94.922L327.524,122.971L328.066,126.012L328.608,126.463L329.15,127.364L329.692,128.603L330.234,127.476L330.776,122.295L331.86,104.497L332.402,97.964L332.944,95.598L333.485,99.315L334.569,115.086L335.111,117.226L336.195,112.269L337.279,109.904L337.821,107.651L338.363,107.538L338.905,113.171L339.447,124.998L340.531,154.173L341.073,164.198L341.615,163.297L342.157,150.456L344.325,66.874L344.867,57.3L345.409,52.794L345.951,51.442L346.493,52.343L347.035,56.849L348.661,76.674L349.745,78.139L350.287,82.644L351.371,96.274L351.913,103.596L352.455,113.171L353.539,135.587L354.081,142.233L354.623,146.626L355.165,148.541L355.707,146.175L356.249,138.515L357.333,118.915L357.875,111.368L358.417,106.525L359.501,100.217L360.043,97.738L360.585,96.387L361.127,96.161L361.669,96.387L362.211,97.513L362.753,100.78L363.295,107.088L364.379,121.732L364.921,125.899L365.463,125.787L366.005,119.479L367.631,85.46L368.173,78.139L368.715,74.196L369.257,73.295L369.799,75.21L370.341,79.265L370.883,81.968L371.425,81.968L371.967,79.716L372.509,75.322L373.051,72.281L373.593,75.435L374.677,92.332L375.219,94.81L375.761,93.345L376.303,90.642L376.845,89.178L377.387,90.98L377.929,96.161L380.097,125.674L380.639,133.109L381.181,135.249L381.723,134.235L382.265,131.982L382.807,123.309L383.891,96.499L384.433,86.587L386.059,68.789L386.601,67.888L387.143,72.168L387.685,78.589L388.227,83.658L388.769,87.037L389.311,89.29L389.853,90.191" style="fill:none;fill-rule:nonzero;stroke:black;stroke-width:1.5px;stroke-linecap:square;"/>
    </g>
    <g transform="matrix(0,-1,-1,0,219.565,189.222)">
        <path d="M-84.09,170.6L182.022,170.6" style="fill:none;fill-rule:nonzero;stroke:black;stroke-width:0.8px;stroke-linecap:square;stroke-linejoin:miter;"/>
    </g>
    <g transform="matrix(0,-1,-1,0,576.685,546.342)">
        <path d="M273.03,170.6L539.142,170.6" style="fill:none;fill-rule:nonzero;stroke:black;stroke-width:0.8px;stroke-linecap:square;stroke-linejoin:miter;"/>
    </g>
    <g transform="matrix(1,0,0,1,0,235.768)">
        <path d="M48.966,37.544L406.086,37.544" style="fill:none;fill-rule:nonzero;stroke:black;stroke-width:0.8px;stroke-linecap:square;stroke-linejoin:miter;"/>
    </g>
    <g transform="matrix(1,0,0,1,0,-296.456)">
        <path d="M48.966,303.656L406.086,303.656" style="fill:none;fill-rule:nonzero;stroke:black;stroke-width:0.8px;stroke-linecap:square;stroke-linejoin:miter;"/>
    </g>
</svg>
