<?xml version="1.0" encoding="UTF-8" standalone="no"?>
<!DOCTYPE svg PUBLIC "-//W3C//DTD SVG 1.1//EN" "http://www.w3.org/Graphics/SVG/1.1/DTD/svg11.dtd">
<svg width="100%" height="100%" viewBox="0 0 414 311" version="1.1" xmlns="http://www.w3.org/2000/svg" xmlns:xlink="http://www.w3.org/1999/xlink" xml:space="preserve" xmlns:serif="http://www.serif.com/" style="fill-rule:evenodd;clip-rule:evenodd;stroke-linejoin:round;stroke-miterlimit:10;">
    <rect x="0" y="0" width="413.286" height="310.856" style="fill:white;"/>
    <g transform="matrix(1,0,0,1,0,-30.3438)">
        <rect x="48.966" y="37.544" width="357.12" height="266.112" style="fill:white;"/>
    </g>
    <g transform="matrix(0,1,1,0,29.4046,209.864)">
        <path d="M63.448,35.794L66.948,35.794" style="fill:none;fill-rule:nonzero;stroke:black;stroke-width:0.8px;"/>
    </g>
    <text x="62.019px" y="287.906px" style="font-family:'Roboto-Regular', 'Roboto';font-size:10px;">0</text>
    <text x="116.218px" y="287.906px" style="font-family:'Roboto-Regular', 'Roboto';font-size:10px;">2</text>
    <text x="170.418px" y="287.906px" style="font-family:'Roboto-Regular', 'Roboto';font-size:10px;">4</text>
    <text x="224.617px" y="287.906px" style="font-family:'Roboto-Regular', 'Roboto';font-size:10px;">6</text>
    <text x="278.816px" y="287.906px" style="font-family:'Roboto-Regular', 'Roboto';font-size:10px;">8</text>
    <text x="329.836px" y="287.906px" style="font-family:'Roboto-Regular', 'Roboto';font-size:10px;">1<tspan x="336.196px " y="287.906px ">0</tspan></text>
    <text x="384.036px" y="287.906px" style="font-family:'Roboto-Regular', 'Roboto';font-size:10px;">1<tspan x="390.396px " y="287.906px ">2</tspan></text>
    <text x="220.041px" y="301.578px" style="font-family:'Roboto-Regular', 'Roboto';font-size:10px;">m<tspan x="229.781px " y="301.578px ">s</tspan></text>
    <text x="29.251px" y="227.791px" style="font-family:'Roboto-Regular', 'Roboto';font-size:10px;">1<tspan x="35.611px " y="227.791px ">5</tspan></text>
    <text x="29.251px" y="169.963px" style="font-family:'Roboto-Regular', 'Roboto';font-size:10px;">1<tspan x="35.611px " y="169.963px ">0</tspan></text>
    <text x="35.61px" y="112.136px" style="font-family:'Roboto-Regular', 'Roboto';font-size:10px;">5</text>
    <text x="35.606px" y="54.309px" style="font-family:'Roboto-Regular', 'Roboto';font-size:10px;">0</text>
    <g transform="matrix(0,-1,1,0,0,0)">
        <text x="-146.85px" y="14.794px" style="font-family:'Roboto-Regular', 'Roboto';font-size:10px;">p<tspan x="-140.5px " y="14.794px ">A</tspan></text>
    </g>
    <g transform="matrix(0,1,1,0,83.604,155.664)">
        <path d="M117.648,35.794L121.148,35.794" style="fill:none;fill-rule:nonzero;stroke:black;stroke-width:0.8px;"/>
    </g>
    <g transform="matrix(0,1,1,0,137.803,101.465)">
        <path d="M171.847,35.794L175.347,35.794" style="fill:none;fill-rule:nonzero;stroke:black;stroke-width:0.8px;"/>
    </g>
    <g transform="matrix(0,1,1,0,192.003,47.2654)">
        <path d="M226.047,35.794L229.547,35.794" style="fill:none;fill-rule:nonzero;stroke:black;stroke-width:0.8px;"/>
    </g>
    <g transform="matrix(0,1,1,0,246.202,-6.93404)">
        <path d="M280.246,35.794L283.746,35.794" style="fill:none;fill-rule:nonzero;stroke:black;stroke-width:0.8px;"/>
    </g>
    <g transform="matrix(0,1,1,0,300.402,-61.1335)">
        <path d="M334.445,35.794L337.945,35.794" style="fill:none;fill-rule:nonzero;stroke:black;stroke-width:0.8px;"/>
    </g>
    <g transform="matrix(0,1,1,0,354.601,-115.333)">
        <path d="M388.645,35.794L392.145,35.794" style="fill:none;fill-rule:nonzero;stroke:black;stroke-width:0.8px;"/>
    </g>
    <g transform="matrix(-1,0,0,1,94.4313,137.132)">
        <path d="M45.466,86.862L48.966,86.862" style="fill:none;fill-rule:nonzero;stroke:black;stroke-width:0.8px;"/>
    </g>
    <g transform="matrix(0.01,0,0,0.01,20.8719,221.521)">
        <rect x="106" y="272" width="626" height="83"/>
    </g>
    <g transform="matrix(-1,0,0,1,94.4313,21.4774)">
        <path d="M45.466,144.689L48.966,144.689" style="fill:none;fill-rule:nonzero;stroke:black;stroke-width:0.8px;"/>
    </g>
    <g transform="matrix(0.01,0,0,0.01,20.8719,163.693)">
        <rect x="106" y="272" width="626" height="83"/>
    </g>
    <g transform="matrix(-1,0,0,1,94.4313,-94.1772)">
        <path d="M45.466,202.516L48.966,202.516" style="fill:none;fill-rule:nonzero;stroke:black;stroke-width:0.8px;"/>
    </g>
    <g transform="matrix(0.01,0,0,0.01,27.2313,105.866)">
        <rect x="106" y="272" width="626" height="83"/>
    </g>
    <g transform="matrix(-1,0,0,1,94.4313,-209.832)">
        <path d="M45.466,260.344L48.966,260.344" style="fill:none;fill-rule:nonzero;stroke:black;stroke-width:0.8px;"/>
    </g>
    <g transform="matrix(1,0,0,1,0,-30.3438)">
        <path d="M65.198,93.143L65.74,99.894L66.282,102.168L66.824,100.363L68.45,85.742L69.534,79.785L70.076,78.305L70.618,78.666L71.16,78.666L71.702,75.886L72.786,65.344L73.328,63.322L73.87,65.561L74.954,74.334L75.496,76.103L76.038,75.308L76.58,73.973L77.122,73.251L77.664,74.334L78.206,77.222L79.832,87.583L80.916,91.843L82,95.814L82.542,95.742L83.084,92.998L84.168,84.767L85.794,66.752L86.336,64.767L87.42,65.236L87.962,66.247L88.504,67.51L89.046,67.835L89.588,67.005L90.13,67.005L90.672,68.702L91.756,74.478L92.298,79.46L93.382,93.829L93.924,99.1L94.466,101.879L95.008,101.446L96.092,98.233L96.634,96.572L99.344,84.623L99.886,82.637L100.428,81.915L100.97,81.843L101.512,81.626L102.596,82.854L103.138,82.168L103.68,80.724L104.222,78.919L105.306,74.803L105.848,73.539L106.39,71.915L106.932,71.518L107.474,72.853L108.016,75.453L108.558,79.099L110.184,94.334L110.726,95.814L111.268,92.746L112.894,70.471L113.436,67.835L113.978,68.16L114.52,69.929L117.772,83.359L118.314,84.37L118.856,83.756L119.398,81.915L119.94,79.677L120.482,76.933L121.566,69.785L122.108,67.185L122.65,66.608L123.192,67.944L123.734,70.976L124.276,75.633L125.36,86.572L125.902,90.002L126.444,91.59L126.986,91.302L127.528,90.58L128.07,90.182L128.612,88.738L129.154,86.428L129.696,83.503L130.78,75.85L131.322,73.287L131.864,73.756L132.406,77.872L133.49,88.774L134.032,91.085L134.574,90.11L135.658,86.608L136.2,82.745L137.826,56.246L138.368,51.084L138.91,49.64L139.452,52.311L139.994,57.727L141.078,73.467L141.62,78.196L142.162,79.713L142.704,77.98L143.246,72.781L144.33,60.001L144.872,56.283L145.413,55.597L145.955,57.943L146.497,62.275L148.123,78.377L149.207,92.746L149.749,102.493L150.291,115.201L150.833,131.736L151.917,175.094L153.001,222.244L153.543,237.984L154.085,247.66L155.711,267.01L156.253,270.44L157.337,272.678L157.879,274.592L160.589,289.321L161.131,291.56L161.673,290.043L162.215,284.628L163.299,270.837L164.383,254.014L164.925,248.743L165.467,246.829L166.009,248.129L167.093,254.591L167.635,256.288L168.177,256.288L168.719,254.086L169.261,249.393L170.345,235.818L170.887,231.883L171.429,231.558L171.971,233.291L173.055,238.526L173.597,240.981L174.139,241.161L174.681,238.381L175.223,232.533L176.849,207.009L177.391,200.799L177.933,196.395L178.475,193.362L179.017,191.557L179.559,190.871L180.643,191.557L181.727,188.488L182.269,188.524L183.895,190.871L184.437,192.026L184.979,193.723L185.521,196.359L186.063,198.164L186.605,197.658L187.147,193.579L187.689,185.42L189.857,145.996L190.399,140.148L190.941,136.898L191.483,135.635L192.025,135.635L192.567,136.321L193.109,136.754L193.651,136.754L194.193,137.512L195.277,142.242L195.819,143.433L196.361,142.566L196.903,140.653L197.445,137.837L198.529,129.245L199.071,124.913L199.613,122.602L200.155,122.494L200.697,123.035L201.239,121.808L202.323,116.681L202.865,115.454L203.407,115.707L203.949,117.909L205.033,124.263L205.575,126.14L206.117,126.898L206.659,126.754L207.201,125.743L207.743,123.757L208.285,119.93L208.827,113.288L209.911,94.695L210.453,89.966L210.995,91.735L212.621,109.497L213.163,112.169L213.705,111.519L214.247,107.259L215.873,90.616L216.415,88.161L216.957,88.197L217.499,91.807L218.583,104.876L219.125,111.735L219.667,116.068L220.209,114.985L220.751,108.919L221.835,93.829L222.377,89.135L222.919,88.269L224.003,92.312L224.545,92.565L225.087,91.265L226.171,86.717L226.713,87.619L228.339,98.341L228.881,99.063L229.423,96.5L230.507,87.619L231.591,82.168L232.133,80.94L232.675,81.734L233.217,83.07L233.759,83.323L234.301,81.482L235.385,74.731L235.927,73.756L236.469,74.658L237.553,77.908L238.095,78.991L238.637,79.424L239.179,79.496L239.72,80.471L240.262,82.348L241.346,90.507L241.888,92.529L242.43,89.93L243.514,79.496L244.056,77.727L244.598,78.558L245.14,80.724L245.682,83.612L246.224,85.236L246.766,84.695L247.308,83.359L247.85,83.034L248.392,84.298L248.934,86.5L249.476,89.785L251.102,102.999L251.644,103.721L252.186,100.941L253.27,90.146L253.812,84.659L254.354,80.832L254.896,78.558L255.438,76.861L255.98,75.886L256.522,77.005L257.064,80.76L258.69,93.576L259.232,96.103L259.774,96.609L260.316,94.623L261.4,85.092L263.568,64.044L264.11,62.817L264.652,66.319L265.736,78.738L266.82,86.789L267.362,89.641L268.446,93.684L270.072,96.248L270.614,97.258L271.156,96.32L271.698,92.71L272.782,83.467L274.95,66.86L276.034,56.355L276.576,53.358L277.118,54.477L277.66,60.254L279.286,84.984L279.828,92.024L280.37,96.5L280.912,96.681L281.454,92.457L283.08,69.676L283.622,68.052L284.164,69.821L285.79,77.511L286.332,78.521L286.874,79.857L287.416,81.843L287.958,83.179L288.5,84.839L289.042,88.63L290.126,99.027L290.668,100.58L291.21,98.125L291.752,92.24L292.836,79.28L294.462,64.658L295.004,61.301L295.546,59.929L296.088,60.615L297.172,65.489L297.714,66.644L298.256,68.196L298.798,70.615L299.882,76.464L300.424,78.521L300.966,79.207L301.508,78.702L302.592,76.644L303.134,76.066L303.676,76.03L304.218,76.391L304.76,74.731L305.844,68.268L306.386,66.355L306.928,66.536L308.012,70.362L308.554,70.796L309.096,70.254L309.638,70.832L310.18,73.575L311.264,81.843L311.806,86.319L312.89,92.06L313.432,94.731L313.974,96.536L314.516,96.753L315.058,96.211L315.6,95.092L316.142,93.215L317.768,84.334L318.31,82.42L318.852,82.132L319.394,80.904L319.936,76.789L321.02,64.875L321.562,62.925L322.104,65.019L322.646,71.012L323.73,85.345L324.272,89.208L324.814,90.904L325.356,90.507L326.44,87.944L327.524,85.345L328.066,85.309L328.608,85.922L329.15,85.056L329.692,81.049L330.776,71.229L331.318,69.749L331.86,71.915L332.402,77.258L333.485,90.941L334.027,94.84L334.569,95.164L335.111,91.951L336.195,77.474L336.737,70.29L337.279,64.658L337.821,61.409L338.363,59.532L338.905,58.485L339.447,58.882L339.989,60.904L341.615,72.131L342.157,72.492L342.699,71.59L343.241,71.265L343.783,71.482L344.325,73.178L345.951,81.554L346.493,86.031L347.577,99.1L348.119,103.035L348.661,104.298L349.203,104.334L349.745,105.02L350.287,105.02L350.829,103.324L351.371,98.45L352.997,75.814L353.539,68.557L354.081,64.008L354.623,62.998L355.165,64.803L356.249,69.532L356.791,70.326L357.333,70.326L357.875,71.012L358.417,72.637L358.959,75.453L359.501,79.027L360.043,80.543L360.585,77.908L361.669,68.882L362.211,67.366L362.753,67.691L363.295,68.449L363.837,70.435L364.379,74.695L365.463,86.933L366.005,90.58L366.547,91.554L367.089,90.002L368.715,78.955L369.257,76.464L369.799,75.453L370.341,76.933L370.883,81.698L371.425,87.98L371.967,92.312L372.509,92.746L373.051,90.074L374.135,79.677L375.219,70.976L376.845,56.174L377.387,53.864L377.929,54.225L378.471,57.149L379.555,66.247L380.097,70.543L380.639,72.637L381.181,72.889L381.723,72.312L382.265,70.796L382.807,68.738L383.349,67.546L383.891,68.196L384.433,70.904L385.517,77.547L386.059,77.908L386.601,75.02L387.685,65.164L388.227,61.806L388.769,61.265L389.311,62.131L389.853,62.312" style="fill:none;fill-rule:nonzero;stroke:black;stroke-width:1.5px;stroke-linecap:square;"/>
    </g>
    <g transform="matrix(0,-1,-1,0,219.565,189.222)">
        <path d="M-84.09,170.6L182.022,170.6" style="fill:none;fill-rule:nonzero;stroke:black;stroke-width:0.8px;stroke-linecap:square;stroke-linejoin:miter;"/>
    </g>
    <g transform="matrix(0,-1,-1,0,576.685,546.342)">
        <path d="M273.03,170.6L539.142,170.6" style="fill:none;fill-rule:nonzero;stroke:black;stroke-width:0.8px;stroke-linecap:square;stroke-linejoin:miter;"/>
    </g>
    <g transform="matrix(1,0,0,1,0,235.768)">
        <path d="M48.966,37.544L406.086,37.544" style="fill:none;fill-rule:nonzero;stroke:black;stroke-width:0.8px;stroke-linecap:square;stroke-linejoin:miter;"/>
    </g>
    <g transform="matrix(1,0,0,1,0,-296.456)">
        <path d="M48.966,303.656L406.086,303.656" style="fill:none;fill-rule:nonzero;stroke:black;stroke-width:0.8px;stroke-linecap:square;stroke-linejoin:miter;"/>
    </g>
</svg>
