<?xml version="1.0" encoding="UTF-8" standalone="no"?>
<!DOCTYPE svg PUBLIC "-//W3C//DTD SVG 1.1//EN" "http://www.w3.org/Graphics/SVG/1.1/DTD/svg11.dtd">
<svg width="100%" height="100%" viewBox="0 0 407 311" version="1.1" xmlns="http://www.w3.org/2000/svg" xmlns:xlink="http://www.w3.org/1999/xlink" xml:space="preserve" xmlns:serif="http://www.serif.com/" style="fill-rule:evenodd;clip-rule:evenodd;stroke-linejoin:round;stroke-miterlimit:10;">
    <rect x="0" y="0" width="406.926" height="310.856" style="fill:white;"/>
    <g transform="matrix(1,0,0,1,0,-30.3438)">
        <rect x="42.606" y="37.544" width="357.12" height="266.112" style="fill:white;"/>
    </g>
    <g transform="matrix(0,1,1,0,23.0452,216.223)">
        <path d="M57.089,35.794L60.589,35.794" style="fill:none;fill-rule:nonzero;stroke:black;stroke-width:0.8px;"/>
    </g>
    <text x="55.659px" y="287.906px" style="font-family:'Roboto-Regular', 'Roboto';font-size:10px;">0</text>
    <text x="109.859px" y="287.906px" style="font-family:'Roboto-Regular', 'Roboto';font-size:10px;">2</text>
    <text x="164.058px" y="287.906px" style="font-family:'Roboto-Regular', 'Roboto';font-size:10px;">4</text>
    <text x="218.258px" y="287.906px" style="font-family:'Roboto-Regular', 'Roboto';font-size:10px;">6</text>
    <text x="272.457px" y="287.906px" style="font-family:'Roboto-Regular', 'Roboto';font-size:10px;">8</text>
    <text x="323.477px" y="287.906px" style="font-family:'Roboto-Regular', 'Roboto';font-size:10px;">1<tspan x="329.837px " y="287.906px ">0</tspan></text>
    <text x="377.676px" y="287.906px" style="font-family:'Roboto-Regular', 'Roboto';font-size:10px;">1<tspan x="384.036px " y="287.906px ">2</tspan></text>
    <text x="213.682px" y="301.578px" style="font-family:'Roboto-Regular', 'Roboto';font-size:10px;">m<tspan x="223.422px " y="301.578px ">s</tspan></text>
    <text x="29.251px" y="251.643px" style="font-family:'Roboto-Regular', 'Roboto';font-size:10px;">3</text>
    <text x="29.251px" y="217.028px" style="font-family:'Roboto-Regular', 'Roboto';font-size:10px;">2</text>
    <text x="29.251px" y="182.413px" style="font-family:'Roboto-Regular', 'Roboto';font-size:10px;">1</text>
    <text x="29.247px" y="147.798px" style="font-family:'Roboto-Regular', 'Roboto';font-size:10px;">0</text>
    <text x="29.247px" y="113.184px" style="font-family:'Roboto-Regular', 'Roboto';font-size:10px;">1</text>
    <text x="29.247px" y="78.569px" style="font-family:'Roboto-Regular', 'Roboto';font-size:10px;">2</text>
    <text x="29.247px" y="43.954px" style="font-family:'Roboto-Regular', 'Roboto';font-size:10px;">3</text>
    <g transform="matrix(0,-1,1,0,0,0)">
        <text x="-146.85px" y="14.794px" style="font-family:'Roboto-Regular', 'Roboto';font-size:10px;">p<tspan x="-140.5px " y="14.794px ">A</tspan></text>
    </g>
    <g transform="matrix(0,1,1,0,77.2447,162.024)">
        <path d="M111.288,35.794L114.788,35.794" style="fill:none;fill-rule:nonzero;stroke:black;stroke-width:0.8px;"/>
    </g>
    <g transform="matrix(0,1,1,0,131.444,107.824)">
        <path d="M165.488,35.794L168.988,35.794" style="fill:none;fill-rule:nonzero;stroke:black;stroke-width:0.8px;"/>
    </g>
    <g transform="matrix(0,1,1,0,185.643,53.6248)">
        <path d="M219.687,35.794L223.187,35.794" style="fill:none;fill-rule:nonzero;stroke:black;stroke-width:0.8px;"/>
    </g>
    <g transform="matrix(0,1,1,0,239.843,-0.57467)">
        <path d="M273.887,35.794L277.387,35.794" style="fill:none;fill-rule:nonzero;stroke:black;stroke-width:0.8px;"/>
    </g>
    <g transform="matrix(0,1,1,0,294.042,-54.7741)">
        <path d="M328.086,35.794L331.586,35.794" style="fill:none;fill-rule:nonzero;stroke:black;stroke-width:0.8px;"/>
    </g>
    <g transform="matrix(0,1,1,0,348.242,-108.974)">
        <path d="M382.286,35.794L385.786,35.794" style="fill:none;fill-rule:nonzero;stroke:black;stroke-width:0.8px;"/>
    </g>
    <g transform="matrix(-1,0,0,1,81.7125,184.836)">
        <path d="M39.106,63.01L42.606,63.01" style="fill:none;fill-rule:nonzero;stroke:black;stroke-width:0.8px;"/>
    </g>
    <g transform="matrix(0.01,0,0,0.01,20.8719,245.373)">
        <rect x="106" y="272" width="626" height="83"/>
    </g>
    <g transform="matrix(-1,0,0,1,81.7125,115.606)">
        <path d="M39.106,97.625L42.606,97.625" style="fill:none;fill-rule:nonzero;stroke:black;stroke-width:0.8px;"/>
    </g>
    <g transform="matrix(0.01,0,0,0.01,20.8719,210.758)">
        <rect x="106" y="272" width="626" height="83"/>
    </g>
    <g transform="matrix(-1,0,0,1,81.7125,46.3768)">
        <path d="M39.106,132.239L42.606,132.239" style="fill:none;fill-rule:nonzero;stroke:black;stroke-width:0.8px;"/>
    </g>
    <g transform="matrix(0.01,0,0,0.01,20.8719,176.143)">
        <rect x="106" y="272" width="626" height="83"/>
    </g>
    <g transform="matrix(-1,0,0,1,81.7125,-22.8527)">
        <path d="M39.106,166.854L42.606,166.854" style="fill:none;fill-rule:nonzero;stroke:black;stroke-width:0.8px;"/>
    </g>
    <g transform="matrix(-1,0,0,1,81.7125,-92.0822)">
        <path d="M39.106,201.469L42.606,201.469" style="fill:none;fill-rule:nonzero;stroke:black;stroke-width:0.8px;"/>
    </g>
    <g transform="matrix(-1,0,0,1,81.7125,-161.312)">
        <path d="M39.106,236.084L42.606,236.084" style="fill:none;fill-rule:nonzero;stroke:black;stroke-width:0.8px;"/>
    </g>
    <g transform="matrix(-1,0,0,1,81.7125,-230.541)">
        <path d="M39.106,270.698L42.606,270.698" style="fill:none;fill-rule:nonzero;stroke:black;stroke-width:0.8px;"/>
    </g>
    <g transform="matrix(1,0,0,1,0,-30.3438)">
        <path d="M58.839,139.95L59.381,142.4L59.923,146.579L60.465,161.239L61.549,197.906L62.091,210.188L62.633,218.041L63.717,227.478L64.259,231.223L64.801,232.268L65.343,227.478L65.885,212.53L66.427,186.022L67.511,119.497L68.053,102.929L68.595,97.598L69.137,104.584L70.221,140.924L70.763,150.827L71.305,157.273L71.847,158.424L72.931,148.516L73.473,154.853L74.557,177.901L75.099,178.619L75.641,163.67L76.183,140.401L76.725,129.017L77.267,134.165L77.809,149.47L78.351,169.745L78.893,194.234L79.435,212.671L79.977,217.927L80.519,217.563L81.061,213.851L81.603,200.197L83.229,130.709L83.771,116.191L84.313,112.045L84.855,115.678L85.397,130.874L85.939,166.923L87.023,261.711L87.565,285.658L88.107,291.56L88.649,282.227L89.191,257.55L90.817,150.888L91.359,142.419L91.901,151.238L92.985,177.844L93.527,189.255L94.069,195.264L94.611,188.739L95.153,168.6L96.237,106.71L96.779,73.928L97.321,51.951L97.863,49.64L98.405,62.779L98.947,91.37L101.115,245.711L101.657,276.355L102.199,289.277L102.741,282.211L103.283,264.878L104.908,196.891L105.992,171.194L106.534,163.91L107.076,165.703L107.618,171.817L108.16,171.88L108.702,171.404L109.244,175.572L109.786,183.415L110.87,208.825L111.412,209.968L111.954,196.416L113.58,140.524L114.122,130.105L114.664,132.327L115.206,144.491L116.29,183.296L116.832,192.326L117.374,192.819L117.916,190.287L118.458,180.191L119,165.664L119.542,157.297L120.084,158.978L120.626,164.548L121.168,171.631L121.71,175.689L122.252,175.425L122.794,169.865L123.878,152.479L124.42,147.46L124.962,151.516L125.504,167.027L126.588,205.933L127.13,218.957L127.672,221.068L128.214,211.941L128.756,206.164L129.298,209.462L129.84,216.759L130.382,218.22L130.924,208.876L131.466,189.375L132.008,163.931L132.55,145.401L133.092,136.813L133.634,134.491L134.176,135.302L134.718,140.327L135.26,148.27L135.802,153.51L136.344,156.05L136.886,150.484L137.97,119.148L138.512,109.584L139.054,112.014L139.596,129.571L140.138,155.231L140.68,173.219L141.222,179.753L141.764,184.018L142.306,183.637L143.39,165.26L143.932,164.446L145.016,167.353L145.558,173.021L146.1,187.116L147.726,246.146L148.268,252.46L148.81,242.134L149.894,188.199L150.436,162.636L150.978,150.039L151.52,153.649L152.062,166.876L153.146,198.946L153.688,202.554L154.23,189.955L155.314,146.277L155.856,130.326L156.398,121.075L156.94,124.14L158.024,160.523L158.566,170.503L159.108,174.647L159.65,176.305L160.734,172.273L161.276,166.15L161.818,153.111L162.36,143.745L162.902,146.265L163.986,163.404L165.07,179.245L165.612,184.03L166.154,190.437L166.696,198.679L167.238,203.571L168.322,206.006L168.864,208.087L169.406,208.006L169.948,207.061L170.49,203.197L171.574,188.661L172.116,180.906L172.658,161.913L173.2,135.463L173.742,120.791L174.284,126.323L174.826,137.906L175.91,152.965L176.452,160.331L176.994,165.861L178.078,180.698L178.62,174.232L180.246,116.252L180.788,118.427L181.33,135.836L181.872,157.566L182.414,167.41L182.956,164.287L183.498,156.95L184.04,153.285L184.582,152.321L185.124,150.168L185.666,142.719L186.208,132.244L186.75,125.55L188.376,120.159L188.918,122.43L189.46,129.779L190.002,143.718L190.544,162.087L191.086,176.456L191.628,178.292L192.17,163.486L192.712,141.656L193.254,124.688L193.796,116.471L194.338,116.682L194.88,124.455L195.422,135.469L196.506,151.551L197.048,162.995L197.59,167.846L198.131,165.35L199.215,150.954L199.757,150.183L200.299,163.243L200.841,184.189L201.383,199.3L201.925,203.064L202.467,195.807L203.551,165.514L204.093,154.796L204.635,147.211L205.177,142.219L206.261,141.523L206.803,142.687L207.345,154.331L207.887,172.674L208.429,184.64L208.971,188.07L209.513,186.096L210.055,177.746L210.597,164.426L211.139,155.75L211.681,159.392L212.223,170.596L212.765,177.91L213.307,182.521L214.391,198.009L214.933,201.213L215.475,199.447L216.559,184.133L217.101,181.284L217.643,181.783L218.185,178.067L218.727,165.599L219.269,145.566L220.353,91.343L220.895,77.791L221.437,77.42L221.979,93.364L222.521,127.461L223.605,211.102L224.147,235.255L224.689,242.228L225.231,229.966L226.857,152.657L227.399,140.285L227.941,139.041L229.025,156.648L229.567,157.887L230.109,161.071L231.193,182.67L231.735,188.229L232.277,186.115L232.819,172.007L233.903,130.714L234.445,119.629L234.987,113.73L235.529,117.123L236.071,129.591L237.155,161.442L238.239,200.746L238.781,207.485L239.323,201.473L240.407,173.24L240.949,166.578L241.491,167.047L242.033,168.812L242.575,167.659L243.117,163.157L243.659,154.872L245.285,116.29L245.827,107.787L246.369,109.873L246.911,126.544L247.453,149.591L247.995,167.667L248.537,178.178L249.079,185.556L249.621,188.935L250.163,188.208L250.705,186.076L251.247,184.484L251.789,186.997L252.331,195.885L252.873,206.718L253.415,210.527L253.957,205.151L255.041,184.134L256.667,140.882L257.209,132.047L257.751,133.908L258.293,148.844L258.835,167.453L259.377,176.229L259.919,170.526L260.461,154.126L261.545,108.9L262.087,96.388L262.629,93.71L263.171,95.137L263.713,103.804L264.797,136.587L266.423,157.939L266.965,163.147L267.507,170.192L268.049,179.506L268.591,180.608L269.133,170.581L269.675,157.42L270.217,137.344L271.301,80.443L271.843,67.174L272.385,69.032L272.927,88.827L273.469,124.721L274.553,206.018L275.095,228.298L275.637,238.692L276.179,238.93L276.721,233.549L277.263,230.437L277.805,228.946L278.347,221.08L279.431,194.759L281.057,150.417L281.599,151.736L282.141,166.886L283.225,212.961L283.767,222.277L284.309,219.491L284.851,210.007L285.393,194.255L285.935,170.507L287.019,112.424L287.561,91.487L288.103,88.811L290.271,131.053L290.813,133.889L291.355,133.591L291.896,132.43L292.438,135.698L292.98,142.533L294.606,170.279L295.148,175.71L295.69,175.955L296.232,169.393L297.316,147.411L297.858,139.769L298.4,134.83L298.942,133.349L299.484,136.622L300.568,153.434L301.11,162.543L301.652,169.491L302.194,170.93L302.736,165.777L303.278,159.004L303.82,148.774L304.362,134.978L304.904,129.071L305.446,138.724L305.988,155.4L306.53,164.297L307.072,164.335L307.614,157.997L308.156,149.499L308.698,148.133L309.24,158.869L309.782,173.496L310.324,182.288L310.866,189.243L311.408,197.82L311.95,203.264L312.492,203.738L313.034,203.672L313.576,206.092L314.118,202.461L315.744,164.127L316.286,156.176L317.37,149.676L317.912,142.915L318.454,139.72L318.996,141.388L319.538,135.925L320.08,126.897L320.622,128.458L321.164,143.526L321.706,166.159L322.79,216.612L323.332,222.713L323.874,212.932L325.5,165.222L326.042,153.821L326.584,151.822L327.126,156.847L327.668,166.302L328.21,173.704L328.752,170.518L329.294,155.231L330.378,114.068L330.92,100.619L331.462,102.621L333.63,152.776L334.172,159.643L334.714,157.866L335.256,148.85L336.34,117.53L336.882,111.972L337.424,122.516L337.966,142.568L338.508,168.779L339.592,266.261L340.134,286.531L340.676,276.762L341.218,252.948L342.844,162.921L343.386,148.076L343.928,148.143L345.012,169.455L345.554,172.116L346.096,165.16L346.638,155.72L347.18,149.629L347.722,149.374L348.264,157.979L350.432,215.85L350.974,223.808L351.516,225.067L352.058,224.49L352.6,220.671L353.142,214.044L353.684,210.118L354.226,208.785L354.768,206.048L355.31,204.392L355.852,201.115L356.394,189.951L358.02,137.333L358.562,136.002L359.104,151.744L359.646,172.456L360.188,184.199L360.73,188.272L361.272,191.048L362.356,193.791L362.898,201.538L363.44,211.554L363.982,217.572L364.524,220.457L365.066,215.13L365.608,195.648L366.15,170.764L366.692,153.227L367.234,145.416L367.776,149.598L368.318,167.827L369.402,216.927L369.944,229.429L370.486,232.099L371.028,224.072L372.112,196.889L372.654,186.485L373.738,161.138L374.28,158.946L374.822,166.586L375.364,176.387L375.906,189.647L376.99,235.182L377.532,247.469L378.074,248.735L378.616,242.437L379.158,228.899L381.326,151.301L381.868,147.272L382.952,155.097L383.494,157.443" style="fill:none;fill-rule:nonzero;stroke:black;stroke-width:1.5px;stroke-linecap:square;"/>
    </g>
    <g transform="matrix(0,-1,-1,0,213.206,182.862)">
        <path d="M-90.45,170.6L175.662,170.6" style="fill:none;fill-rule:nonzero;stroke:black;stroke-width:0.8px;stroke-linecap:square;stroke-linejoin:miter;"/>
    </g>
    <g transform="matrix(0,-1,-1,0,570.326,539.982)">
        <path d="M266.67,170.6L532.782,170.6" style="fill:none;fill-rule:nonzero;stroke:black;stroke-width:0.8px;stroke-linecap:square;stroke-linejoin:miter;"/>
    </g>
    <g transform="matrix(1,0,0,1,0,235.768)">
        <path d="M42.606,37.544L399.726,37.544" style="fill:none;fill-rule:nonzero;stroke:black;stroke-width:0.8px;stroke-linecap:square;stroke-linejoin:miter;"/>
    </g>
    <g transform="matrix(1,0,0,1,0,-296.456)">
        <path d="M42.606,303.656L399.726,303.656" style="fill:none;fill-rule:nonzero;stroke:black;stroke-width:0.8px;stroke-linecap:square;stroke-linejoin:miter;"/>
    </g>
</svg>
