<?xml version="1.0" encoding="UTF-8" standalone="no"?>
<!DOCTYPE svg PUBLIC "-//W3C//DTD SVG 1.1//EN" "http://www.w3.org/Graphics/SVG/1.1/DTD/svg11.dtd">
<svg width="100%" height="100%" viewBox="0 0 455 338" version="1.1" xmlns="http://www.w3.org/2000/svg" xmlns:xlink="http://www.w3.org/1999/xlink" xml:space="preserve" xmlns:serif="http://www.serif.com/" style="fill-rule:evenodd;clip-rule:evenodd;stroke-linejoin:round;stroke-miterlimit:10;">
    <rect x="0" y="0" width="454.542" height="337.037" style="fill:white;"/>
    <g transform="matrix(1,0,0,1,0,-154.117)">
        <rect x="48.013" y="176.442" width="94.43" height="138.27" style="fill:white;"/>
    </g>
    <g transform="matrix(0,1,1,0,-122.387,110.04)">
        <path d="M50.555,174.692L54.055,174.692" style="fill:none;fill-rule:nonzero;stroke:black;stroke-width:0.8px;"/>
    </g>
    <g transform="matrix(0,1,1,0,-88.0352,75.6883)">
        <path d="M84.907,174.692L88.407,174.692" style="fill:none;fill-rule:nonzero;stroke:black;stroke-width:0.8px;"/>
    </g>
    <g transform="matrix(0,1,1,0,-53.6833,41.3364)">
        <path d="M119.259,174.692L122.759,174.692" style="fill:none;fill-rule:nonzero;stroke:black;stroke-width:0.8px;"/>
    </g>
    <g transform="matrix(-1,0,0,1,92.525,-80.013)">
        <path d="M44.513,208.525L48.013,208.525" style="fill:none;fill-rule:nonzero;stroke:black;stroke-width:0.8px;"/>
    </g>
    <text x="34.653px" y="132.309px" style="font-family:'Roboto-Regular', 'Roboto';font-size:10px;">5</text>
    <text x="28.294px" y="97.075px" style="font-family:'Roboto-Regular', 'Roboto';font-size:10px;">1<tspan x="34.654px " y="97.075px ">0</tspan></text>
    <text x="28.294px" y="61.842px" style="font-family:'Roboto-Regular', 'Roboto';font-size:10px;">1<tspan x="34.654px " y="61.842px ">5</tspan></text>
    <text x="28.294px" y="26.608px" style="font-family:'Roboto-Regular', 'Roboto';font-size:10px;">2<tspan x="34.654px " y="26.608px ">0</tspan></text>
    <g>
        <text x="39.673px" y="16.325px" style="font-family:'Roboto-Regular', 'Roboto';font-size:12px;">H<tspan x="48.989px 56.278px 63.661px " y="16.325px 16.325px 16.325px ">ann</tspan></text>
        <text x="75.085px" y="16.325px" style="font-family:'Roboto-Regular', 'Roboto';font-size:12px;">w<tspan x="84.864px 88.538px 95.92px 103.45px 111.055px 120.834px " y="16.325px 16.325px 16.325px 16.325px 16.325px 16.325px ">indow:</tspan></text>
        <text x="127.829px" y="16.325px" style="font-family:'Roboto-Regular', 'Roboto';font-size:12px;">1<tspan x="135.328px 142.828px " y="16.325px 16.325px ">50</tspan></text>
    </g>
    <text x="186.753px" y="157.867px" style="font-family:'Roboto-Regular', 'Roboto';font-size:10px;">0</text>
    <text x="186.753px" y="125.837px" style="font-family:'Roboto-Regular', 'Roboto';font-size:10px;">5</text>
    <text x="180.394px" y="93.806px" style="font-family:'Roboto-Regular', 'Roboto';font-size:10px;">1<tspan x="186.754px " y="93.806px ">0</tspan></text>
    <text x="180.394px" y="61.776px" style="font-family:'Roboto-Regular', 'Roboto';font-size:10px;">1<tspan x="186.754px " y="61.776px ">5</tspan></text>
    <text x="180.394px" y="29.745px" style="font-family:'Roboto-Regular', 'Roboto';font-size:10px;">2<tspan x="186.754px " y="29.745px ">0</tspan></text>
    <g>
        <text x="195.593px" y="16.325px" style="font-family:'Roboto-Regular', 'Roboto';font-size:12px;">H<tspan x="204.898px 212.176px 219.548px " y="16.325px 16.325px 16.325px ">ann</tspan></text>
        <text x="231.005px" y="16.325px" style="font-family:'Roboto-Regular', 'Roboto';font-size:12px;">w<tspan x="240.773px 244.436px 251.808px 259.326px 266.92px 276.688px " y="16.325px 16.325px 16.325px 16.325px 16.325px 16.325px ">indow:</tspan></text>
        <text x="283.749px" y="16.325px" style="font-family:'Roboto-Regular', 'Roboto';font-size:12px;">2<tspan x="291.238px " y="16.325px ">0</tspan></text>
    </g>
    <text x="338.853px" y="157.867px" style="font-family:'Roboto-Regular', 'Roboto';font-size:10px;">0</text>
    <text x="338.853px" y="125.837px" style="font-family:'Roboto-Regular', 'Roboto';font-size:10px;">5</text>
    <text x="332.494px" y="93.806px" style="font-family:'Roboto-Regular', 'Roboto';font-size:10px;">1<tspan x="338.854px " y="93.806px ">0</tspan></text>
    <text x="332.494px" y="61.776px" style="font-family:'Roboto-Regular', 'Roboto';font-size:10px;">1<tspan x="338.854px " y="61.776px ">5</tspan></text>
    <text x="332.494px" y="29.745px" style="font-family:'Roboto-Regular', 'Roboto';font-size:10px;">2<tspan x="338.854px " y="29.745px ">0</tspan></text>
    <g>
        <text x="351.513px" y="16.325px" style="font-family:'Roboto-Regular', 'Roboto';font-size:12px;">H<tspan x="360.806px 368.071px 375.429px " y="16.325px 16.325px 16.325px ">ann</tspan></text>
        <text x="386.925px" y="16.325px" style="font-family:'Roboto-Regular', 'Roboto';font-size:12px;">w<tspan x="396.681px 400.33px 407.689px 415.194px 422.776px 432.531px " y="16.325px 16.325px 16.325px 16.325px 16.325px 16.325px ">indow:</tspan></text>
        <text x="439.669px" y="16.325px" style="font-family:'Roboto-Regular', 'Roboto';font-size:12px;">3</text>
    </g>
    <text x="49.125px" y="327.759px" style="font-family:'Roboto-Regular', 'Roboto';font-size:10px;">0</text>
    <text x="73.938px" y="327.759px" style="font-family:'Roboto-Regular', 'Roboto';font-size:10px;">1<tspan x="80.298px 86.658px 93.018px 99.378px 108.29px 114.65px 121.01px 127.37px " y="327.759px 327.759px 327.759px 327.759px 327.759px 327.759px 327.759px 327.759px ">000	2000</tspan></text>
    <text x="15.579px" y="289.562px" style="font-family:'Roboto-Regular', 'Roboto';font-size:10px;">2<tspan x="21.939px 28.299px 34.659px " y="289.562px 289.562px 289.562px ">000</tspan></text>
    <text x="34.653px" y="260.486px" style="font-family:'Roboto-Regular', 'Roboto';font-size:10px;">0</text>
    <text x="15.575px" y="231.411px" style="font-family:'Roboto-Regular', 'Roboto';font-size:10px;">2<tspan x="21.935px 28.295px 34.655px " y="231.411px 231.411px 231.411px ">000</tspan></text>
    <text x="15.575px" y="202.335px" style="font-family:'Roboto-Regular', 'Roboto';font-size:10px;">4<tspan x="21.935px 28.295px 34.655px " y="202.335px 202.335px 202.335px ">000</tspan></text>
    <text x="201.225px" y="327.759px" style="font-family:'Roboto-Regular', 'Roboto';font-size:10px;">0</text>
    <text x="226.038px" y="327.759px" style="font-family:'Roboto-Regular', 'Roboto';font-size:10px;">1<tspan x="232.398px 238.758px 245.118px 251.478px 260.39px 266.75px 273.11px 279.47px " y="327.759px 327.759px 327.759px 327.759px 327.759px 327.759px 327.759px 327.759px ">000	2000</tspan></text>
    <text x="186.753px" y="283.094px" style="font-family:'Roboto-Regular', 'Roboto';font-size:10px;">0</text>
    <text x="161.316px" y="246.281px" style="font-family:'Roboto-Regular', 'Roboto';font-size:10px;">2<tspan x="167.676px 174.036px 180.396px 186.756px " y="246.281px 246.281px 246.281px 246.281px ">0000</tspan></text>
    <text x="161.316px" y="209.467px" style="font-family:'Roboto-Regular', 'Roboto';font-size:10px;">4<tspan x="167.676px 174.036px 180.396px 186.756px " y="209.467px 209.467px 209.467px 209.467px ">0000</tspan></text>
    <text x="353.325px" y="327.759px" style="font-family:'Roboto-Regular', 'Roboto';font-size:10px;">0</text>
    <text x="378.138px" y="327.759px" style="font-family:'Roboto-Regular', 'Roboto';font-size:10px;">1<tspan x="384.498px 390.858px 397.218px 403.578px 412.49px 418.85px 425.21px 431.57px " y="327.759px 327.759px 327.759px 327.759px 327.759px 327.759px 327.759px 327.759px ">000	2000</tspan></text>
    <text x="313.42px" y="299.4px" style="font-family:'Roboto-Regular', 'Roboto';font-size:10px;">5<tspan x="319.78px 326.14px 332.5px 338.86px " y="299.4px 299.4px 299.4px 299.4px ">0000</tspan></text>
    <text x="338.853px" y="263.858px" style="font-family:'Roboto-Regular', 'Roboto';font-size:10px;">0</text>
    <text x="313.416px" y="228.317px" style="font-family:'Roboto-Regular', 'Roboto';font-size:10px;">5<tspan x="319.776px 326.136px 332.496px 338.856px " y="228.317px 228.317px 228.317px 228.317px ">0000</tspan></text>
    <text x="307.056px" y="192.775px" style="font-family:'Roboto-Regular', 'Roboto';font-size:10px;">1<tspan x="313.416px 319.776px 326.136px 332.496px 338.856px " y="192.775px 192.775px 192.775px 192.775px 192.775px ">00000</tspan></text>
    <g transform="matrix(-1,0,0,1,92.525,-150.48)">
        <path d="M44.513,243.759L48.013,243.759" style="fill:none;fill-rule:nonzero;stroke:black;stroke-width:0.8px;"/>
    </g>
    <g transform="matrix(-1,0,0,1,92.525,-220.948)">
        <path d="M44.513,278.992L48.013,278.992" style="fill:none;fill-rule:nonzero;stroke:black;stroke-width:0.8px;"/>
    </g>
    <g transform="matrix(-1,0,0,1,92.525,-291.415)">
        <path d="M44.513,314.226L48.013,314.226" style="fill:none;fill-rule:nonzero;stroke:black;stroke-width:0.8px;"/>
    </g>
    <g transform="matrix(1,0,0,1,0,-120.84)">
        <path d="M52.305,258.457L52.717,257.662L53.026,257.448L53.301,257.5L53.644,257.833L54.4,259.031L57.114,262.842L59.484,265.044L60.343,265.489L60.893,265.539L61.305,265.367L62.645,264.544L62.988,264.591L64.671,265.309L65.015,265.077L65.462,264.471L66.389,263.043L66.767,262.923L67.11,263.052L67.523,263.444L68.588,264.607L68.931,264.61L69.206,264.405L69.618,263.758L70.34,262.642L70.649,262.502L70.958,262.615L71.37,263.069L72.401,264.343L72.744,264.439L72.985,264.268L73.225,263.707L73.5,262.334L73.809,259.519L74.221,253.483L74.874,239.973L75.939,218.215L76.317,214.424L76.557,213.611L76.66,213.653L76.798,214.075L77.038,215.777L77.416,220.444L79.237,245.922L79.752,249.766L80.199,251.676L80.679,252.806L81.16,253.394L81.779,254.133L82.638,255.572L84.046,258.168L84.08,258.15L84.218,257.913L84.424,256.956L84.699,254.306L85.042,248.409L85.523,235.624L86.897,196.161L87.206,192.82L87.378,192.338L87.481,192.518L87.653,193.561L87.928,196.957L88.409,206.462L89.336,224.75L89.954,232.351L90.573,237.321L91.191,240.697L91.809,242.941L94.626,250.984L95.004,251.316L95.382,251.355L96.275,251.375L96.722,251.784L97.237,252.538L98.096,253.807L98.474,254.032L98.886,254.024L100.02,253.806L100.329,254.059L100.707,254.691L101.428,256.449L102.321,258.41L102.733,258.8L103.627,259.454L104.691,260.766L105.791,262.364L106.203,262.544L106.615,262.478L107.714,262.132L108.23,262.493L109.707,263.485L110.05,263.463L110.394,263.2L110.875,262.516L111.665,261.436L112.215,261.054L112.833,260.901L113.417,260.956L114.757,261.297L116.165,260.902L116.749,261.145L117.264,261.59L118.844,263.188L119.154,263.133L119.428,262.828L119.875,261.935L121.009,259.571L121.352,259.341L121.661,259.398L121.97,259.724L122.417,260.562L124.1,263.984L124.753,264.663L125.337,264.955L125.887,265.03L126.402,264.858L127.089,264.405L127.81,263.629L128.463,262.53L129.597,260.516L129.94,260.301L130.215,260.359L130.627,260.742L132.585,262.909L133.169,263.133L133.719,263.049L134.234,262.739L134.955,262.391L135.917,262.208L136.33,262.372L137.085,262.736L137.394,262.622L137.807,262.176L138.15,261.733" style="fill:none;fill-rule:nonzero;stroke:rgb(31,119,180);stroke-width:1.5px;stroke-linecap:square;"/>
    </g>
    <g transform="matrix(0,-1,-1,0,293.589,139.472)">
        <path d="M-21.123,245.577L117.147,245.577" style="fill:none;fill-rule:nonzero;stroke:black;stroke-width:0.8px;stroke-linecap:square;stroke-linejoin:miter;"/>
    </g>
    <g transform="matrix(0,-1,-1,0,388.019,233.902)">
        <path d="M73.308,245.577L211.577,245.577" style="fill:none;fill-rule:nonzero;stroke:black;stroke-width:0.8px;stroke-linecap:square;stroke-linejoin:miter;"/>
    </g>
    <g transform="matrix(1,0,0,1,0,-15.8469)">
        <path d="M48.013,176.442L142.443,176.442" style="fill:none;fill-rule:nonzero;stroke:black;stroke-width:0.8px;stroke-linecap:square;stroke-linejoin:miter;"/>
    </g>
    <g transform="matrix(1,0,0,1,0,-292.387)">
        <path d="M48.013,314.712L142.443,314.712" style="fill:none;fill-rule:nonzero;stroke:black;stroke-width:0.8px;stroke-linecap:square;stroke-linejoin:miter;"/>
    </g>
    <g transform="matrix(1,0,0,1,0,-154.117)">
        <rect x="200.112" y="176.442" width="94.43" height="138.27" style="fill:white;"/>
    </g>
    <g transform="matrix(0,1,1,0,29.7129,-42.0598)">
        <path d="M202.655,174.692L206.155,174.692" style="fill:none;fill-rule:nonzero;stroke:black;stroke-width:0.8px;"/>
    </g>
    <g transform="matrix(0,1,1,0,64.0648,-76.4117)">
        <path d="M237.007,174.692L240.507,174.692" style="fill:none;fill-rule:nonzero;stroke:black;stroke-width:0.8px;"/>
    </g>
    <g transform="matrix(0,1,1,0,98.4167,-110.764)">
        <path d="M271.359,174.692L274.859,174.692" style="fill:none;fill-rule:nonzero;stroke:black;stroke-width:0.8px;"/>
    </g>
    <g transform="matrix(-1,0,0,1,396.725,-28.8968)">
        <path d="M196.612,182.967L200.112,182.967" style="fill:none;fill-rule:nonzero;stroke:black;stroke-width:0.8px;"/>
    </g>
    <g transform="matrix(-1,0,0,1,396.725,-92.9575)">
        <path d="M196.612,214.997L200.112,214.997" style="fill:none;fill-rule:nonzero;stroke:black;stroke-width:0.8px;"/>
    </g>
    <g transform="matrix(-1,0,0,1,396.725,-157.018)">
        <path d="M196.612,247.028L200.112,247.028" style="fill:none;fill-rule:nonzero;stroke:black;stroke-width:0.8px;"/>
    </g>
    <g transform="matrix(-1,0,0,1,396.725,-221.079)">
        <path d="M196.612,279.058L200.112,279.058" style="fill:none;fill-rule:nonzero;stroke:black;stroke-width:0.8px;"/>
    </g>
    <g transform="matrix(-1,0,0,1,396.725,-285.14)">
        <path d="M196.612,311.088L200.112,311.088" style="fill:none;fill-rule:nonzero;stroke:black;stroke-width:0.8px;"/>
    </g>
    <g transform="matrix(1,0,0,1,0,-160.324)">
        <path d="M204.405,283.43L204.508,285.49L204.577,285.05L204.783,280.794L204.817,281.198L204.954,286.71L205.264,298.966L205.332,298.024L205.573,290.254L205.641,290.633L205.779,292.326L205.813,292.234L206.019,289.565L206.088,290.2L206.363,294.284L206.397,294.067L206.535,290.576L206.809,284.501L206.981,285.163L207.084,285.8L207.222,288.653L207.6,297.215L207.977,300.764L208.046,300.171L208.252,294.086L208.561,286.175L208.596,286.091L208.63,286.239L208.767,288.884L209.077,297.652L209.145,297.252L209.283,295.666L209.317,295.7L209.523,298.059L209.592,297.611L210.004,291.549L210.073,291.933L210.382,297.697L210.451,297.182L210.554,296.394L210.588,296.425L210.726,297.959L210.897,299.482L211,298.203L211.275,294.266L211.344,294.355L211.516,295.278L211.687,297.738L211.825,299.455L211.859,299.174L211.997,294.476L212.168,288.838L212.203,289.126L212.34,295.622L212.581,305.816L212.649,305.283L212.855,299.76L213.096,293.811L213.13,293.839L213.371,295.384L213.439,295.204L213.474,295.163L213.508,295.264L213.645,297.206L213.852,298.939L213.92,298.626L214.161,295.139L214.264,295.992L214.436,298.842L214.47,298.728L215.123,291.737L215.191,291.944L215.363,293.483L215.397,293.4L215.5,291.608L215.603,289.863L215.638,290.13L215.741,294.492L215.981,305.334L216.05,304.793L216.462,296.257L216.6,294.886L216.634,294.931L216.771,295.879L216.943,296.781L217.115,296.049L217.184,296.457L217.424,301.391L217.493,300.705L217.836,292.262L217.905,292.666L218.111,293.686L218.18,293.844L218.283,295.166L218.489,299.632L218.523,299.367L218.661,294.152L218.833,289.599L219.039,292.805L219.107,292.057L219.245,290.072L219.279,290.384L219.52,297.567L219.623,296.06L219.829,290.638L219.863,290.897L220.035,296.157L220.207,299.42L220.241,299.393L220.344,299.194L220.447,299.981L220.55,300.795L220.585,300.716L220.688,299.03L220.962,294.365L221.065,295.647L221.306,301.172L221.34,300.835L221.512,294.31L221.615,292.388L221.649,292.794L221.89,298.719L221.959,298.461L222.68,289.686L222.714,289.818L222.886,292.488L223.161,295.563L223.23,294.943L223.504,288.154L223.607,288.957L224.363,302.653L224.398,302.623L224.535,301.785L224.741,299.196L225.05,292.782L225.085,292.982L225.359,297.698L225.463,296.702L225.669,294.377L225.703,294.531L225.875,295.976L225.909,295.764L226.046,292.434L226.253,287.756L226.321,288.655L226.802,300.166L226.837,300.076L226.94,298.286L227.111,289.478L227.97,224.968L228.005,225.009L228.108,228.695L228.348,238.317L228.52,236.687L228.554,237.127L228.692,243.541L228.898,251.48L228.932,251.499L229.069,250.863L229.104,250.937L229.207,251.389L229.241,251.29L229.344,249.56L229.482,246.932L229.516,246.945L229.619,249.077L229.894,262.135L230.203,276.734L230.272,276.303L230.512,271.755L230.718,266.566L230.753,267.124L230.924,276.027L231.199,286.162L231.337,287.611L231.371,287.441L231.508,284.631L231.749,280.888L231.818,281.475L232.058,287.76L232.195,289.328L232.23,289.172L232.779,283.53L232.917,281.829L232.951,282.163L233.089,287.834L233.26,295.359L233.295,295.278L233.398,291.612L233.776,275.668L233.81,275.498L233.844,275.777L233.947,279.655L234.222,294.57L234.257,294.261L234.6,284.625L234.703,285.4L235.081,288.639L235.184,289.557L235.493,294.954L235.562,294.538L236.146,285.916L236.215,286.552L236.489,292.516L236.558,291.675L236.73,288.617L236.764,288.812L237.073,294.408L237.177,294.155L237.348,293.103L237.417,292.634L237.451,292.647L237.554,294.121L237.726,296.797L237.76,296.49L237.932,291.061L238.138,283.394L238.276,262.724L238.688,192.934L238.791,191.545L238.825,191.61L238.928,192.632L239.135,198.137L239.719,221.718L240.646,258.537L240.715,259.05L240.783,258.864L240.921,258.174L240.955,258.216L241.367,260.601L241.574,264.183L241.608,264.057L241.78,262.489L241.814,262.756L241.986,267.543L242.192,270.464L242.398,273.504L242.501,274.395L242.535,274.247L242.845,270.234L242.982,270.597L243.085,270.444L243.119,270.506L243.188,271.337L243.36,278.682L243.6,286.206L243.635,286.277L243.669,286.216L243.772,285.098L243.944,278.351L244.184,271.667L244.631,274.575L244.803,279.001L244.94,281.978L244.974,281.702L245.249,274.287L245.318,275.679L245.627,283.572L245.73,283.301L245.799,283.233L245.833,283.341L245.971,284.787L246.074,285.86L246.108,285.814L246.348,283.009L246.417,283.62L246.795,290.235L246.864,289.346L247.07,280.62L247.207,277.75L247.242,278.175L247.551,286.703L247.619,285.799L247.826,282.33L247.86,282.567L248.066,286.94L248.203,288.164L248.238,287.995L248.375,285.904L248.787,277.002L248.856,277.493L248.994,283.163L249.165,289.855L249.2,289.667L249.337,283.939L249.474,279.363L249.509,279.593L249.646,284.906L249.852,291.217L249.887,291.242L249.99,289.91L250.196,285.688L250.23,285.839L250.368,289.251L250.505,291.951L250.539,291.861L250.677,289.315L251.055,281.718L251.089,281.83L251.192,284.053L251.467,292.888L251.501,292.605L252.223,281.104L252.291,280.992L252.326,281.098L252.429,282.237L252.601,284.467L252.635,284.318L252.772,283.229L252.807,283.534L252.944,288.274L253.116,293.176L253.15,293.043L253.288,291.291L253.356,291.601L253.494,293.471L253.528,293.399L253.631,290.876L253.906,281.838L253.94,282.283L254.146,289.869L254.421,296.274L254.49,296.494L254.524,296.232L254.73,292.214L254.799,292.606L254.936,294.811L254.971,294.75L255.074,292.201L255.246,287.616L255.28,287.642L256.001,292.797L256.036,292.834L256.07,292.782L256.345,291.785L256.517,287.36L256.62,285.414L256.654,285.475L256.791,288.427L257.272,302.366L257.375,301.339L257.856,293.262L257.959,292.66L258.2,289.558L258.269,290.085L258.99,300.485L259.059,299.282L259.333,289.826L259.402,290.609L259.643,293.529L259.78,294.449L259.883,295.161L259.917,295.037L260.021,293.171L260.227,288.95L260.261,289.178L260.467,294.23L260.57,295.201L260.605,294.994L260.776,293.154L260.845,293.423L261.12,297.327L261.223,296.738L261.463,294.277L261.498,294.516L261.807,299.56L261.91,299.084L262.013,298.78L262.047,298.848L262.116,299.027L262.15,299L262.219,298.407L262.391,293.34L262.597,287.973L262.631,288.099L262.769,291.553L262.975,295.152L263.112,294.719L263.147,294.796L263.284,295.423L263.353,295.32L263.421,295.146L263.456,295.214L263.559,296.437L263.731,299.138L263.765,299.122L263.868,297.235L264.211,286.328L264.28,286.999L264.418,288.683L264.452,288.646L264.589,287.527L264.624,287.68L264.727,290.527L264.899,295.861L264.933,295.806L265.173,292.338L265.242,293.118L265.62,298.681L265.723,297.092L266.032,290.023L266.066,290.106L266.273,291.238L266.307,291.154L266.513,289.422L266.582,289.679L266.754,293.117L266.96,296.106L267.063,295.493L267.166,295.02L267.2,295.157L267.372,296.463L267.406,296.271L267.578,292.607L267.681,291.487L267.715,291.64L267.853,292.661L267.887,292.495L268.128,289.706L268.162,289.928L268.299,293.23L268.505,298.679L268.54,298.525L268.643,295.263L268.883,285.933L268.918,286.003L269.261,290.64L269.57,296.839L269.605,296.798L269.742,295.335L269.914,293.739L269.948,293.926L270.12,297.47L270.223,298.423L270.257,298.119L270.498,294.435L270.567,294.599L270.807,296.893L270.876,296.262L271.116,291.1L271.151,291.574L271.357,298.322L271.425,297.641L271.631,291.381L271.666,291.743L271.906,299.242L271.975,298.342L272.181,293.582L272.215,293.784L272.387,295.997L272.422,295.648L272.662,290.087L272.731,290.726L272.937,293.754L272.971,293.699L273.212,292.497L273.383,287.226L273.624,282.494L273.658,282.419L273.693,282.441L273.761,282.91L273.899,286.248L274.208,294.003L274.345,294.432L274.38,294.392L274.483,293.391L274.586,292.272L274.62,292.287L274.723,294.012L274.929,298.308L274.964,297.999L275.135,295.452L275.17,295.655L275.341,298.076L275.41,297.576L275.651,291.842L275.754,292.426L276.338,297.223L276.406,297.088L276.544,295.526L276.819,290.793L276.853,290.984L276.99,294.095L277.265,300.444L277.437,299.475L277.506,299.773L277.712,301.912L277.746,301.715L277.918,299.311L277.987,299.685L278.124,301.623L278.158,301.374L278.261,297.214L278.468,287.154L278.502,287.476L278.811,295.688L278.88,295.221L279.086,293.306L279.155,293.483L279.326,296.058L279.601,299.43L279.773,300.729L279.807,300.453L279.979,296.016L280.151,293.415L280.219,293.761L280.632,297.74L280.7,297.476L280.838,294.361L281.01,291.404L281.044,291.548L281.216,292.879L281.25,292.78L281.422,291.62L281.456,291.745L281.628,292.923L281.662,292.675L281.834,288.902L282.074,285.605L282.143,285.919L282.281,288.655L282.555,295.256L282.59,295.178L282.83,293.017L282.899,293.609L283.174,299.105L283.242,298.588L283.414,293.661L283.655,286.654L283.689,286.837L283.826,291.246L284.067,297.41L284.239,298.017L284.273,297.989L284.376,297.316L284.513,296.412L284.548,296.42L284.651,296.641L284.685,296.555L284.788,295.026L285.063,289.38L285.097,289.457L285.235,290.854L285.647,297.908L285.75,299.041L285.784,299.019L285.888,297.833L286.025,296.267L286.059,296.421L286.3,300.412L286.403,299.368L286.849,291.381L287.055,290.22L287.124,290.374L287.227,290.791L287.262,290.699L287.399,288.656L287.468,287.741L287.536,288.191L287.708,295.676L287.88,299.744L287.983,298.234L288.327,292.372L288.395,292.99L288.67,298.49L288.739,298.031L289.048,292.197L289.117,292.642L289.426,296.785L289.494,296.324L289.666,291.601L289.804,288.88L289.838,288.969L289.975,291.987L290.25,298.22" style="fill:none;fill-rule:nonzero;stroke:rgb(31,119,180);stroke-width:1.5px;stroke-linecap:square;"/>
    </g>
    <g transform="matrix(0,-1,-1,0,445.689,291.572)">
        <path d="M130.977,245.577L269.247,245.577" style="fill:none;fill-rule:nonzero;stroke:black;stroke-width:0.8px;stroke-linecap:square;stroke-linejoin:miter;"/>
    </g>
    <g transform="matrix(0,-1,-1,0,540.119,386.002)">
        <path d="M225.408,245.577L363.678,245.577" style="fill:none;fill-rule:nonzero;stroke:black;stroke-width:0.8px;stroke-linecap:square;stroke-linejoin:miter;"/>
    </g>
    <g transform="matrix(1,0,0,1,0,-15.8469)">
        <path d="M200.112,176.442L294.543,176.442" style="fill:none;fill-rule:nonzero;stroke:black;stroke-width:0.8px;stroke-linecap:square;stroke-linejoin:miter;"/>
    </g>
    <g transform="matrix(1,0,0,1,0,-292.387)">
        <path d="M200.112,314.712L294.543,314.712" style="fill:none;fill-rule:nonzero;stroke:black;stroke-width:0.8px;stroke-linecap:square;stroke-linejoin:miter;"/>
    </g>
    <g transform="matrix(1,0,0,1,0,-154.117)">
        <rect x="352.212" y="176.442" width="94.43" height="138.27" style="fill:white;"/>
    </g>
    <g transform="matrix(0,1,1,0,181.813,-194.16)">
        <path d="M354.755,174.692L358.255,174.692" style="fill:none;fill-rule:nonzero;stroke:black;stroke-width:0.8px;"/>
    </g>
    <g transform="matrix(0,1,1,0,216.165,-228.512)">
        <path d="M389.107,174.692L392.607,174.692" style="fill:none;fill-rule:nonzero;stroke:black;stroke-width:0.8px;"/>
    </g>
    <g transform="matrix(0,1,1,0,250.517,-262.864)">
        <path d="M423.459,174.692L426.959,174.692" style="fill:none;fill-rule:nonzero;stroke:black;stroke-width:0.8px;"/>
    </g>
    <g transform="matrix(-1,0,0,1,700.925,-28.8968)">
        <path d="M348.712,182.967L352.212,182.967" style="fill:none;fill-rule:nonzero;stroke:black;stroke-width:0.8px;"/>
    </g>
    <g transform="matrix(-1,0,0,1,700.925,-92.9575)">
        <path d="M348.712,214.997L352.212,214.997" style="fill:none;fill-rule:nonzero;stroke:black;stroke-width:0.8px;"/>
    </g>
    <g transform="matrix(-1,0,0,1,700.925,-157.018)">
        <path d="M348.712,247.028L352.212,247.028" style="fill:none;fill-rule:nonzero;stroke:black;stroke-width:0.8px;"/>
    </g>
    <g transform="matrix(-1,0,0,1,700.925,-221.079)">
        <path d="M348.712,279.058L352.212,279.058" style="fill:none;fill-rule:nonzero;stroke:black;stroke-width:0.8px;"/>
    </g>
    <g transform="matrix(-1,0,0,1,700.925,-285.14)">
        <path d="M348.712,311.088L352.212,311.088" style="fill:none;fill-rule:nonzero;stroke:black;stroke-width:0.8px;"/>
    </g>
    <g transform="matrix(1,0,0,1,0,-154.117)">
        <path d="M356.505,276.072L356.608,287.31L356.677,284.711L356.848,265.994L356.883,266.993L357.054,284.911L357.123,283.551L357.157,283.951L357.398,298.228L357.432,298.069L357.501,291.55L357.604,274.232L357.673,278.432L357.81,291.51L357.844,290.95L357.982,282.831L358.051,283.391L358.119,281.951L358.188,279.831L358.222,281.551L358.36,292.629L358.394,290.51L358.463,285.511L358.532,287.87L358.6,289.63L358.635,287.67L358.806,273.592L358.841,273.672L358.978,283.311L359.047,280.471L359.184,275.512L359.631,292.989L359.665,293.389L359.7,293.029L359.803,289.39L359.871,290.75L360.009,297.309L360.043,296.349L360.112,294.189L360.18,295.869L360.215,294.909L360.387,284.111L360.455,285.511L360.696,276.712L360.764,278.632L360.902,285.75L360.971,284.791L361.005,284.991L361.177,298.069L361.245,294.029L361.383,282.471L361.417,283.471L361.555,298.348L361.623,295.749L361.761,287.59L361.795,287.71L361.864,287.39L361.967,289.63L362.001,288.59L362.138,279.631L362.173,280.871L362.379,294.469L362.413,293.829L362.585,290.19L362.654,289.55L362.722,287.75L362.757,287.95L362.894,296.709L362.963,294.829L363.032,291.989L363.1,292.829L363.135,293.069L363.203,289.63L363.306,284.151L363.341,285.191L363.478,291.23L363.513,289.67L363.65,287.11L363.719,288.83L363.822,294.909L363.89,293.949L363.993,295.909L364.028,295.069L364.268,276.472L364.337,279.551L364.612,302.788L364.784,299.388L364.921,293.189L364.955,293.629L364.99,294.029L365.024,293.749L365.127,283.711L365.196,280.031L365.23,282.951L365.368,294.509L365.402,292.789L365.539,285.031L365.574,286.15L365.711,292.229L365.745,291.23L365.78,290.87L365.883,295.309L365.917,294.669L366.02,290.39L366.055,291.63L366.123,294.229L366.158,293.269L366.295,283.711L366.329,284.631L366.536,299.908L366.604,294.269L366.707,283.271L366.742,283.551L366.879,296.189L366.948,292.349L367.051,284.351L367.085,284.751L367.188,286.07L367.223,285.351L367.36,284.671L367.463,289.51L367.532,291.55L367.566,290.59L367.738,274.752L367.807,277.992L367.978,308.427L368.013,306.987L368.15,292.589L368.184,293.429L368.287,300.348L368.322,299.548L368.597,287.51L368.631,287.03L368.665,287.31L368.768,289.99L368.803,289.39L368.871,288.75L368.906,289.07L369.078,292.869L369.112,291.87L369.249,286.95L369.318,287.75L369.421,295.349L369.524,300.828L369.559,300.148L369.799,284.151L369.833,284.191L369.971,287.39L370.005,286.35L370.039,285.431L370.074,285.79L370.211,290.51L370.246,289.19L370.349,283.671L370.383,284.591L370.623,299.668L370.658,298.069L370.864,278.392L370.898,278.672L371.001,284.751L371.139,292.669L371.173,290.95L371.379,277.232L371.448,283.111L371.585,299.948L371.62,298.428L371.894,282.271L371.963,282.111L372.032,283.791L372.204,296.509L372.272,295.589L372.444,289.27L372.513,291.87L372.65,298.268L372.685,297.829L372.788,292.149L372.959,286.83L372.994,286.91L373.165,289.11L373.2,288.47L373.234,288.03L373.303,293.149L373.406,302.228L373.44,301.428L373.681,278.832L373.749,283.631L373.921,297.269L373.956,296.749L374.093,289.03L374.162,290.67L374.23,291.23L374.333,284.551L374.402,281.791L374.436,283.591L374.574,291.47L374.608,289.27L374.746,276.912L374.78,278.072L374.952,289.63L374.986,288.59L375.089,284.191L375.124,285.471L375.261,294.629L375.295,294.109L375.57,279.312L375.604,279.352L375.707,282.031L375.811,286.99L375.879,286.71L376.051,292.109L376.12,293.469L376.188,293.309L376.36,298.228L376.429,296.509L376.463,295.469L376.532,296.509L376.566,296.909L376.601,296.589L376.875,292.509L376.91,292.629L376.944,292.829L377.013,288.27L377.116,280.631L377.15,282.591L377.356,291.15L377.494,293.869L377.528,293.549L377.666,285.87L377.769,286.67L377.837,288.03L377.94,291.83L378.009,291.47L378.043,291.989L378.078,291.91L378.25,279.312L378.318,280.431L378.353,280.591L378.421,279.072L378.456,280.511L378.593,291.55L378.662,290.51L378.696,289.67L378.73,289.99L378.902,298.029L378.971,296.069L379.211,286.43L379.28,280.871L379.589,243.637L379.83,231.839L379.933,223.48L380.07,211.042L380.105,211.402L380.414,236.958L380.482,233.799L380.62,224.64L380.654,225.08L380.792,237.918L380.929,252.276L380.963,250.196L381.101,240.678L381.135,241.518L381.307,248.556L381.376,247.117L381.616,235.558L381.65,237.118L381.925,251.036L381.994,252.596L382.097,265.074L382.2,276.472L382.234,276.352L382.406,266.074L382.475,268.513L382.544,269.713L382.578,269.073L382.715,261.394L382.818,251.236L382.853,251.996L383.059,279.511L383.128,276.432L383.196,273.712L383.231,275.992L383.334,284.751L383.402,283.591L383.746,272.713L383.78,273.392L383.849,275.192L383.883,274.512L383.952,273.312L383.986,274.592L384.227,285.391L384.33,283.791L384.502,279.391L384.536,280.351L384.57,281.111L384.605,280.511L384.708,278.152L384.742,278.752L384.845,280.351L384.879,279.991L384.983,272.193L385.051,269.113L385.086,270.393L385.36,294.549L385.395,294.349L385.498,284.591L385.67,271.753L385.704,272.553L385.738,273.552L385.807,272.753L385.944,262.114L386.013,265.234L386.288,293.509L386.322,293.709L386.494,280.351L386.597,274.912L386.631,275.352L386.769,281.311L386.838,279.152L386.872,278.432L386.906,278.992L387.009,283.071L387.078,282.231L387.112,282.231L387.181,283.511L387.215,282.991L387.318,280.751L387.353,281.951L387.49,292.389L387.559,290.39L387.696,287.75L387.731,287.67L387.799,286.11L387.937,282.111L387.971,282.791L388.005,283.031L388.212,277.792L388.246,278.512L388.521,288.99L388.589,293.229L388.624,291.949L388.796,276.512L388.83,276.592L388.899,280.871L389.036,291.949L389.07,290.79L389.173,285.71L389.208,286.31L389.311,289.19L389.345,288.79L389.62,281.711L389.654,283.591L389.792,298.508L389.826,297.629L390.101,279.431L390.135,278.712L390.238,286.07L390.307,282.191L390.788,183.807L390.822,182.727L390.891,184.007L391.028,187.486L391.063,187.086L391.132,186.446L391.2,189.086L391.338,199.884L391.406,197.565L391.441,196.365L391.475,197.405L392.162,238.718L392.231,236.558L392.334,232.679L392.368,233.359L392.746,252.836L392.849,255.675L392.918,253.876L393.021,247.877L393.055,248.796L393.261,256.275L393.296,255.955L393.433,248.436L393.467,249.436L393.639,265.674L393.708,261.474L393.845,249.196L393.88,251.436L394.086,262.154L394.189,266.074L394.223,265.594L394.361,261.714L394.395,262.754L394.567,271.433L394.601,271.113L394.704,266.634L394.807,262.394L394.876,263.434L394.91,264.074L394.979,263.714L395.013,263.594L395.151,266.634L395.185,265.554L395.322,260.634L395.357,262.074L395.563,283.191L395.632,281.911L395.735,276.912L395.769,277.352L395.906,283.191L395.941,281.751L396.181,261.474L396.216,262.434L396.353,268.193L396.387,268.153L396.456,266.554L396.525,265.154L396.559,266.034L396.662,270.033L396.697,268.993L396.765,265.874L396.8,266.953L397.074,282.991L397.109,281.391L397.281,259.955L397.349,263.834L397.521,277.192L397.59,276.512L397.761,278.752L397.864,276.392L397.933,274.152L397.968,274.872L398.139,282.191L398.208,280.191L398.242,280.031L398.311,281.351L398.448,268.953L398.483,271.793L398.62,284.431L398.655,282.351L398.723,279.391L398.758,280.071L398.929,287.91L398.964,286.95L399.101,275.112L399.204,269.233L399.239,269.753L399.273,269.953L399.342,268.513L399.376,268.713L399.582,284.431L399.651,282.311L399.823,274.632L399.891,271.073L399.926,272.033L400.097,282.391L400.166,281.071L400.2,280.671L400.303,283.551L400.372,282.911L400.441,281.831L400.578,275.352L400.647,275.752L400.75,273.392L400.887,267.833L400.922,268.033L401.059,272.713L401.231,291.91L401.3,288.91L401.574,266.434L401.678,275.552L401.884,287.55L401.918,287.91L402.055,283.511L402.09,283.751L402.158,284.551L402.33,272.153L402.399,276.992L402.536,292.589L402.571,291.39L402.708,281.031L402.777,281.831L402.846,283.351L402.88,283.191L403.189,273.512L403.258,275.152L403.567,293.349L403.601,290.95L403.773,277.072L403.807,277.112L403.91,281.391L403.979,280.351L404.048,277.312L404.117,272.513L404.151,273.192L404.254,278.792L404.288,277.632L404.426,271.473L404.46,272.393L404.701,281.431L404.735,280.591L404.941,270.633L404.975,272.833L405.147,294.189L405.181,292.869L405.388,282.271L405.491,284.271L405.628,293.829L405.662,292.589L405.903,273.592L405.937,273.872L406.006,274.592L406.04,273.792L406.075,273.512L406.143,277.072L406.281,291.47L406.315,290.11L406.418,284.471L406.452,285.99L406.59,295.709L406.624,294.989L406.83,278.872L406.899,282.031L407.036,296.709L407.071,295.749L407.311,276.152L407.346,277.992L407.517,285.71L407.586,284.591L407.655,280.911L407.689,281.191L407.792,286.27L407.861,284.791L407.93,283.671L407.964,284.591L408.136,289.55L408.17,288.67L408.342,283.711L408.376,283.751L408.479,291.07L408.548,287.95L408.685,270.873L408.72,272.233L408.926,288.91L408.96,287.95L409.063,281.231L409.098,281.631L409.235,295.469L409.338,304.028L409.372,302.108L409.51,289.59L409.544,289.95L409.647,294.709L409.682,294.029L409.853,283.111L409.888,284.151L410.025,290.99L410.059,290.55L410.231,278.832L410.3,281.511L410.506,286.83L410.575,288.11L410.712,291.03L410.918,288.63L410.987,291.87L411.09,301.148L411.159,298.828L411.365,277.592L411.399,278.472L411.605,290.55L411.64,289.27L411.743,284.471L411.777,284.711L412.017,291.63L412.052,291.15L412.258,279.671L412.361,280.511L412.43,283.031L412.601,292.309L412.636,290.79L412.911,282.271L412.979,286.47L413.048,292.789L413.117,291.07L413.151,290.11L413.185,290.35L413.289,292.989L413.323,292.189L413.495,286.51L413.563,286.91L413.632,286.67L413.701,289.75L413.872,296.429L413.907,296.189L414.044,288.87L414.079,290.23L414.216,294.989L414.25,294.909L414.422,289.67L414.663,278.432L414.697,277.952L414.731,278.272L414.834,284.271L415.006,293.829L415.04,292.669L415.178,284.391L415.212,284.871L415.35,293.029L415.418,291.989L415.59,284.191L415.624,285.471L415.762,298.189L415.831,294.829L415.934,290.63L415.968,291.07L416.002,291.71L416.037,291.31L416.277,274.592L416.346,277.352L416.483,287.63L416.518,286.15L416.724,278.632L416.758,278.272L416.792,278.792L416.895,289.51L416.999,298.908L417.033,296.629L417.205,278.072L417.239,280.791L417.342,292.189L417.411,290.15L417.479,287.07L417.514,287.91L417.72,297.149L417.754,296.229L417.995,283.711L418.029,284.471L418.063,284.431L418.166,281.391L418.201,282.471L418.338,287.79L418.373,286.95L418.613,281.751L418.785,284.391L418.991,290.71L419.025,290.99L419.094,290.75L419.163,289.63L419.3,286.55L419.334,286.67L419.506,295.789L419.575,291.63L419.712,279.791L419.747,280.951L419.953,290.91L419.987,290.07L420.159,278.792L420.228,281.311L420.331,287.19L420.365,286.07L420.399,285.071L420.434,285.67L420.64,298.628L420.674,296.909L420.915,275.032L420.983,277.552L421.189,285.431L421.224,284.751L421.361,280.831L421.396,281.551L421.567,295.269L421.636,290.51L421.705,288.43L421.739,288.95L421.808,289.83L421.876,291.91L421.911,290.39L422.048,282.871L422.083,284.391L422.289,297.909L422.323,295.949L422.529,285.431L422.564,285.83L422.667,290.23L422.701,289.63L422.804,288.19L422.838,288.39L422.976,295.869L423.01,294.229L423.182,278.512L423.251,280.471L423.388,296.109L423.457,301.588L423.491,300.068L423.731,277.232L423.766,279.312L423.938,298.308L424.006,297.509L424.075,293.949L424.247,283.711L424.384,288.55L424.522,297.029L424.556,295.869L424.693,274.992L424.762,277.992L424.934,292.109L424.968,290.59L425.14,284.591L425.243,288.83L425.312,290.79L425.346,288.75L425.586,273.792L425.621,274.072L425.758,278.512L425.793,277.832L425.93,272.713L425.964,274.192L426.136,289.87L426.17,289.11L426.342,286.23L426.377,286.47L426.548,290.87L426.583,290.35L426.72,278.832L426.789,282.631L426.926,296.349L426.961,295.789L427.27,284.191L427.304,284.831L427.441,301.148L427.51,297.349L427.648,280.911L427.682,281.431L427.888,287.47L427.957,289.15L427.991,289.07L428.094,283.631L428.129,284.831L428.266,293.749L428.3,291.949L428.369,288.51L428.438,289.95L428.575,293.869L428.609,292.989L428.747,284.391L428.816,285.151L428.953,282.591L428.987,283.551L429.159,291.71L429.296,296.469L429.331,296.549L429.434,293.109L429.503,291.07L429.571,291.47L429.606,291.71L429.812,297.469L429.846,297.309L429.88,297.349L429.949,294.869L430.052,286.31L430.087,286.99L430.258,305.707L430.327,299.388L430.499,272.433L430.533,272.953L430.808,292.989L430.877,291.23L431.014,285.151L431.048,286.51L431.117,290.55L431.152,290.19L431.289,282.511L431.323,284.271L431.461,294.909L431.495,294.189L431.598,290.59L431.667,291.67L431.839,295.149L431.942,297.309L431.976,296.989L432.148,281.631L432.216,286.59L432.285,290.79L432.319,289.91L432.388,286.99L432.457,288.43L432.869,293.189L432.938,288.99L433.075,280.351L433.11,280.791L433.281,292.349L433.35,288.07L433.453,280.991L433.487,282.311L433.694,289.27L433.728,290.27L433.762,289.75L434.003,279.192L434.037,279.591L434.071,279.831L434.14,279.671L434.174,279.671L434.278,277.912L434.312,277.992L434.449,286.67L434.552,289.91L434.621,289.83L434.69,291.27L434.724,291.15L434.862,283.831L434.93,285.631L435.068,288.67L435.171,292.749L435.274,296.869L435.308,296.309L435.755,274.512L435.823,276.352L436.029,295.149L436.098,291.19L436.167,287.75L436.201,288.11L436.339,294.669L436.407,293.909L436.476,291.47L436.579,285.75L436.613,287.03L436.751,293.709L436.785,292.669L437.129,279.871L437.197,282.191L437.3,286.79L437.335,286.55L437.438,283.871L437.472,285.311L437.644,292.349L437.678,291.83L437.747,289.27L437.781,290.51L437.919,297.309L437.953,295.829L438.091,284.631L438.159,286.27L438.331,298.428L438.4,296.109L438.709,286.35L438.778,285.071L438.846,283.871L438.881,284.791L439.018,286.67L439.052,286.15L439.19,280.511L439.224,281.711L439.396,288.91L439.43,287.31L439.602,274.872L439.636,277.232L439.911,298.508L439.946,298.069L440.083,289.11L440.152,289.99L440.186,290.95L440.22,290.91L440.358,283.271L440.392,284.151L440.77,296.349L440.804,295.589L441.045,286.27L441.114,285.471L441.182,282.671L441.217,283.391L441.354,291.63L441.423,290.55L441.491,289.43L441.526,289.47L441.629,293.389L441.663,292.549L441.869,276.712L441.938,280.791L442.041,287.39L442.11,286.83L442.144,287.19L442.247,291.83L442.316,290.39L442.35,291.51" style="fill:none;fill-rule:nonzero;stroke:rgb(31,119,180);stroke-width:1.5px;stroke-linecap:square;"/>
    </g>
    <g transform="matrix(0,-1,-1,0,597.789,443.672)">
        <path d="M283.078,245.577L421.347,245.577" style="fill:none;fill-rule:nonzero;stroke:black;stroke-width:0.8px;stroke-linecap:square;stroke-linejoin:miter;"/>
    </g>
    <g transform="matrix(0,-1,-1,0,692.219,538.102)">
        <path d="M377.508,245.577L515.778,245.577" style="fill:none;fill-rule:nonzero;stroke:black;stroke-width:0.8px;stroke-linecap:square;stroke-linejoin:miter;"/>
    </g>
    <g transform="matrix(1,0,0,1,0,-15.8469)">
        <path d="M352.212,176.442L446.643,176.442" style="fill:none;fill-rule:nonzero;stroke:black;stroke-width:0.8px;stroke-linecap:square;stroke-linejoin:miter;"/>
    </g>
    <g transform="matrix(1,0,0,1,0,-292.387)">
        <path d="M352.212,314.712L446.643,314.712" style="fill:none;fill-rule:nonzero;stroke:black;stroke-width:0.8px;stroke-linecap:square;stroke-linejoin:miter;"/>
    </g>
    <g transform="matrix(1,0,0,1,0,151.023)">
        <rect x="48.013" y="23.872" width="94.43" height="138.27" style="fill:white;"/>
    </g>
    <g transform="matrix(0,1,1,0,30.1829,262.61)">
        <path d="M50.555,22.122L54.055,22.122" style="fill:none;fill-rule:nonzero;stroke:black;stroke-width:0.8px;"/>
    </g>
    <g transform="matrix(0,1,1,0,64.5348,228.258)">
        <path d="M84.907,22.122L88.407,22.122" style="fill:none;fill-rule:nonzero;stroke:black;stroke-width:0.8px;"/>
    </g>
    <g transform="matrix(0,1,1,0,98.8867,193.906)">
        <path d="M119.259,22.122L122.759,22.122" style="fill:none;fill-rule:nonzero;stroke:black;stroke-width:0.8px;"/>
    </g>
    <g transform="matrix(-1,0,0,1,92.525,234.494)">
        <path d="M44.513,51.271L48.013,51.271" style="fill:none;fill-rule:nonzero;stroke:black;stroke-width:0.8px;"/>
    </g>
    <g transform="matrix(0.01,0,0,0.01,7.2,283.292)">
        <rect x="106" y="272" width="626" height="83"/>
    </g>
    <g transform="matrix(-1,0,0,1,92.525,176.342)">
        <path d="M44.513,80.347L48.013,80.347" style="fill:none;fill-rule:nonzero;stroke:black;stroke-width:0.8px;"/>
    </g>
    <g transform="matrix(-1,0,0,1,92.525,118.19)">
        <path d="M44.513,109.423L48.013,109.423" style="fill:none;fill-rule:nonzero;stroke:black;stroke-width:0.8px;"/>
    </g>
    <g transform="matrix(-1,0,0,1,92.525,60.0386)">
        <path d="M44.513,138.499L48.013,138.499" style="fill:none;fill-rule:nonzero;stroke:black;stroke-width:0.8px;"/>
    </g>
    <g>
        <clipPath id="_clip1">
            <rect x="48.013" y="174.895" width="94.43" height="138.27" clip-rule="nonzero"/>
        </clipPath>
        <g clip-path="url(#_clip1)">
            <g transform="matrix(1,0,0,1,0,151.027)">
                <path d="M52.305,99.118L52.854,102.224L53.885,108.007L54.4,109.68L54.812,110.384L55.19,110.655L55.603,110.68L56.221,110.454L57.251,109.827L58.935,108.448L59.587,107.598L61.442,104.814L61.786,104.771L62.164,104.965L63.503,105.938L63.813,105.726L64.191,105.152L65.427,103.022L65.702,103.028L65.977,103.308L66.355,104.076L67.557,106.854L67.832,106.928L68.072,106.736L68.416,106.12L69.515,103.886L69.79,103.831L70.03,104.028L70.374,104.65L71.336,106.598L71.507,106.512L71.714,106.015L71.954,104.752L72.263,101.821L72.675,95.367L73.225,82.597L74.462,52.221L74.771,49.367L74.874,49.183L74.908,49.213L75.011,49.59L75.183,51.183L75.458,56.241L75.87,69.064L76.592,100.464L77.416,133.024L77.863,143.016L78.172,146.047L78.344,146.44L78.447,146.276L78.618,145.408L78.928,142.31L79.511,133.389L80.439,119.687L80.954,114.944L81.401,112.679L81.779,111.814L82.5,110.642L82.775,109.259L83.084,106.253L83.428,100.469L83.874,88.52L84.527,63.883L85.317,36.005L85.66,30.557L85.798,30.157L85.901,30.593L86.073,32.766L86.348,39.981L86.76,58.42L88.546,150.303L88.855,155.005L89.061,155.853L89.164,155.675L89.336,154.606L89.645,150.781L90.332,138.312L91.054,126.901L91.603,121.502L92.084,118.736L92.565,117.149L94.18,112.818L95.313,109.025L95.726,108.412L96.035,108.306L96.378,108.456L97.271,108.986L97.581,108.868L97.958,108.457L98.92,107.269L99.195,107.275L99.47,107.531L99.848,108.275L101.325,111.731L101.634,111.808L101.943,111.614L102.424,110.962L103.18,109.971L103.592,109.77L104.142,109.785L104.657,109.725L105.001,109.452L105.447,108.765L106.787,106.469L107.165,106.311L107.508,106.412L108.676,106.969L108.985,106.719L109.363,106.089L110.119,104.239L110.737,103.014L111.115,102.683L111.424,102.698L111.734,102.96L112.18,103.67L113.245,105.452L113.692,105.735L114.138,105.752L115.272,105.676L115.684,105.974L116.165,106.631L117.23,108.172L117.505,108.215L117.745,108.036L118.054,107.492L118.501,106.142L119.875,101.497L120.15,101.323L120.356,101.473L120.631,102.043L121.009,103.433L121.764,107.329L122.451,110.359L122.864,111.335L123.173,111.589L123.413,111.525L123.722,111.16L124.169,110.222L125.2,107.344L126.642,103.6L127.707,101.305L128.119,100.845L128.394,100.796L128.669,100.992L128.978,101.517L129.425,102.785L131.211,108.508L131.52,108.734L131.795,108.674L132.104,108.353L132.62,107.428L133.822,105.184L134.268,104.799L134.612,104.755L135.024,104.947L135.986,105.505L136.364,105.417L136.811,105.05L137.635,104.342L137.978,104.348L138.15,104.453" style="fill:none;fill-rule:nonzero;stroke:rgb(31,119,180);stroke-width:1.5px;stroke-linecap:square;"/>
            </g>
            <g transform="matrix(1,0,0,1,0,154.942)">
                <path d="M48.013,91.047L142.443,91.047" style="fill:none;fill-rule:nonzero;stroke:rgb(255,165,0);stroke-width:1.5px;stroke-dasharray:5.55,2.4;"/>
            </g>
        </g>
    </g>
    <g transform="matrix(0,-1,-1,0,141.019,292.042)">
        <path d="M-21.122,93.007L117.147,93.007" style="fill:none;fill-rule:nonzero;stroke:black;stroke-width:0.8px;stroke-linecap:square;stroke-linejoin:miter;"/>
    </g>
    <g transform="matrix(0,-1,-1,0,235.449,386.472)">
        <path d="M73.308,93.007L211.577,93.007" style="fill:none;fill-rule:nonzero;stroke:black;stroke-width:0.8px;stroke-linecap:square;stroke-linejoin:miter;"/>
    </g>
    <g transform="matrix(1,0,0,1,0,289.293)">
        <path d="M48.013,23.872L142.443,23.872" style="fill:none;fill-rule:nonzero;stroke:black;stroke-width:0.8px;stroke-linecap:square;stroke-linejoin:miter;"/>
    </g>
    <g transform="matrix(1,0,0,1,0,12.7531)">
        <path d="M48.013,162.142L142.443,162.142" style="fill:none;fill-rule:nonzero;stroke:black;stroke-width:0.8px;stroke-linecap:square;stroke-linejoin:miter;"/>
    </g>
    <g transform="matrix(1,0,0,1,0,151.023)">
        <rect x="200.112" y="23.872" width="94.43" height="138.27" style="fill:white;"/>
    </g>
    <g transform="matrix(0,1,1,0,182.283,110.51)">
        <path d="M202.655,22.122L206.155,22.122" style="fill:none;fill-rule:nonzero;stroke:black;stroke-width:0.8px;"/>
    </g>
    <g transform="matrix(0,1,1,0,216.635,76.1583)">
        <path d="M237.007,22.122L240.507,22.122" style="fill:none;fill-rule:nonzero;stroke:black;stroke-width:0.8px;"/>
    </g>
    <g transform="matrix(0,1,1,0,250.987,41.8064)">
        <path d="M271.359,22.122L274.859,22.122" style="fill:none;fill-rule:nonzero;stroke:black;stroke-width:0.8px;"/>
    </g>
    <g transform="matrix(-1,0,0,1,396.725,221.558)">
        <path d="M196.612,57.74L200.112,57.74" style="fill:none;fill-rule:nonzero;stroke:black;stroke-width:0.8px;"/>
    </g>
    <g transform="matrix(-1,0,0,1,396.725,147.931)">
        <path d="M196.612,94.553L200.112,94.553" style="fill:none;fill-rule:nonzero;stroke:black;stroke-width:0.8px;"/>
    </g>
    <g transform="matrix(-1,0,0,1,396.725,74.3039)">
        <path d="M196.612,131.366L200.112,131.366" style="fill:none;fill-rule:nonzero;stroke:black;stroke-width:0.8px;"/>
    </g>
    <g>
        <clipPath id="_clip2">
            <rect x="200.112" y="174.895" width="94.43" height="138.27" clip-rule="nonzero"/>
        </clipPath>
        <g clip-path="url(#_clip2)">
            <g transform="matrix(1,0,0,1,0,151.023)">
                <path d="M204.405,129.844L204.439,130.328L204.473,129.988L204.645,124.528L204.714,126.024L205.023,148.953L205.126,145.426L205.435,117.873L205.504,118.803L205.744,128.171L205.779,127.891L205.916,126.278L205.951,126.616L206.191,133.695L206.26,132.618L206.603,116.332L206.672,117.899L207.325,140.73L207.393,140.031L208.012,124.722L208.287,113.385L208.355,114.212L208.493,120.269L208.871,141.769L208.905,141.43L209.042,135.1L209.248,127.848L209.42,129.99L209.489,129.171L209.764,121.158L209.832,121.599L209.97,126.467L210.21,135.974L210.245,135.701L210.519,128.567L210.588,129.481L210.726,131.766L210.76,131.624L210.863,128.801L211.103,121.749L211.206,123.687L211.619,133.969L211.653,133.835L211.756,130.438L211.997,115.426L212.065,117.238L212.237,137.433L212.374,149.071L212.409,149.04L212.512,142.313L212.855,114.819L212.89,114.859L212.993,117.993L213.336,130.11L213.439,130.589L213.645,133.097L213.714,132.589L213.886,126.841L214.023,123.733L214.058,123.984L214.195,128.63L214.332,132.015L214.367,131.693L214.779,124.413L214.951,122.829L215.02,123.23L215.26,128.88L215.329,128.098L215.466,125.613L215.5,126.157L215.638,136.011L215.81,147.811L215.844,147.223L215.981,136.138L216.256,118.765L216.325,118.058L216.359,118.101L216.462,119.948L216.806,130.423L216.84,130.25L216.978,128.877L217.046,129.212L217.287,134.565L217.321,133.993L217.459,125.913L217.63,116.95L217.665,117.118L217.802,123.012L218.042,130.638L218.214,133.85L218.317,135.49L218.352,135.122L218.455,129.905L218.661,116.016L218.695,116.211L218.833,124.122L218.97,129.724L219.004,129.558L219.142,127.881L219.176,128.417L219.382,136.807L219.451,135.621L219.691,120.807L219.76,122.357L220.035,139.188L220.104,138.093L220.447,129.58L220.585,125.464L220.756,120.256L220.791,120.465L220.894,124.308L221.134,136.412L221.169,136.068L221.272,130.397L221.478,118.077L221.512,118.88L221.787,135.35L221.856,133.58L222.13,121.017L222.165,121.068L222.646,126.988L222.92,134.974L222.955,134.766L223.058,131.971L223.367,118.992L223.401,119.606L223.573,129.768L223.814,139.525L223.848,139.661L223.882,139.614L224.02,138.253L224.26,132.516L224.81,118.251L224.844,118.272L224.947,121.066L225.222,134.015L225.256,133.699L225.531,124.654L225.634,126.209L225.772,128.313L225.806,127.864L225.978,120.46L226.081,118.166L226.115,118.766L226.253,127.413L226.527,141.456L226.63,139.017L226.837,125.27L227.352,80.04L227.386,80.623L227.558,89.904L227.936,118.371L228.176,144.893L228.211,144.639L228.451,133.031L228.52,135.625L228.726,147.072L228.76,146.49L228.932,135.112L229.173,126.311L229.344,123.054L229.379,123.343L229.482,127.831L229.928,155.857L229.997,154.165L230.169,139.283L230.478,117.331L230.512,117.113L230.547,117.577L230.65,123.659L230.959,150.525L230.993,150.074L231.131,142.899L231.543,120.087L231.611,121.107L231.818,132.808L231.989,138.518L232.058,137.2L232.436,123.739L232.505,123.885L232.539,123.935L232.573,123.886L232.711,123.184L232.745,123.385L232.848,127.025L233.089,144.934L233.157,143.612L233.329,122.85L233.535,106.523L233.604,108.471L233.776,125.006L234.05,151.778L234.154,144.054L234.428,116.218L234.463,116.683L234.669,128.47L234.841,132.679L234.909,132.518L234.978,132.276L235.012,132.315L235.115,133.45L235.287,136.111L235.322,135.972L235.425,133.156L235.802,119.639L235.871,120.07L236.009,123.269L236.318,136.447L236.386,135.27L236.627,125.184L236.696,126.651L236.936,135.398L236.97,134.978L237.28,126.532L237.348,127.299L237.554,132.769L237.623,132.051L237.795,121.864L238.07,96.381L238.379,30.157L238.448,34.68L238.654,88.929L238.928,134.04L239.169,143.507L239.856,153.501L239.925,152.745L240.199,143.125L240.303,144.565L240.44,147.28L240.474,146.937L240.612,140.37L240.887,128.52L240.955,128.912L241.402,134.242L241.47,133.758L241.677,128.992L241.745,130.092L241.986,138.176L242.054,137.664L242.501,128.644L242.707,123.157L242.81,124.861L243.119,134.29L243.36,147.05L243.394,146.92L243.497,142.337L243.944,110.832L243.978,111.141L244.116,118.522L244.39,130.96L244.528,132.537L244.768,138.223L244.803,137.594L244.94,128.781L245.112,119.802L245.146,120.684L245.455,139.749L245.524,137.924L245.764,130.029L245.799,130.168L245.936,131.289L245.971,131.08L246.142,126.737L246.211,125.694L246.245,125.816L246.348,128.943L246.555,136.918L246.589,136.902L246.692,133.474L247.001,112.781L247.07,114.373L247.379,139.023L247.482,135.759L247.688,124.123L247.723,124.152L247.826,128.015L248.032,135.398L248.135,132.467L248.513,117.091L248.547,117.093L248.616,118.195L248.753,125.917L248.994,144.143L249.028,143.828L249.131,135.952L249.337,116.418L249.371,116.844L249.509,129.457L249.681,142.85L249.715,142.557L249.852,133.527L250.058,121.905L250.127,123.536L250.368,135.559L250.436,134.389L250.814,117.716L250.883,118.767L251.02,125.718L251.295,142.001L251.329,141.178L251.501,127.742L251.707,118.208L251.81,119.826L252.463,132.462L252.566,131.149L252.635,130.23L252.669,130.263L252.772,133.353L252.944,140.805L252.978,140.695L253.081,136.355L253.288,128.644L253.356,128.809L253.391,128.712L253.459,127.173L253.7,113.92L253.768,115.144L253.94,131.292L254.146,143.847L254.215,142.833L254.421,132.064L254.627,123.637L254.696,124.747L254.833,128.42L254.902,127.726L255.108,119.529L255.177,120.274L255.486,131.307L255.555,131.009L255.623,130.741L255.658,130.771L255.83,131.639L255.898,131.358L256.104,128.187L256.345,121.876L256.448,119.612L256.482,119.718L256.585,123.513L256.998,143.082L257.066,143.645L257.101,143.286L257.204,138.782L257.547,118.737L257.582,118.875L258.166,126.701L258.44,135.947L258.475,135.78L258.681,133.9L258.715,134.027L258.784,134.199L258.853,133.245L258.99,125.182L259.162,114.944L259.196,115.156L259.333,123.342L259.54,133.049L259.574,133.077L259.711,131.518L259.883,126.481L260.055,120.738L260.089,120.913L260.192,125.164L260.398,135.744L260.433,135.676L260.57,130.738L260.708,127.265L260.742,127.565L260.982,133.332L261.051,132.379L261.292,125.013L261.36,125.651L261.635,134.927L261.704,134.278L262.391,115.048L262.46,116.265L262.631,128.866L262.803,137.272L262.837,136.997L263.181,128.839L263.284,129.07L263.387,130.064L263.593,133.079L263.627,132.663L263.765,125.8L264.005,112.836L264.074,114.725L264.418,129.922L264.452,129.881L264.521,130.476L264.761,138.678L264.83,137.198L265.07,125.665L265.139,126.988L265.379,135.622L265.414,135.503L265.517,132.441L265.826,117.525L265.895,118.474L266.204,128.673L266.273,127.962L266.376,126.686L266.41,126.695L266.513,128.815L266.754,136.468L266.788,136.294L266.925,132.223L267.097,128.345L267.131,128.394L267.234,128.827L267.269,128.635L267.406,125.051L267.544,122.175L267.578,122.457L267.818,126.985L267.853,126.688L267.99,125.364L268.025,125.796L268.162,132.083L268.334,139.198L268.368,138.676L268.505,128.541L268.712,112.311L268.746,112.556L268.883,121.331L269.158,135.656L269.33,138.057L269.364,138.015L269.467,135.774L269.742,124.938L269.811,125.497L270.051,133.674L270.12,133.079L270.395,123.714L270.464,124.945L270.67,130.526L270.704,130.222L270.841,124.998L270.944,121.783L270.979,121.958L271.082,126.905L271.254,135.641L271.288,134.946L271.528,122.104L271.597,124.979L271.803,136.472L271.838,135.531L272.078,122.571L272.147,123.897L272.284,127.848L272.319,127.706L272.525,121.578L272.593,122.587L272.834,132.313L272.903,131.823L273.109,124.83L273.383,115.429L273.418,115.682L273.555,120.97L273.967,141.818L274.002,141.599L274.139,136.904L274.448,126.22L274.483,126.327L274.586,129.104L274.758,135.455L274.792,135.438L274.895,132.099L275.067,126.864L275.101,127.148L275.238,129.374L275.273,129.176L275.41,124.009L275.548,120.645L275.582,121.197L276.063,132.716L276.097,132.775L276.132,132.726L276.235,131.595L276.441,124.935L276.613,120.545L276.647,120.721L276.75,124.169L277.059,140.069L277.093,139.654L277.403,129.177L277.506,130.212L277.574,130.653L277.609,130.439L277.815,126.389L277.918,127.281L277.987,128.01L278.021,127.726L278.124,122.575L278.296,110.389L278.33,110.503L278.433,118.338L278.674,138.282L278.777,133.972L278.983,125.898L279.052,126.871L279.361,135.24L279.429,134.997L279.601,132.349L279.807,123.958L279.979,119.146L280.082,122.04L280.391,132.727L280.426,132.813L280.46,132.657L280.563,130.573L280.838,120.303L280.907,121.114L281.181,128.687L281.216,128.534L281.353,127.857L281.387,127.996L281.49,128.443L281.525,128.245L281.628,125.762L281.834,119.473L281.868,119.58L281.971,122.441L282.349,139.782L282.418,138.716L282.727,126.865L282.796,128.436L283.002,135.76L283.036,135.63L283.139,131.581L283.449,113.822L283.483,114.288L283.586,120.149L283.895,141.581L283.998,138.38L284.342,126.661L284.41,126.296L284.479,126.382L284.513,126.435L284.548,126.379L284.651,124.842L284.857,119.123L284.926,119.685L285.097,127.39L285.372,135.79L285.51,136.686L285.544,136.524L285.647,134.454L285.922,125.956L285.956,126.446L286.162,132.659L286.231,131.956L286.575,118.273L286.643,119.275L287.09,127.441L287.124,127.463L287.227,126.364L287.33,125.254L287.365,125.586L287.468,130.189L287.674,143.379L287.708,143.34L287.811,137.851L288.086,119.598L288.12,119.663L288.223,122.883L288.498,135.804L288.533,135.696L288.636,131.873L288.876,120.527L288.911,120.777L289.048,126.352L289.254,133.68L289.323,132.629L289.632,118.524L289.735,121.319L290.078,139.279L290.113,139.114L290.25,136.06" style="fill:none;fill-rule:nonzero;stroke:rgb(31,119,180);stroke-width:1.5px;stroke-linecap:square;"/>
            </g>
            <g transform="matrix(1,0,0,1,0,163.923)">
                <path d="M200.112,86.557L294.543,86.557" style="fill:none;fill-rule:nonzero;stroke:rgb(255,165,0);stroke-width:1.5px;stroke-dasharray:5.55,2.4;"/>
            </g>
        </g>
    </g>
    <g transform="matrix(0,-1,-1,0,293.119,444.142)">
        <path d="M130.978,93.007L269.247,93.007" style="fill:none;fill-rule:nonzero;stroke:black;stroke-width:0.8px;stroke-linecap:square;stroke-linejoin:miter;"/>
    </g>
    <g transform="matrix(0,-1,-1,0,387.549,538.572)">
        <path d="M225.408,93.007L363.678,93.007" style="fill:none;fill-rule:nonzero;stroke:black;stroke-width:0.8px;stroke-linecap:square;stroke-linejoin:miter;"/>
    </g>
    <g transform="matrix(1,0,0,1,0,289.293)">
        <path d="M200.112,23.872L294.543,23.872" style="fill:none;fill-rule:nonzero;stroke:black;stroke-width:0.8px;stroke-linecap:square;stroke-linejoin:miter;"/>
    </g>
    <g transform="matrix(1,0,0,1,0,12.7531)">
        <path d="M200.112,162.142L294.543,162.142" style="fill:none;fill-rule:nonzero;stroke:black;stroke-width:0.8px;stroke-linecap:square;stroke-linejoin:miter;"/>
    </g>
    <g transform="matrix(1,0,0,1,0,151.023)">
        <rect x="352.212" y="23.872" width="94.43" height="138.27" style="fill:white;"/>
    </g>
    <g transform="matrix(0,1,1,0,334.383,-41.5898)">
        <path d="M354.755,22.122L358.255,22.122" style="fill:none;fill-rule:nonzero;stroke:black;stroke-width:0.8px;"/>
    </g>
    <g transform="matrix(0,1,1,0,368.735,-75.9417)">
        <path d="M389.107,22.122L392.607,22.122" style="fill:none;fill-rule:nonzero;stroke:black;stroke-width:0.8px;"/>
    </g>
    <g transform="matrix(0,1,1,0,403.087,-110.294)">
        <path d="M423.459,22.122L426.959,22.122" style="fill:none;fill-rule:nonzero;stroke:black;stroke-width:0.8px;"/>
    </g>
    <g transform="matrix(-1,0,0,1,700.925,254.169)">
        <path d="M348.712,41.434L352.212,41.434" style="fill:none;fill-rule:nonzero;stroke:black;stroke-width:0.8px;"/>
    </g>
    <g transform="matrix(0.01,0,0,0.01,305.041,293.13)">
        <rect x="106" y="272" width="626" height="83"/>
    </g>
    <g transform="matrix(-1,0,0,1,700.925,183.086)">
        <path d="M348.712,76.975L352.212,76.975" style="fill:none;fill-rule:nonzero;stroke:black;stroke-width:0.8px;"/>
    </g>
    <g transform="matrix(-1,0,0,1,700.925,112.003)">
        <path d="M348.712,112.517L352.212,112.517" style="fill:none;fill-rule:nonzero;stroke:black;stroke-width:0.8px;"/>
    </g>
    <g transform="matrix(-1,0,0,1,700.925,40.9199)">
        <path d="M348.712,148.058L352.212,148.058" style="fill:none;fill-rule:nonzero;stroke:black;stroke-width:0.8px;"/>
    </g>
    <g>
        <clipPath id="_clip3">
            <rect x="352.212" y="174.895" width="94.43" height="138.27" clip-rule="nonzero"/>
        </clipPath>
        <g clip-path="url(#_clip3)">
            <g transform="matrix(1,0,0,1,0,151.023)">
                <path d="M356.505,131.893L356.539,133.668L356.745,81.413L356.814,96.169L356.951,136.774L356.986,131.005L357.089,105.266L357.123,107.818L357.226,127.344L357.261,123.794L357.535,70.984L357.57,80.637L357.707,135.554L357.741,128.232L357.913,94.283L357.948,101.272L358.016,110.592L358.051,109.26L358.119,101.605L358.154,103.158L358.257,129.896L358.291,127.344L358.394,94.948L358.463,104.49L358.532,119.134L358.566,113.92L358.669,88.181L358.738,94.394L358.909,126.789L358.944,122.574L359.047,96.834L359.116,102.049L359.253,125.236L359.322,115.695L359.39,113.698L359.459,108.373L359.493,111.146L359.562,119.245L359.596,119.023L359.768,101.605L359.803,106.265L359.94,120.688L360.043,102.604L360.112,109.149L360.146,113.698L360.18,108.706L360.283,91.842L360.318,95.503L360.421,112.921L360.455,107.263L360.524,98.055L360.558,100.607L360.73,114.364L360.799,121.797L360.833,121.242L360.936,106.376L360.971,107.596L361.074,129.23L361.142,120.133L361.28,87.848L361.314,89.845L361.486,135.554L361.52,129.23L361.658,91.509L361.692,95.614L361.864,112.145L361.898,114.807L361.932,112.145L362.07,93.506L362.104,99.053L362.207,128.121L362.276,121.464L362.448,102.049L362.516,106.598L362.585,107.818L362.619,107.263L362.688,104.046L362.722,107.152L362.826,124.571L362.86,120.798L362.963,99.164L363.032,106.598L363.1,111.701L363.135,107.152L363.203,94.172L363.238,95.503L363.375,121.131L363.444,113.698L363.513,100.385L363.547,102.936L363.753,122.685L363.787,119.245L363.856,106.376L363.925,112.921L363.959,113.254L364.131,85.296L364.165,90.4L364.371,132.559L364.406,131.005L364.818,96.724L364.852,98.388L364.955,111.368L364.99,109.371L365.093,85.851L365.161,98.831L365.265,134.666L365.299,127.011L365.436,92.84L365.471,95.725L365.642,119.911L365.745,105.266L365.78,111.923L365.814,118.912L365.848,117.47L365.952,99.053L365.986,102.16L366.055,117.248L366.123,108.816L366.192,90.289L366.226,92.508L366.432,129.674L366.467,126.346L366.639,84.631L366.673,91.62L366.81,131.671L366.845,125.347L366.948,89.512L367.016,98.055L367.12,112.589L367.154,110.703L367.223,105.599L367.257,107.818L367.36,110.813L367.429,120.244L367.463,119.245L367.669,87.626L367.703,93.284L367.875,155.857L367.91,146.094L368.047,83.632L368.116,94.505L368.219,123.572L368.253,120.909L368.356,96.613L368.425,98.277L368.631,108.484L368.7,115.584L368.734,113.143L368.803,106.487L368.871,109.038L368.94,114.253L369.009,113.92L369.112,102.271L369.146,100.274L369.181,101.05L369.421,126.235L369.455,121.908L369.627,92.064L369.696,95.17L369.902,115.14L369.936,113.143L370.005,103.602L370.039,107.485L370.142,117.803L370.177,114.364L370.28,96.834L370.314,100.052L370.452,126.9L370.486,122.906L370.623,105.599L370.726,79.527L370.761,86.184L371.001,124.46L371.07,122.019L371.207,89.401L371.31,99.719L371.379,112.7L371.482,139.659L371.517,135.665L371.688,87.737L371.723,94.061L371.894,107.041L371.997,113.698L372.101,127.455L372.135,124.682L372.375,99.386L372.444,109.26L372.547,121.353L372.581,119.245L372.788,94.837L372.822,98.831L372.994,110.37L373.062,112.7L373.097,112.367L373.2,106.043L373.303,133.113L373.372,120.909L373.543,82.079L373.578,87.626L373.749,128.786L373.852,123.239L373.921,111.59L374.024,95.725L374.059,100.385L374.127,113.587L374.196,110.592L374.299,93.839L374.368,101.383L374.471,124.016L374.505,123.017L374.643,86.406L374.711,97.389L374.849,128.01L374.883,122.352L375.02,98.721L375.055,101.605L375.192,124.127L375.227,120.244L375.33,92.73L375.398,97.944L375.742,120.355L375.845,108.262L375.914,113.032L375.982,115.251L376.017,117.47L376.051,117.359L376.154,108.595L376.188,111.479L376.291,115.473L376.326,115.251L376.429,102.16L376.463,106.819L376.532,112.367L376.566,109.26L376.669,105.488L376.704,105.821L376.91,109.926L377.013,88.07L377.082,99.719L377.185,125.014L377.219,122.463L377.322,109.26L377.356,112.367L377.391,113.698L377.425,113.254L377.494,109.038L377.597,95.17L377.631,100.052L377.803,112.81L377.872,118.691L377.906,114.586L377.975,108.04L378.009,111.035L378.043,110.259L378.146,87.404L378.181,93.839L378.284,112.145L378.318,111.701L378.387,104.822L378.421,111.257L378.49,129.008L378.524,126.678L378.662,104.157L378.696,107.596L378.834,120.355L378.868,117.803L379.005,96.613L379.04,98.277L379.177,108.04L379.211,105.266L379.314,73.425L379.383,83.188L379.452,93.284L379.521,91.731L379.555,91.731L379.589,91.953L379.624,91.509L379.658,91.842L379.761,108.151L379.83,103.269L379.933,85.185L380.001,90.843L380.173,135.665L380.276,124.127L380.517,94.394L380.585,98.277L380.826,138.66L380.929,104.268L380.998,89.179L381.032,92.951L381.238,119.578L381.513,97.833L381.547,98.166L381.719,127.233L381.788,118.136L381.856,111.368L381.925,111.923L381.994,118.358L382.097,140.547L382.131,135.443L382.303,91.731L382.337,94.394L382.475,116.694L382.509,112.367L382.75,87.404L382.818,104.601L382.921,142.987L382.956,141.767L383.128,95.836L383.196,114.475L383.265,128.675L383.299,123.35L383.437,103.713L383.505,105.599L383.54,105.044L383.643,98.61L383.677,98.942L383.78,114.697L383.849,108.373L383.883,104.268L383.918,105.71L384.021,123.017L384.055,120.688L384.295,105.599L384.364,102.936L384.433,103.824L384.536,113.809L384.57,109.482L384.639,102.715L384.673,106.154L384.776,112.81L384.811,111.701L384.948,90.954L385.017,100.496L385.154,136.442L385.223,130.34L385.463,86.849L385.498,88.736L385.704,114.031L385.738,111.59L385.876,91.176L385.91,91.842L386.082,141.878L386.116,134.777L386.357,96.613L386.425,92.397L386.46,92.84L386.528,96.391L386.7,119.8L386.734,116.804L386.803,103.047L386.872,108.595L386.941,117.692L386.975,116.472L387.044,106.709L387.112,111.146L387.147,112.589L387.25,103.602L387.284,106.043L387.422,125.458L387.456,122.241L387.559,99.719L387.628,106.154L387.696,108.706L387.731,107.596L387.834,101.272L387.868,101.383L387.971,111.59L388.005,107.374L388.074,102.049L388.109,103.38L388.212,110.148L388.246,113.698L388.349,109.038L388.383,111.701L388.486,124.571L388.521,124.016L388.589,110.037L388.658,86.073L388.727,92.73L388.933,132.115L388.967,126.235L389.105,97.056L389.139,100.828L389.242,115.584L389.277,113.698L389.345,106.154L389.414,107.707L389.483,104.822L389.551,98.499L389.586,101.383L389.723,134.223L389.757,126.346L389.895,86.295L389.929,93.95L389.998,105.377L390.032,103.158L390.067,99.497L390.101,101.827L390.204,124.127L390.238,115.362L390.41,30.157L390.479,44.912L390.719,104.157L390.788,101.716L390.891,116.804L390.96,113.254L391.063,106.376L391.097,107.263L391.269,126.568L391.303,122.13L391.406,100.274L391.441,108.595L391.509,120.577L391.578,120.355L391.647,126.678L391.681,124.571L391.819,107.929L391.853,109.482L392.025,136.331L392.059,135.554L392.265,100.718L392.334,108.484L392.471,129.008L392.506,127.677L392.609,111.035L392.677,112.256L392.746,111.479L392.815,115.473L392.849,112.256L392.952,94.616L392.987,100.274L393.09,120.909L393.124,119.134L393.364,95.17L393.467,119.245L393.57,131.782L393.605,124.792L393.742,85.518L393.777,89.401L393.914,129.119L393.983,116.028L394.017,110.703L394.086,116.028L394.12,117.692L394.154,115.473L394.292,102.271L394.326,104.046L394.464,123.572L394.498,118.025L394.704,98.388L394.807,106.709L394.876,113.365L394.91,110.592L394.979,107.929L395.013,110.592L395.082,114.586L395.116,112.921L395.219,99.386L395.254,100.718L395.357,123.794L395.426,136.996L395.46,132.559L395.666,98.277L395.7,100.385L395.838,120.909L395.872,114.697L396.009,84.409L396.044,84.52L396.25,120.355L396.319,113.698L396.456,102.382L396.49,105.155L396.593,117.914L396.628,116.028L396.697,99.941L396.765,109.593L396.834,120.688L396.903,118.58L397.006,123.905L397.074,107.263L397.177,77.53L397.212,81.635L397.418,127.677L397.487,118.469L397.555,107.152L397.624,112.034L397.761,108.373L397.864,101.494L397.899,102.825L398.036,120.022L398.071,119.023L398.174,103.491L398.208,105.71L398.277,112.7L398.38,84.852L398.414,94.616L398.517,135.887L398.552,130.34L398.655,97.611L398.689,100.828L398.792,123.128L398.861,116.694L399.067,88.292L399.101,89.068L399.239,111.035L399.307,105.044L399.342,107.041L399.445,131.227L399.479,127.788L399.651,102.604L399.685,104.49L399.719,104.933L399.823,92.619L399.857,99.164L399.994,122.685L400.029,122.13L400.166,104.822L400.2,110.592L400.235,115.473L400.303,109.815L400.475,96.28L400.51,97.611L400.613,110.148L400.647,108.04L400.784,99.164L400.819,100.496L401.162,136.331L401.197,130.783L401.403,87.959L401.437,86.406L401.574,113.698L401.678,130.783L401.712,128.454L401.952,100.718L401.987,101.494L402.09,111.59L402.124,111.257L402.262,91.065L402.296,96.169L402.433,139.326L402.468,134.223L402.639,91.176L402.674,97.389L402.811,113.254L402.949,95.947L403.017,101.938L403.086,109.26L403.155,106.598L403.464,127.122L403.498,124.571L403.636,88.292L403.704,94.394L403.842,117.914L403.91,110.703L404.048,93.617L404.082,95.725L404.185,121.464L404.22,118.691L404.323,96.391L404.357,98.721L404.529,119.467L404.563,117.47L404.872,97.278L404.907,100.607L405.044,143.764L405.078,134.888L405.216,89.29L405.25,90.511L405.422,111.701L405.491,117.803L405.559,125.347L405.594,121.02L405.731,86.739L405.765,89.29L405.937,111.368L406.006,107.263L406.04,106.043L406.212,134.556L406.246,123.461L406.349,94.948L406.384,100.828L406.487,125.569L406.521,124.792L406.727,88.957L406.796,96.834L406.933,135.11L406.968,133.779L407.14,85.296L407.208,90.511L407.38,123.794L407.414,120.466L407.62,98.831L407.723,120.133L407.792,110.813L407.861,103.713L407.895,105.932L408.067,115.14L408.101,114.807L408.204,99.608L408.239,101.383L408.445,125.014L408.582,79.638L408.651,91.065L408.754,127.122L408.823,124.903L408.857,125.125L408.926,110.481L408.995,93.617L409.029,98.277L409.235,133.002L409.304,120.688L409.407,84.852L409.441,89.068L409.578,119.578L409.613,117.914L409.75,92.064L409.785,95.392L409.956,119.578L409.991,117.581L410.162,92.619L410.197,98.277L410.3,119.134L410.369,115.806L410.472,110.148L410.506,110.37L410.609,115.806L410.643,112.81L410.746,106.487L410.815,107.485L410.884,106.487L411.021,128.786L411.056,125.125L411.227,81.746L411.262,83.632L411.468,124.903L411.537,121.242L411.674,97.611L411.708,101.605L411.846,117.803L411.88,115.473L412.189,93.839L412.43,121.02L412.498,123.683L412.842,98.166L412.876,98.942L412.979,128.675L413.048,115.251L413.117,102.16L413.151,107.041L413.22,115.806L413.254,112.7L413.392,99.386L413.426,102.604L413.529,110.148L413.563,109.593L413.598,108.373L413.632,111.035L413.701,122.019L413.769,118.691L413.976,93.95L414.01,101.383L414.079,117.803L414.147,115.917L414.422,95.725L414.456,97.944L414.525,105.488L414.56,102.493L414.628,97.389L414.663,102.825L414.834,123.017L414.869,121.131L414.972,117.692L415.075,93.728L415.109,96.058L415.281,122.574L415.315,120.909L415.487,96.724L415.521,98.499L415.693,130.894L415.727,123.572L415.831,95.17L415.865,98.388L415.968,112.034L416.002,109.704L416.105,90.289L416.174,95.059L416.311,116.694L416.38,130.562L416.415,127.344L416.552,94.948L416.586,98.499L416.895,136.442L416.964,121.02L417.102,80.748L417.136,86.96L417.273,134.666L417.308,127.011L417.411,98.166L417.445,100.496L417.548,118.136L417.617,116.915L417.651,119.245L417.686,117.692L417.823,93.617L417.857,95.725L418.029,111.035L418.098,100.607L418.132,104.822L418.27,119.467L418.407,102.493L418.441,103.935L418.819,120.133L418.854,119.356L418.957,109.149L419.025,109.482L419.197,102.271L419.231,104.933L419.403,121.908L419.472,118.025L419.609,85.962L419.644,91.287L419.781,121.353L419.85,117.47L419.884,118.247L419.953,108.927L420.056,94.505L420.09,95.392L420.159,106.265L420.262,124.016L420.296,116.472L420.365,103.158L420.399,107.929L420.502,125.347L420.537,125.125L420.64,104.822L420.743,86.849L420.777,87.071L420.88,98.942L420.983,119.134L421.052,114.697L421.121,118.247L421.155,116.028L421.258,100.163L421.292,102.604L421.464,132.226L421.499,128.786L421.636,95.725L421.67,103.269L421.808,114.475L421.842,114.807L421.945,92.951L421.98,96.724L422.186,125.791L422.254,115.473L422.357,92.619L422.392,96.945L422.598,119.911L422.632,115.806L422.701,106.043L422.77,106.376L422.838,113.92L422.907,123.239L422.941,118.136L423.079,86.406L423.113,90.622L423.354,137.44L423.388,135.443L423.56,81.191L423.628,88.403L423.835,138.993L423.869,131.671L424.075,91.953L424.109,88.403L424.144,93.173L424.35,116.915L424.419,119.689L424.453,123.128L424.487,121.908L424.625,74.867L424.659,81.524L424.796,131.671L424.831,130.562L425.003,97.278L425.071,104.712L425.243,120.466L425.277,114.475L425.38,94.394L425.415,95.947L425.518,97.389L425.655,117.359L425.724,113.032L425.861,100.163L425.896,101.827L426.033,134.777L426.067,127.455L426.17,104.268L426.239,106.487L426.308,106.265L426.411,116.028L426.48,113.254L426.548,108.595L426.651,88.625L426.686,92.064L426.823,137.107L426.858,130.34L426.995,101.383L427.029,103.047L427.064,106.043L427.098,105.377L427.167,96.724L427.201,99.275L427.304,118.358L427.373,136.22L427.407,134.112L427.545,76.532L427.579,83.965L427.716,119.911L427.751,117.692L427.854,110.703L427.888,112.589L427.922,113.698L428.025,97.278L428.06,98.721L428.163,127.233L428.197,124.792L428.3,97.833L428.369,106.709L428.506,115.917L428.575,108.04L428.644,92.286L428.678,93.728L428.781,111.146L428.816,107.596L428.884,103.38L428.919,106.043L429.125,122.574L429.159,124.903L429.193,121.02L429.4,101.05L429.434,100.385L429.674,119.578L429.709,114.697L429.846,108.706L429.88,107.707L429.984,90.511L430.018,94.394L430.19,135.887L430.224,126.789L430.396,70.652L430.602,127.566L430.705,125.68L430.945,98.388L430.98,100.939L431.083,120.244L431.117,112.478L431.22,94.948L431.255,101.272L431.358,128.565L431.392,126.9L431.529,101.605L431.564,102.715L431.701,116.361L431.735,113.587L431.804,109.926L431.839,111.923L431.873,113.143L431.907,113.032L431.976,101.161L432.045,84.742L432.079,86.96L432.216,125.236L432.251,120.688L432.354,100.939L432.388,107.485L432.457,113.032L432.491,110.259L432.526,110.481L432.594,116.804L432.629,112.81L432.697,107.152L432.732,109.482L432.8,111.812L432.835,110.924L432.938,89.956L433.007,96.945L433.178,127.455L433.213,126.568L433.384,91.62L433.419,98.942L433.522,119.134L433.556,113.809L433.59,109.926L433.625,112.81L433.659,117.359L433.694,116.694L433.831,96.28L433.865,98.499L434.037,110.813L434.14,109.26L434.243,105.377L434.278,107.818L434.415,123.128L434.449,120.133L434.587,108.816L434.621,111.368L434.655,113.032L434.69,110.703L434.793,95.725L434.827,100.496L434.896,114.031L434.965,111.479L435.171,119.8L435.205,119.023L435.411,94.172L435.445,98.055L435.514,112.478L435.583,105.155L435.652,89.623L435.72,97.722L435.926,134.445L436.098,95.503L436.167,107.041L436.27,121.464L436.304,115.695L436.51,95.836L436.648,123.794L436.717,112.81L436.82,100.274L436.854,104.601L436.888,106.93L436.923,103.047L436.991,97.389L437.026,99.83L437.129,110.148L437.232,120.133L437.266,116.028L437.369,101.827L437.404,104.933L437.575,119.023L437.61,117.47L437.713,101.938L437.747,109.926L437.816,122.241L437.85,120.355L438.022,90.178L438.056,95.614L438.228,126.678L438.262,125.791L438.434,100.385L438.468,101.827L438.537,109.371L438.572,107.374L438.64,98.499L438.675,100.718L438.881,113.476L439.018,108.04L439.121,97.5L439.155,104.046L439.293,119.8L439.362,113.032L439.499,89.956L439.533,91.953L439.705,129.008L439.739,128.232L440.014,93.95L440.049,98.942L440.152,113.698L440.186,111.59L440.255,93.617L440.323,103.269L440.427,114.918L440.461,112.367L440.495,109.26L440.53,110.148L440.633,121.353L440.667,120.798L440.873,94.948L440.907,99.386L440.976,107.596L441.045,107.263L441.079,106.819L441.148,101.272L441.182,107.707L441.285,123.572L441.32,117.581L441.423,105.155L441.457,105.932L441.56,117.803L441.594,116.25L441.732,89.179L441.801,93.728L441.938,126.678L442.007,117.914L442.075,107.485L442.11,108.706L442.178,119.578L442.213,117.47L442.282,105.044L442.316,110.259L442.35,116.583" style="fill:none;fill-rule:nonzero;stroke:rgb(31,119,180);stroke-width:1.5px;stroke-linecap:square;"/>
            </g>
            <g transform="matrix(1,0,0,1,0,80.6511)">
                <path d="M352.212,128.193L446.643,128.193" style="fill:none;fill-rule:nonzero;stroke:rgb(255,165,0);stroke-width:1.5px;stroke-dasharray:5.55,2.4;"/>
            </g>
        </g>
    </g>
    <g transform="matrix(0,-1,-1,0,445.219,596.242)">
        <path d="M283.078,93.007L421.347,93.007" style="fill:none;fill-rule:nonzero;stroke:black;stroke-width:0.8px;stroke-linecap:square;stroke-linejoin:miter;"/>
    </g>
    <g transform="matrix(0,-1,-1,0,539.649,690.673)">
        <path d="M377.508,93.007L515.778,93.007" style="fill:none;fill-rule:nonzero;stroke:black;stroke-width:0.8px;stroke-linecap:square;stroke-linejoin:miter;"/>
    </g>
    <g transform="matrix(1,0,0,1,0,289.293)">
        <path d="M352.212,23.872L446.643,23.872" style="fill:none;fill-rule:nonzero;stroke:black;stroke-width:0.8px;stroke-linecap:square;stroke-linejoin:miter;"/>
    </g>
    <g transform="matrix(1,0,0,1,0,12.7531)">
        <path d="M352.212,162.142L446.643,162.142" style="fill:none;fill-rule:nonzero;stroke:black;stroke-width:0.8px;stroke-linecap:square;stroke-linejoin:miter;"/>
    </g>
</svg>
