<?xml version="1.0" encoding="UTF-8" standalone="no"?>
<!DOCTYPE svg PUBLIC "-//W3C//DTD SVG 1.1//EN" "http://www.w3.org/Graphics/SVG/1.1/DTD/svg11.dtd">
<svg width="100%" height="100%" viewBox="0 0 455 338" version="1.1" xmlns="http://www.w3.org/2000/svg" xmlns:xlink="http://www.w3.org/1999/xlink" xml:space="preserve" xmlns:serif="http://www.serif.com/" style="fill-rule:evenodd;clip-rule:evenodd;stroke-linejoin:round;stroke-miterlimit:10;">
    <rect x="0" y="0" width="454.744" height="337.037" style="fill:white;"/>
    <g transform="matrix(1,0,0,1,0,-155.651)">
        <rect x="48.013" y="177.976" width="86.464" height="136.736" style="fill:white;"/>
    </g>
    <g transform="matrix(0,1,1,0,-124.283,108.868)">
        <path d="M50.193,176.226L53.693,176.226" style="fill:none;fill-rule:nonzero;stroke:black;stroke-width:0.8px;"/>
    </g>
    <g transform="matrix(0,1,1,0,-45.601,30.1863)">
        <path d="M128.875,176.226L132.375,176.226" style="fill:none;fill-rule:nonzero;stroke:black;stroke-width:0.8px;"/>
    </g>
    <g transform="matrix(-1,0,0,1,92.525,-40.7596)">
        <path d="M44.513,188.898L48.013,188.898" style="fill:none;fill-rule:nonzero;stroke:black;stroke-width:0.8px;"/>
    </g>
    <text x="34.653px" y="151.936px" style="font-family:'Roboto-Regular', 'Roboto';font-size:10px;">5</text>
    <text x="28.294px" y="124.996px" style="font-family:'Roboto-Regular', 'Roboto';font-size:10px;">1<tspan x="34.654px " y="124.996px ">0</tspan></text>
    <text x="28.294px" y="98.057px" style="font-family:'Roboto-Regular', 'Roboto';font-size:10px;">1<tspan x="34.654px " y="98.057px ">5</tspan></text>
    <text x="28.294px" y="71.118px" style="font-family:'Roboto-Regular', 'Roboto';font-size:10px;">2<tspan x="34.654px " y="71.118px ">0</tspan></text>
    <text x="28.294px" y="44.178px" style="font-family:'Roboto-Regular', 'Roboto';font-size:10px;">2<tspan x="34.654px " y="44.178px ">5</tspan></text>
    <g>
        <text x="35.69px" y="16.325px" style="font-family:'Roboto-Regular', 'Roboto';font-size:12px;">H<tspan x="45.006px 52.295px 59.678px " y="16.325px 16.325px 16.325px ">ann</tspan></text>
        <text x="71.102px" y="16.325px" style="font-family:'Roboto-Regular', 'Roboto';font-size:12px;">w<tspan x="80.881px 84.555px 91.937px 99.467px 107.072px 116.851px " y="16.325px 16.325px 16.325px 16.325px 16.325px 16.325px ">indow:</tspan></text>
        <text x="123.845px" y="16.325px" style="font-family:'Roboto-Regular', 'Roboto';font-size:12px;">1<tspan x="131.345px 138.845px " y="16.325px 16.325px ">50</tspan></text>
    </g>
    <text x="186.753px" y="147.052px" style="font-family:'Roboto-Regular', 'Roboto';font-size:10px;">5</text>
    <text x="180.394px" y="122.425px" style="font-family:'Roboto-Regular', 'Roboto';font-size:10px;">1<tspan x="186.754px " y="122.425px ">0</tspan></text>
    <text x="180.394px" y="97.798px" style="font-family:'Roboto-Regular', 'Roboto';font-size:10px;">1<tspan x="186.754px " y="97.798px ">5</tspan></text>
    <text x="180.394px" y="73.171px" style="font-family:'Roboto-Regular', 'Roboto';font-size:10px;">2<tspan x="186.754px " y="73.171px ">0</tspan></text>
    <text x="180.394px" y="48.544px" style="font-family:'Roboto-Regular', 'Roboto';font-size:10px;">2<tspan x="186.754px " y="48.544px ">5</tspan></text>
    <g>
        <text x="191.61px" y="16.325px" style="font-family:'Roboto-Regular', 'Roboto';font-size:12px;">H<tspan x="200.915px 208.193px 215.565px " y="16.325px 16.325px 16.325px ">ann</tspan></text>
        <text x="227.022px" y="16.325px" style="font-family:'Roboto-Regular', 'Roboto';font-size:12px;">w<tspan x="236.79px 240.453px 247.825px 255.343px 262.937px 272.705px " y="16.325px 16.325px 16.325px 16.325px 16.325px 16.325px ">indow:</tspan></text>
        <text x="279.766px" y="16.325px" style="font-family:'Roboto-Regular', 'Roboto';font-size:12px;">2<tspan x="287.255px " y="16.325px ">0</tspan></text>
    </g>
    <text x="338.853px" y="147.052px" style="font-family:'Roboto-Regular', 'Roboto';font-size:10px;">5</text>
    <text x="332.494px" y="122.425px" style="font-family:'Roboto-Regular', 'Roboto';font-size:10px;">1<tspan x="338.854px " y="122.425px ">0</tspan></text>
    <text x="332.494px" y="97.798px" style="font-family:'Roboto-Regular', 'Roboto';font-size:10px;">1<tspan x="338.854px " y="97.798px ">5</tspan></text>
    <text x="332.494px" y="73.171px" style="font-family:'Roboto-Regular', 'Roboto';font-size:10px;">2<tspan x="338.854px " y="73.171px ">0</tspan></text>
    <text x="332.494px" y="48.544px" style="font-family:'Roboto-Regular', 'Roboto';font-size:10px;">2<tspan x="338.854px " y="48.544px ">5</tspan></text>
    <g>
        <text x="347.53px" y="16.325px" style="font-family:'Roboto-Regular', 'Roboto';font-size:12px;">H<tspan x="356.823px 364.088px 371.446px " y="16.325px 16.325px 16.325px ">ann</tspan></text>
        <text x="382.942px" y="16.325px" style="font-family:'Roboto-Regular', 'Roboto';font-size:12px;">w<tspan x="392.697px 396.347px 403.706px 411.211px 418.792px 428.548px " y="16.325px 16.325px 16.325px 16.325px 16.325px 16.325px ">indow:</tspan></text>
        <text x="435.686px" y="16.325px" style="font-family:'Roboto-Regular', 'Roboto';font-size:12px;">3</text>
    </g>
    <text x="48.763px" y="327.759px" style="font-family:'Roboto-Regular', 'Roboto';font-size:10px;">0</text>
    <text x="117.906px" y="327.759px" style="font-family:'Roboto-Regular', 'Roboto';font-size:10px;">1<tspan x="124.266px 130.626px 136.986px " y="327.759px 327.759px 327.759px ">000</tspan></text>
    <text x="15.579px" y="302.822px" style="font-family:'Roboto-Regular', 'Roboto';font-size:10px;">4<tspan x="21.939px 28.299px 34.659px " y="302.822px 302.822px 302.822px ">000</tspan></text>
    <text x="15.579px" y="278.504px" style="font-family:'Roboto-Regular', 'Roboto';font-size:10px;">2<tspan x="21.939px 28.299px 34.659px " y="278.504px 278.504px 278.504px ">000</tspan></text>
    <text x="34.653px" y="254.187px" style="font-family:'Roboto-Regular', 'Roboto';font-size:10px;">0</text>
    <text x="15.575px" y="229.869px" style="font-family:'Roboto-Regular', 'Roboto';font-size:10px;">2<tspan x="21.935px 28.295px 34.655px " y="229.869px 229.869px 229.869px ">000</tspan></text>
    <text x="15.575px" y="205.552px" style="font-family:'Roboto-Regular', 'Roboto';font-size:10px;">4<tspan x="21.935px 28.295px 34.655px " y="205.552px 205.552px 205.552px ">000</tspan></text>
    <text x="15.575px" y="181.234px" style="font-family:'Roboto-Regular', 'Roboto';font-size:10px;">6<tspan x="21.935px 28.295px 34.655px " y="181.234px 181.234px 181.234px ">000</tspan></text>
    <text x="200.863px" y="327.759px" style="font-family:'Roboto-Regular', 'Roboto';font-size:10px;">0</text>
    <text x="270.006px" y="327.759px" style="font-family:'Roboto-Regular', 'Roboto';font-size:10px;">1<tspan x="276.366px 282.726px 289.086px " y="327.759px 327.759px 327.759px ">000</tspan></text>
    <text x="161.32px" y="297.356px" style="font-family:'Roboto-Regular', 'Roboto';font-size:10px;">2<tspan x="167.68px 174.04px 180.4px 186.76px " y="297.356px 297.356px 297.356px 297.356px ">0000</tspan></text>
    <text x="186.753px" y="271.379px" style="font-family:'Roboto-Regular', 'Roboto';font-size:10px;">0</text>
    <text x="161.316px" y="245.401px" style="font-family:'Roboto-Regular', 'Roboto';font-size:10px;">2<tspan x="167.676px 174.036px 180.396px 186.756px " y="245.401px 245.401px 245.401px 245.401px ">0000</tspan></text>
    <text x="161.316px" y="219.424px" style="font-family:'Roboto-Regular', 'Roboto';font-size:10px;">4<tspan x="167.676px 174.036px 180.396px 186.756px " y="219.424px 219.424px 219.424px 219.424px ">0000</tspan></text>
    <text x="161.316px" y="193.446px" style="font-family:'Roboto-Regular', 'Roboto';font-size:10px;">6<tspan x="167.676px 174.036px 180.396px 186.756px " y="193.446px 193.446px 193.446px 193.446px ">0000</tspan></text>
    <text x="352.963px" y="327.759px" style="font-family:'Roboto-Regular', 'Roboto';font-size:10px;">0</text>
    <text x="422.106px" y="327.759px" style="font-family:'Roboto-Regular', 'Roboto';font-size:10px;">1<tspan x="428.466px 434.826px 441.186px " y="327.759px 327.759px 327.759px ">000</tspan></text>
    <text x="313.42px" y="304.848px" style="font-family:'Roboto-Regular', 'Roboto';font-size:10px;">5<tspan x="319.78px 326.14px 332.5px 338.86px " y="304.848px 304.848px 304.848px 304.848px ">0000</tspan></text>
    <text x="338.853px" y="265.184px" style="font-family:'Roboto-Regular', 'Roboto';font-size:10px;">0</text>
    <text x="313.416px" y="225.521px" style="font-family:'Roboto-Regular', 'Roboto';font-size:10px;">5<tspan x="319.776px 326.136px 332.496px 338.856px " y="225.521px 225.521px 225.521px 225.521px ">0000</tspan></text>
    <text x="307.056px" y="185.858px" style="font-family:'Roboto-Regular', 'Roboto';font-size:10px;">1<tspan x="313.416px 319.776px 326.136px 332.496px 338.856px " y="185.858px 185.858px 185.858px 185.858px 185.858px ">00000</tspan></text>
    <g transform="matrix(-1,0,0,1,92.525,-94.6381)">
        <path d="M44.513,215.837L48.013,215.837" style="fill:none;fill-rule:nonzero;stroke:black;stroke-width:0.8px;"/>
    </g>
    <g transform="matrix(-1,0,0,1,92.525,-148.517)">
        <path d="M44.513,242.777L48.013,242.777" style="fill:none;fill-rule:nonzero;stroke:black;stroke-width:0.8px;"/>
    </g>
    <g transform="matrix(-1,0,0,1,92.525,-202.395)">
        <path d="M44.513,269.716L48.013,269.716" style="fill:none;fill-rule:nonzero;stroke:black;stroke-width:0.8px;"/>
    </g>
    <g transform="matrix(-1,0,0,1,92.525,-256.274)">
        <path d="M44.513,296.655L48.013,296.655" style="fill:none;fill-rule:nonzero;stroke:black;stroke-width:0.8px;"/>
    </g>
    <g transform="matrix(1,0,0,1,0,-98.9425)">
        <path d="M51.943,245.539L53.28,244.669L53.988,244.47L54.618,244.528L55.326,244.843L56.27,245.545L58.867,247.631L59.496,247.749L60.047,247.646L60.676,247.288L61.542,246.497L65.476,242.542L66.892,241.584L67.286,240.905L67.679,239.781L68.151,237.69L68.702,234.113L69.41,227.793L70.433,216.227L72.164,196.586L72.793,191.694L73.266,189.355L73.659,188.377L73.895,188.231L74.131,188.415L74.446,189.166L74.839,190.877L75.39,194.535L76.177,201.631L78.222,221.176L79.009,226.179L79.796,229.807L80.583,232.473L81.37,234.412L82.235,235.953L83.258,237.314L84.36,238.436L85.461,239.261L86.484,239.722L88.058,240.143L91.048,240.74L92.307,240.738L93.802,240.504L96.005,239.894L98.129,239.267L98.916,239.274L100.096,239.551L101.512,240.075L103.086,240.94L105.368,242.314L106.469,242.65L108.043,242.857L113.708,243.506L114.81,243.261L118.429,242.191L119.924,242.212L121.812,242.485L124.094,242.809L127.871,242.771L130.467,242.513L130.546,242.521" style="fill:none;fill-rule:nonzero;stroke:rgb(31,119,180);stroke-width:1.5px;stroke-linecap:square;"/>
    </g>
    <g transform="matrix(0,-1,-1,0,294.356,138.706)">
        <path d="M-20.356,246.344L116.381,246.344" style="fill:none;fill-rule:nonzero;stroke:black;stroke-width:0.8px;stroke-linecap:square;stroke-linejoin:miter;"/>
    </g>
    <g transform="matrix(0,-1,-1,0,380.82,225.169)">
        <path d="M66.108,246.344L202.844,246.344" style="fill:none;fill-rule:nonzero;stroke:black;stroke-width:0.8px;stroke-linecap:square;stroke-linejoin:miter;"/>
    </g>
    <g transform="matrix(1,0,0,1,0,-18.9147)">
        <path d="M48.013,177.976L134.476,177.976" style="fill:none;fill-rule:nonzero;stroke:black;stroke-width:0.8px;stroke-linecap:square;stroke-linejoin:miter;"/>
    </g>
    <g transform="matrix(1,0,0,1,0,-292.387)">
        <path d="M48.013,314.712L134.476,314.712" style="fill:none;fill-rule:nonzero;stroke:black;stroke-width:0.8px;stroke-linecap:square;stroke-linejoin:miter;"/>
    </g>
    <g transform="matrix(1,0,0,1,0,-155.651)">
        <rect x="200.112" y="177.976" width="86.464" height="136.736" style="fill:white;"/>
    </g>
    <g transform="matrix(0,1,1,0,27.8169,-43.2316)">
        <path d="M202.293,176.226L205.793,176.226" style="fill:none;fill-rule:nonzero;stroke:black;stroke-width:0.8px;"/>
    </g>
    <g transform="matrix(0,1,1,0,106.499,-121.914)">
        <path d="M280.975,176.226L284.475,176.226" style="fill:none;fill-rule:nonzero;stroke:black;stroke-width:0.8px;"/>
    </g>
    <g transform="matrix(-1,0,0,1,396.725,-50.5261)">
        <path d="M196.612,193.781L200.112,193.781" style="fill:none;fill-rule:nonzero;stroke:black;stroke-width:0.8px;"/>
    </g>
    <g transform="matrix(-1,0,0,1,396.725,-99.7801)">
        <path d="M196.612,218.408L200.112,218.408" style="fill:none;fill-rule:nonzero;stroke:black;stroke-width:0.8px;"/>
    </g>
    <g transform="matrix(-1,0,0,1,396.725,-149.034)">
        <path d="M196.612,243.035L200.112,243.035" style="fill:none;fill-rule:nonzero;stroke:black;stroke-width:0.8px;"/>
    </g>
    <g transform="matrix(-1,0,0,1,396.725,-198.288)">
        <path d="M196.612,267.662L200.112,267.662" style="fill:none;fill-rule:nonzero;stroke:black;stroke-width:0.8px;"/>
    </g>
    <g transform="matrix(-1,0,0,1,396.725,-247.542)">
        <path d="M196.612,292.289L200.112,292.289" style="fill:none;fill-rule:nonzero;stroke:black;stroke-width:0.8px;"/>
    </g>
    <g transform="matrix(1,0,0,1,0,-155.556)">
        <path d="M204.043,301.349L204.121,301.395L204.279,300.886L204.672,297.787L204.987,296.005L205.38,294.992L205.538,295.033L206.01,296.093L206.088,296.02L206.246,295.342L206.56,291.983L206.875,289.309L206.954,289.267L207.111,290.076L207.819,296.021L208.055,295.364L208.213,295.099L208.292,295.231L208.449,296.148L209,300.945L209.078,300.989L209.236,300.489L209.472,299.592L209.55,299.62L209.708,300.335L210.18,303.114L210.337,302.717L210.731,301.279L210.967,301.054L211.439,299.914L211.596,300.407L211.911,301.758L211.99,301.69L212.147,300.819L212.619,297.568L213.17,296.685L213.248,296.726L213.406,297.418L214.035,302.692L214.193,302.04L214.743,298.617L214.979,297.924L215.216,296.162L215.688,292.075L215.766,291.996L215.924,292.535L216.474,295.475L216.632,295.58L216.789,295.295L217.025,294.061L217.419,291.963L217.497,292.028L217.655,292.76L218.048,294.982L218.127,294.984L218.52,294.249L218.678,294.709L219.071,296.428L219.15,296.389L219.307,295.829L219.779,292.411L220.251,289.801L220.409,289.524L220.487,289.577L220.645,290.139L220.959,292.848L221.51,297.93L221.589,298.023L221.746,297.542L222.297,294.371L222.454,294.915L222.848,296.694L223.005,295.694L223.241,291.374L223.477,282.988L223.792,262.836L224.657,194.675L224.893,189.588L224.972,189.478L225.129,191.446L225.444,201.998L226.31,234.227L226.782,245.278L227.254,251.368L228.277,260.465L228.906,269.38L229.772,282.735L229.85,282.936L229.929,282.901L230.401,281.605L230.48,281.744L230.716,283.067L231.109,285.301L231.188,285.314L231.345,284.943L231.739,283.771L232.053,283.321L232.526,281.598L232.604,281.776L232.762,282.971L233.391,289.699L233.548,289.846L233.785,289.763L233.942,290.114L234.335,291.323L234.493,291.225L234.729,291.132L234.965,291.61L235.201,292.188L235.279,292.17L235.437,291.511L235.909,288.131L236.066,288.886L236.617,293.062L236.774,292.597L237.089,291.328L237.168,291.296L237.404,291.765L237.561,291.958L237.719,291.728L238.191,290.468L238.269,290.483L238.427,290.857L239.214,294.156L239.371,294.092L239.528,293.683L240.315,290.624L240.472,291.042L240.787,293.174L241.181,295.326L241.338,295.473L241.967,294.966L242.125,294.419L242.361,292.359L242.833,287.906L242.912,287.955L243.069,288.964L243.62,293.906L243.698,293.938L243.856,293.493L244.328,291.333L244.407,291.33L244.564,291.867L244.8,293.976L245.193,297.504L245.272,297.567L245.429,297.043L245.98,294.482L246.374,293.262L246.846,291.571L247.003,291.442L247.16,291.664L247.397,292.898L247.633,294.081L247.711,294.08L247.869,293.187L248.498,286.022L248.577,286.247L248.813,288.887L249.285,294.644L249.364,294.766L249.521,294.262L250.15,290.361L250.229,290.411L250.386,291.06L250.937,294.689L251.016,294.567L251.252,292.924L251.567,290.865L251.724,290.701L251.96,290.811L252.117,290.493L252.511,289.294L252.668,289.563L252.983,291.222L253.219,292.224L253.298,292.192L253.455,291.503L253.77,289.766L253.848,289.74L254.006,290.542L254.557,296.594L254.635,296.444L254.871,294.286L255.186,291.576L255.265,291.464L255.343,291.653L255.501,292.932L256.052,298.65L256.209,297.411L256.838,289.754L256.996,289.549L257.153,289.611L257.31,289.987L257.468,290.938L257.783,294.985L258.097,298.437L258.255,298.793L258.491,298.685L258.727,298.35L258.963,297.423L259.671,293.936L259.828,294.097L260.064,295.098L260.458,296.686L260.536,296.688L260.694,296.32L261.559,292.921L261.717,292.889L262.346,293.328L262.74,293.02L262.897,293.468L263.133,295.109L263.605,298.847L263.684,298.738L263.841,297.512L264.313,292.866L264.471,293.828L265.1,300.605L265.257,299.769L265.729,296.371L266.28,294.588L266.595,293.252L266.674,293.205L266.831,293.527L267.146,294.441L267.224,294.423L267.696,293.592L267.854,294.065L268.483,297.261L268.641,297.105L268.877,296.734L269.034,296.819L269.349,297.196L269.506,296.599L269.742,294.177L270.214,288.644L270.372,288.221L270.529,288.822L271.316,294.579L271.552,294.998L272.103,296.823L272.26,296.451L273.283,292.667L273.44,293.351L273.991,297.122L274.148,296.677L274.621,294.368L274.699,294.397L274.857,294.856L275.171,295.999L275.25,296.008L275.407,295.377L276.037,290.158L276.115,290.389L276.352,292.686L276.824,298.412L276.981,298.699L277.138,298.265L277.846,295.649L278.161,294.19L278.476,292.782L278.633,292.645L278.791,293.047L279.499,296.338L279.656,296.003L280.207,294.505L280.443,294.414L280.6,294.717L280.915,295.332L281.072,294.984L281.466,293.771L281.545,293.863L281.702,294.661L282.253,298.544L282.41,297.742L282.646,294.965" style="fill:none;fill-rule:nonzero;stroke:rgb(31,119,180);stroke-width:1.5px;stroke-linecap:square;"/>
    </g>
    <g transform="matrix(0,-1,-1,0,446.456,290.806)">
        <path d="M131.744,246.344L268.481,246.344" style="fill:none;fill-rule:nonzero;stroke:black;stroke-width:0.8px;stroke-linecap:square;stroke-linejoin:miter;"/>
    </g>
    <g transform="matrix(0,-1,-1,0,532.92,377.269)">
        <path d="M218.208,246.344L354.944,246.344" style="fill:none;fill-rule:nonzero;stroke:black;stroke-width:0.8px;stroke-linecap:square;stroke-linejoin:miter;"/>
    </g>
    <g transform="matrix(1,0,0,1,0,-18.9147)">
        <path d="M200.112,177.976L286.576,177.976" style="fill:none;fill-rule:nonzero;stroke:black;stroke-width:0.8px;stroke-linecap:square;stroke-linejoin:miter;"/>
    </g>
    <g transform="matrix(1,0,0,1,0,-292.387)">
        <path d="M200.112,314.712L286.576,314.712" style="fill:none;fill-rule:nonzero;stroke:black;stroke-width:0.8px;stroke-linecap:square;stroke-linejoin:miter;"/>
    </g>
    <g transform="matrix(1,0,0,1,0,-155.651)">
        <rect x="352.212" y="177.976" width="86.464" height="136.736" style="fill:white;"/>
    </g>
    <g transform="matrix(0,1,1,0,179.917,-195.332)">
        <path d="M354.393,176.226L357.893,176.226" style="fill:none;fill-rule:nonzero;stroke:black;stroke-width:0.8px;"/>
    </g>
    <g transform="matrix(0,1,1,0,258.599,-274.014)">
        <path d="M433.075,176.226L436.575,176.226" style="fill:none;fill-rule:nonzero;stroke:black;stroke-width:0.8px;"/>
    </g>
    <g transform="matrix(-1,0,0,1,700.925,-50.5261)">
        <path d="M348.712,193.781L352.212,193.781" style="fill:none;fill-rule:nonzero;stroke:black;stroke-width:0.8px;"/>
    </g>
    <g transform="matrix(-1,0,0,1,700.925,-99.7801)">
        <path d="M348.712,218.408L352.212,218.408" style="fill:none;fill-rule:nonzero;stroke:black;stroke-width:0.8px;"/>
    </g>
    <g transform="matrix(-1,0,0,1,700.925,-149.034)">
        <path d="M348.712,243.035L352.212,243.035" style="fill:none;fill-rule:nonzero;stroke:black;stroke-width:0.8px;"/>
    </g>
    <g transform="matrix(-1,0,0,1,700.925,-198.288)">
        <path d="M348.712,267.662L352.212,267.662" style="fill:none;fill-rule:nonzero;stroke:black;stroke-width:0.8px;"/>
    </g>
    <g transform="matrix(-1,0,0,1,700.925,-247.542)">
        <path d="M348.712,292.289L352.212,292.289" style="fill:none;fill-rule:nonzero;stroke:black;stroke-width:0.8px;"/>
    </g>
    <g transform="matrix(1,0,0,1,0,-155.651)">
        <path d="M356.143,304.53L356.221,305.329L356.3,304.945L356.615,295.197L356.693,296.028L356.851,298.98L356.929,298.549L357.244,293.475L357.323,293.952L357.48,296.258L357.559,296.12L357.795,293.814L357.874,294.213L358.188,298.58L358.346,296.996L358.739,289.524L358.897,286.511L358.975,286.664L359.29,290.185L359.526,295.536L359.762,298.949L359.919,297.304L360.234,293.568L360.392,293.276L360.47,293.737L360.706,298.657L361.1,303.9L361.178,303.561L361.729,295.858L361.808,296.981L362.123,308.497L362.201,308.005L362.516,300.363L362.673,299.21L362.752,299.349L363.145,304.099L363.303,300.655L363.539,295.843L363.696,298.303L364.011,307.251L364.09,306.713L364.562,294.798L364.64,294.967L364.798,298.103L364.955,301.409L365.034,300.579L365.348,292.737L365.506,294.459L365.978,306.083L366.057,305.637L366.45,300.133L366.607,298.949L366.843,296.842L367.237,300.394L367.394,296.274L367.63,288.432L367.709,288.74L368.102,293.598L368.26,294.751L368.574,297.319L368.81,294.521L368.889,294.751L369.125,296.243L369.204,295.489L369.519,288.955L369.755,290.308L370.069,300.394L370.148,299.456L370.463,291.677L370.699,292.491L371.014,298.995L371.092,298.657L371.328,296.35L371.407,296.304L372.115,290.277L372.272,288.371L372.351,288.586L372.587,290.462L372.823,288.156L373.453,297.903L373.61,299.256L373.767,300.286L373.925,298.472L374.318,290.554L374.397,290.862L374.869,299.41L374.948,299.318L375.105,297.78L375.341,291.953L375.813,273.842L376.679,192.463L377.072,184.191L377.229,187.174L377.387,194.246L377.859,219.2L378.095,223.212L378.646,243.277L378.96,245.69L379.354,254.07L379.433,253.931L379.669,251.533L379.826,254.085L380.141,259.635L380.219,260.45L380.298,260.189L380.455,259.758L380.613,262.71L380.928,269.875L381.006,269.921L381.164,271.09L381.321,273.888L381.636,284.896L381.714,284.543L381.872,283.359L382.029,284.466L382.108,283.989L382.422,279.853L382.501,279.838L382.58,280.084L382.895,284.266L383.131,287.771L383.209,287.587L383.445,284.942L383.681,282.406L383.839,283.22L384.153,285.065L384.311,283.605L384.704,278.792L384.783,278.762L384.94,282.421L385.255,292.169L385.334,292.568L385.412,292.061L385.727,287.633L386.042,291.507L386.199,289.263L386.278,289.709L386.514,294.521L386.671,292.03L386.907,287.218L386.986,287.602L387.301,296.581L388.009,284.42L388.088,284.789L388.245,287.833L388.56,298.026L388.717,295.32L389.032,288.74L389.11,289.078L389.425,293.014L389.504,292.83L389.74,292.415L389.897,292.814L390.212,288.586L390.527,291.261L390.605,291.062L390.684,291.215L390.841,292.384L391.078,295.905L391.156,295.735L391.392,293.245L391.471,293.352L391.628,294.413L391.943,293.322L392.179,288.125L392.258,288.417L392.651,292.522L392.809,291.246L392.887,291.523L393.202,298.195L393.281,298.18L393.674,293.967L393.753,293.691L393.831,293.829L394.146,297.334L394.303,295.228L394.618,289.878L394.933,284.742L395.012,285.081L395.248,288.74L395.641,297.965L395.798,294.659L396.034,290.462L396.271,294.367L396.428,290.923L396.585,288.248L396.664,288.74L396.9,294.383L397.215,301.117L397.293,300.579L397.844,292.553L397.923,292.707L398.159,297.411L398.316,293.491L398.474,291.584L398.631,293.183L398.788,291.784L398.946,290.769L399.024,290.785L399.26,291.815L399.497,291.215L399.575,292.046L399.811,298.795L399.89,298.687L400.047,295.028L400.362,283.097L400.441,282.836L400.519,283.097L400.834,287.51L401.07,292.245L401.385,298.81L401.464,298.472L401.621,295.12L401.857,289.309L401.936,289.539L402.172,292.046L402.329,289.939L402.486,287.725L402.565,288.233L402.959,298.826L403.116,296.489L403.588,287.187L403.667,287.756L403.903,293.229L403.981,293.091L404.296,290.339L404.375,290.447L404.453,289.924L404.69,285.111L405.004,294.444L405.083,292.937L405.24,290.508L405.555,295.197L405.634,294.29L405.948,283.866L406.027,284.42L406.499,299.472L406.578,299.349L406.657,299.487L406.735,299.333L406.893,296.197L407.207,287.864L407.286,288.386L407.679,293.737L407.837,295.336L408.152,304.945L408.23,304.653L408.388,298.964L408.702,283.543L408.86,287.249L409.096,295.951L409.174,295.489L409.489,281.683L409.646,289.939L409.883,301.086L410.119,297.627L410.197,298.072L410.355,299.979L410.433,299.764L410.669,297.98L410.905,299.333L411.063,298.165L411.614,292.338L411.692,292.23L412.086,295.674L412.243,293.86L412.322,294.398L412.558,300.333L412.636,300.194L413.03,293.322L413.187,294.014L413.423,292.983L413.659,294.413L413.895,289.77L413.974,290.57L414.21,296.935L414.525,291.861L414.682,292.23L414.997,293.306L415.154,293.583L415.312,295.72L415.784,303.162L415.862,302.931L416.02,297.98L416.334,287.033L416.413,287.402L416.571,292.276L416.885,302.101L416.964,301.686L417.121,302.593L417.2,302.531L417.357,301.455L417.829,293.368L418.144,298.841L418.223,298.165L418.459,292.676L418.616,289.432L418.695,289.77L419.01,296.504L419.246,294.336L419.324,294.536L419.482,295.074L419.796,291.6L419.875,291.815L420.033,294.106L420.269,297.519L420.505,299.149L420.583,298.872L420.977,295.505L421.134,296.135L421.527,299.764L421.606,299.441L421.842,294.229L422.078,288.448L422.314,287.218L422.393,287.372L422.55,287.848L422.708,287.648L422.786,288.356L423.18,297.627L423.258,296.658L423.573,291.569L423.652,291.861L424.045,299.379L424.124,299.333L424.203,299.149L424.281,298.38L424.517,292.184L424.596,292.814L424.832,297.196L424.989,295.182L425.383,289.709L425.462,288.94L425.54,289.801L425.934,300.671L426.012,300.871L426.091,300.025L426.327,293.03L426.406,293.445L426.563,295.52L426.642,295.428L426.878,292.43L426.957,292.691L427.35,299.056L427.429,299.026L427.586,296.258L427.979,287.602L428.058,287.741L428.215,289.001L428.609,295.474L429.002,302.808L429.081,302.454L429.238,297.796L429.396,293.276L429.474,293.783L429.71,299.287L429.789,299.149L430.104,292.722L430.183,292.968L430.419,294.767L430.497,294.459L430.812,290.57L430.891,290.831L431.048,293.46L431.363,299.041L431.677,295.028L431.756,295.29L431.914,295.766L432.071,295.52L432.228,294.121L432.307,293.368L432.386,293.383L432.7,295.182L432.779,295.243L432.936,294.536L433.172,299.164L433.251,298.165L433.566,288.878L433.881,297.211L433.959,297.181L434.038,297.242L434.195,300.056L434.353,302.147L434.51,299.318L434.746,293.752" style="fill:none;fill-rule:nonzero;stroke:rgb(31,119,180);stroke-width:1.5px;stroke-linecap:square;"/>
    </g>
    <g transform="matrix(0,-1,-1,0,598.556,442.906)">
        <path d="M283.844,246.344L420.581,246.344" style="fill:none;fill-rule:nonzero;stroke:black;stroke-width:0.8px;stroke-linecap:square;stroke-linejoin:miter;"/>
    </g>
    <g transform="matrix(0,-1,-1,0,685.02,529.369)">
        <path d="M370.308,246.344L507.044,246.344" style="fill:none;fill-rule:nonzero;stroke:black;stroke-width:0.8px;stroke-linecap:square;stroke-linejoin:miter;"/>
    </g>
    <g transform="matrix(1,0,0,1,0,-18.9147)">
        <path d="M352.212,177.976L438.676,177.976" style="fill:none;fill-rule:nonzero;stroke:black;stroke-width:0.8px;stroke-linecap:square;stroke-linejoin:miter;"/>
    </g>
    <g transform="matrix(1,0,0,1,0,-292.387)">
        <path d="M352.212,314.712L438.676,314.712" style="fill:none;fill-rule:nonzero;stroke:black;stroke-width:0.8px;stroke-linecap:square;stroke-linejoin:miter;"/>
    </g>
    <g transform="matrix(1,0,0,1,0,152.557)">
        <rect x="48.013" y="23.872" width="86.464" height="136.736" style="fill:white;"/>
    </g>
    <g transform="matrix(0,1,1,0,29.8208,262.972)">
        <path d="M50.193,22.122L53.693,22.122" style="fill:none;fill-rule:nonzero;stroke:black;stroke-width:0.8px;"/>
    </g>
    <g transform="matrix(0,1,1,0,108.503,184.29)">
        <path d="M128.875,22.122L132.375,22.122" style="fill:none;fill-rule:nonzero;stroke:black;stroke-width:0.8px;"/>
    </g>
    <g transform="matrix(-1,0,0,1,92.525,261.012)">
        <path d="M44.513,38.012L48.013,38.012" style="fill:none;fill-rule:nonzero;stroke:black;stroke-width:0.8px;"/>
    </g>
    <g transform="matrix(0.01,0,0,0.01,7.2,296.552)">
        <rect x="106" y="272" width="626" height="83"/>
    </g>
    <g transform="matrix(-1,0,0,1,92.525,212.378)">
        <path d="M44.513,62.33L48.013,62.33" style="fill:none;fill-rule:nonzero;stroke:black;stroke-width:0.8px;"/>
    </g>
    <g transform="matrix(0.01,0,0,0.01,7.2,272.234)">
        <rect x="106" y="272" width="626" height="83"/>
    </g>
    <g transform="matrix(-1,0,0,1,92.525,163.743)">
        <path d="M44.513,86.647L48.013,86.647" style="fill:none;fill-rule:nonzero;stroke:black;stroke-width:0.8px;"/>
    </g>
    <g transform="matrix(-1,0,0,1,92.525,115.108)">
        <path d="M44.513,110.965L48.013,110.965" style="fill:none;fill-rule:nonzero;stroke:black;stroke-width:0.8px;"/>
    </g>
    <g transform="matrix(-1,0,0,1,92.525,66.4729)">
        <path d="M44.513,135.282L48.013,135.282" style="fill:none;fill-rule:nonzero;stroke:black;stroke-width:0.8px;"/>
    </g>
    <g transform="matrix(-1,0,0,1,92.525,17.838)">
        <path d="M44.513,159.599L48.013,159.599" style="fill:none;fill-rule:nonzero;stroke:black;stroke-width:0.8px;"/>
    </g>
    <g>
        <clipPath id="_clip1">
            <rect x="48.013" y="176.429" width="86.464" height="136.736" clip-rule="nonzero"/>
        </clipPath>
        <g clip-path="url(#_clip1)">
            <g transform="matrix(1,0,0,1,0,152.577)">
                <path d="M51.943,95.242L52.493,95.697L53.202,96.616L54.224,98.383L55.483,100.497L56.113,101.173L56.585,101.409L56.978,101.402L57.45,101.138L57.923,100.602L58.552,99.513L59.417,97.506L61.542,92.376L62.565,90.655L63.509,88.999L64.06,87.531L64.61,85.344L65.161,82.182L65.791,77.158L66.499,69.666L67.522,56.236L68.938,37.83L69.567,32.384L69.961,30.524L70.197,30.09L70.354,30.108L70.512,30.383L70.748,31.292L71.062,33.456L71.456,37.706L72.007,46.432L72.715,61.757L73.895,93.31L75.233,127.6L76.019,142.34L76.57,149.259L77.042,152.836L77.357,154.045L77.593,154.37L77.75,154.325L77.986,153.892L78.301,152.691L78.773,149.762L79.481,143.559L82.235,117.451L83.101,112.181L83.888,108.7L84.674,106.142L85.54,104.078L86.405,102.56L87.428,101.231L88.609,100.084L90.261,98.821L93.88,96.361L94.746,96.057L95.533,96.015L96.241,96.191L97.028,96.621L97.972,97.42L99.231,98.812L101.198,100.991L102.063,101.622L102.85,101.915L103.558,101.95L104.345,101.767L105.368,101.281L109.145,99.208L111.741,98.155L113.551,97.026L114.81,96.358L115.675,96.124L116.462,96.125L117.249,96.336L118.193,96.821L121.026,98.438L121.97,98.653L122.993,98.648L124.173,98.396L127.241,97.595L128.107,97.677L128.972,97.989L129.917,98.583L130.546,99.104" style="fill:none;fill-rule:nonzero;stroke:rgb(31,119,180);stroke-width:1.5px;stroke-linecap:square;"/>
            </g>
            <g transform="matrix(1,0,0,1,0,145.407)">
                <path d="M48.013,95.815L134.476,95.815" style="fill:none;fill-rule:nonzero;stroke:rgb(255,165,0);stroke-width:1.5px;stroke-dasharray:5.55,2.4;"/>
            </g>
        </g>
    </g>
    <g transform="matrix(0,-1,-1,0,140.252,292.809)">
        <path d="M-20.356,92.24L116.381,92.24" style="fill:none;fill-rule:nonzero;stroke:black;stroke-width:0.8px;stroke-linecap:square;stroke-linejoin:miter;"/>
    </g>
    <g transform="matrix(0,-1,-1,0,226.716,379.273)">
        <path d="M66.108,92.24L202.844,92.24" style="fill:none;fill-rule:nonzero;stroke:black;stroke-width:0.8px;stroke-linecap:square;stroke-linejoin:miter;"/>
    </g>
    <g transform="matrix(1,0,0,1,0,289.293)">
        <path d="M48.013,23.872L134.476,23.872" style="fill:none;fill-rule:nonzero;stroke:black;stroke-width:0.8px;stroke-linecap:square;stroke-linejoin:miter;"/>
    </g>
    <g transform="matrix(1,0,0,1,0,15.821)">
        <path d="M48.013,160.608L134.476,160.608" style="fill:none;fill-rule:nonzero;stroke:black;stroke-width:0.8px;stroke-linecap:square;stroke-linejoin:miter;"/>
    </g>
    <g transform="matrix(1,0,0,1,0,152.557)">
        <rect x="200.112" y="23.872" width="86.464" height="136.736" style="fill:white;"/>
    </g>
    <g transform="matrix(0,1,1,0,181.921,110.872)">
        <path d="M202.293,22.122L205.793,22.122" style="fill:none;fill-rule:nonzero;stroke:black;stroke-width:0.8px;"/>
    </g>
    <g transform="matrix(0,1,1,0,260.603,32.1902)">
        <path d="M280.975,22.122L284.475,22.122" style="fill:none;fill-rule:nonzero;stroke:black;stroke-width:0.8px;"/>
    </g>
    <g transform="matrix(-1,0,0,1,396.725,250.081)">
        <path d="M196.612,43.478L200.112,43.478" style="fill:none;fill-rule:nonzero;stroke:black;stroke-width:0.8px;"/>
    </g>
    <g transform="matrix(0.01,0,0,0.01,152.941,291.086)">
        <rect x="106" y="272" width="626" height="83"/>
    </g>
    <g transform="matrix(-1,0,0,1,396.725,198.126)">
        <path d="M196.612,69.455L200.112,69.455" style="fill:none;fill-rule:nonzero;stroke:black;stroke-width:0.8px;"/>
    </g>
    <g transform="matrix(-1,0,0,1,396.725,146.171)">
        <path d="M196.612,95.433L200.112,95.433" style="fill:none;fill-rule:nonzero;stroke:black;stroke-width:0.8px;"/>
    </g>
    <g transform="matrix(-1,0,0,1,396.725,94.2164)">
        <path d="M196.612,121.41L200.112,121.41" style="fill:none;fill-rule:nonzero;stroke:black;stroke-width:0.8px;"/>
    </g>
    <g transform="matrix(-1,0,0,1,396.725,42.2614)">
        <path d="M196.612,147.388L200.112,147.388" style="fill:none;fill-rule:nonzero;stroke:black;stroke-width:0.8px;"/>
    </g>
    <g>
        <clipPath id="_clip2">
            <rect x="200.112" y="176.429" width="86.464" height="136.736" clip-rule="nonzero"/>
        </clipPath>
        <g clip-path="url(#_clip2)">
            <g transform="matrix(1,0,0,1,0,152.557)">
                <path d="M204.043,117.356L204.515,109.262L204.672,108.659L204.751,108.786L204.987,110.29L205.616,115.547L205.695,115.695L205.774,115.583L205.931,114.479L206.482,107.283L206.56,107.338L206.718,109.072L207.426,122.721L207.583,121.457L207.977,116.464L208.055,116.321L208.213,117.276L208.685,121.787L208.842,120.739L209.314,115.392L209.393,115.471L209.629,117.323L209.865,118.764L209.944,118.628L210.101,117.396L210.573,112.755L210.731,112.456L210.888,112.608L211.124,113.403L211.675,116.187L211.832,115.287L212.383,109.847L212.462,109.912L212.619,110.72L213.012,114.553L213.642,121.963L213.721,121.66L213.878,119.646L214.429,110.15L214.586,109.69L214.822,109.551L215.058,108.503L215.294,107.602L215.373,107.797L215.53,109.288L216.238,118.93L216.396,117.961L217.025,111.014L217.104,111.032L217.261,112.091L217.812,118.182L217.891,118.124L218.127,116.767L218.363,115.874L218.52,116.252L218.756,117.116L218.835,117.084L218.992,116.179L219.779,108.373L219.936,108.994L220.172,111.321L220.645,119.334L220.959,123.635L221.038,123.994L221.117,123.958L221.274,122.653L221.589,116.472L221.904,111.515L221.982,111.302L222.061,111.554L222.297,114.161L222.533,116.055L222.612,115.723L222.769,112.967L223.005,103.3L223.398,74.69L223.949,32.456L224.107,30.087L224.264,34.866L224.5,53.985L225.444,148.615L225.68,154.177L225.759,154.393L225.916,153.186L226.231,147.435L227.333,125.082L227.569,123.771L227.647,123.745L227.805,124.187L228.198,126.7L229.064,132.484L229.142,132.507L229.3,131.659L229.536,127.765L230.165,115.137L230.244,115.093L230.401,116.109L230.795,119.255L230.873,119.138L231.031,118.014L231.581,112.938L231.817,112.488L232.053,112.366L232.211,112.846L232.368,114.361L232.998,124.439L233.076,124.369L233.234,122.969L233.706,117.346L233.863,116.965L234.178,116.81L234.65,115.959L234.886,115.932L235.043,115.321L235.358,112.055L235.594,110.791L235.752,112.073L236.302,120.311L236.381,120.07L236.617,117.186L236.932,113.83L237.01,113.686L237.168,114.019L237.404,114.67L237.483,114.651L237.719,113.953L237.876,113.587L237.955,113.641L238.112,114.378L238.741,119.159L238.82,119.068L238.978,118.253L239.371,114.091L239.686,111.377L239.843,111.082L240,111.755L240.236,114.415L240.709,120.176L240.866,120.423L241.023,119.636L242.125,109.49L242.44,106.94L242.518,107.244L242.676,109.376L243.305,121.835L243.384,121.585L243.62,118.244L244.013,112.626L244.092,112.557L244.249,113.708L244.879,122.173L245.036,121.064L245.823,110.983L245.98,111.11L246.295,111.41L246.452,111.539L246.61,111.97L246.846,113.639L247.318,117.657L247.397,117.479L247.554,115.815L248.105,105.919L248.183,106.19L248.341,108.926L248.97,124.893L249.049,124.501L249.285,119.892L249.678,111.034L249.836,110.297L249.993,111.498L250.622,119.662L250.78,118.406L251.409,110.495L251.567,111.141L251.96,113.127L252.275,113.564L252.511,115.164L252.904,118.099L252.983,117.955L253.14,116.745L253.534,113.283L253.612,113.556L253.77,115.526L254.242,122.638L254.399,121.01L254.95,110.03L255.029,110.369L255.186,113.037L255.658,122.846L255.737,122.549L255.894,119.635L256.445,104.795L256.524,104.651L256.681,106.167L257.232,117.976L257.625,124.665L257.783,125.321L257.94,124.296L258.333,117.592L258.727,112.417L259.041,110.241L259.199,109.988L259.356,110.588L259.592,113.003L260.064,117.999L260.143,118.115L260.222,117.943L260.379,116.811L261.009,110.974L261.087,110.975L261.245,111.511L261.953,115.318L262.11,115.33L262.346,115.14L262.503,115.436L262.74,117.195L263.212,121.523L263.29,121.227L263.448,119.152L263.998,108.949L264.156,110.733L264.707,123.595L264.785,123.414L264.943,120.975L265.493,109.83L265.572,109.611L265.651,109.687L266.516,112.797L266.91,115.631L266.988,115.77L267.067,115.726L267.382,114.978L267.46,115.045L267.618,115.81L268.09,119.292L268.169,119.238L268.326,118.417L268.798,115.202L269.113,114.311L269.349,111.896L269.821,105.153L269.9,105.045L270.057,106.387L270.372,113.833L270.765,121.786L270.922,122.196L271.08,121.335L271.473,118.65L271.867,117.197L272.26,113.6L272.575,111.378L272.732,111.092L272.811,111.211L272.968,112.088L273.283,116.278L273.598,119.907L273.676,119.956L273.834,118.774L274.384,112.328L274.542,113.04L274.935,115.93L275.014,115.753L275.171,114.27L275.643,108.411L275.722,108.7L275.879,110.991L276.509,124.753L276.588,124.573L276.745,122.624L277.374,111.917L277.61,111.221L278.083,110.85L278.24,111.262L278.476,113.259L279.027,119.231L279.105,119.247L279.263,118.414L279.892,112.932L279.971,112.921L280.128,113.424L280.6,115.631L280.679,115.59L280.836,115.061L281.151,113.872L281.23,114.02L281.387,115.209L281.859,120.35L281.938,120.112L282.095,118.071L282.646,106.171" style="fill:none;fill-rule:nonzero;stroke:rgb(31,119,180);stroke-width:1.5px;stroke-linecap:square;"/>
            </g>
            <g transform="matrix(1,0,0,1,0,163.446)">
                <path d="M200.112,86.795L286.576,86.795" style="fill:none;fill-rule:nonzero;stroke:rgb(255,165,0);stroke-width:1.5px;stroke-dasharray:5.55,2.4;"/>
            </g>
        </g>
    </g>
    <g transform="matrix(0,-1,-1,0,292.352,444.909)">
        <path d="M131.744,92.24L268.481,92.24" style="fill:none;fill-rule:nonzero;stroke:black;stroke-width:0.8px;stroke-linecap:square;stroke-linejoin:miter;"/>
    </g>
    <g transform="matrix(0,-1,-1,0,378.816,531.373)">
        <path d="M218.208,92.24L354.944,92.24" style="fill:none;fill-rule:nonzero;stroke:black;stroke-width:0.8px;stroke-linecap:square;stroke-linejoin:miter;"/>
    </g>
    <g transform="matrix(1,0,0,1,0,289.293)">
        <path d="M200.112,23.872L286.576,23.872" style="fill:none;fill-rule:nonzero;stroke:black;stroke-width:0.8px;stroke-linecap:square;stroke-linejoin:miter;"/>
    </g>
    <g transform="matrix(1,0,0,1,0,15.821)">
        <path d="M200.112,160.608L286.576,160.608" style="fill:none;fill-rule:nonzero;stroke:black;stroke-width:0.8px;stroke-linecap:square;stroke-linejoin:miter;"/>
    </g>
    <g transform="matrix(1,0,0,1,0,152.557)">
        <rect x="352.212" y="23.872" width="86.464" height="136.736" style="fill:white;"/>
    </g>
    <g transform="matrix(0,1,1,0,334.021,-41.2277)">
        <path d="M354.393,22.122L357.893,22.122" style="fill:none;fill-rule:nonzero;stroke:black;stroke-width:0.8px;"/>
    </g>
    <g transform="matrix(0,1,1,0,412.703,-119.91)">
        <path d="M433.075,22.122L436.575,22.122" style="fill:none;fill-rule:nonzero;stroke:black;stroke-width:0.8px;"/>
    </g>
    <g transform="matrix(-1,0,0,1,700.925,265.065)">
        <path d="M348.712,35.986L352.212,35.986" style="fill:none;fill-rule:nonzero;stroke:black;stroke-width:0.8px;"/>
    </g>
    <g transform="matrix(0.01,0,0,0.01,305.041,298.578)">
        <rect x="106" y="272" width="626" height="83"/>
    </g>
    <g transform="matrix(-1,0,0,1,700.925,185.738)">
        <path d="M348.712,75.649L352.212,75.649" style="fill:none;fill-rule:nonzero;stroke:black;stroke-width:0.8px;"/>
    </g>
    <g transform="matrix(-1,0,0,1,700.925,106.412)">
        <path d="M348.712,115.313L352.212,115.313" style="fill:none;fill-rule:nonzero;stroke:black;stroke-width:0.8px;"/>
    </g>
    <g transform="matrix(-1,0,0,1,700.925,27.0854)">
        <path d="M348.712,154.976L352.212,154.976" style="fill:none;fill-rule:nonzero;stroke:black;stroke-width:0.8px;"/>
    </g>
    <g>
        <clipPath id="_clip3">
            <rect x="352.212" y="176.429" width="86.464" height="136.736" clip-rule="nonzero"/>
        </clipPath>
        <g clip-path="url(#_clip3)">
            <g transform="matrix(1,0,0,1,0,152.557)">
                <path d="M356.143,116.631L356.3,98.678L356.457,83.14L356.772,120.716L357.008,95.459L357.087,97.254L357.402,118.116L357.638,100.721L357.795,109.264L357.952,121.583L358.031,120.283L358.346,99.792L358.503,96.449L358.582,97.254L358.739,93.478L358.818,96.697L359.054,115.454L359.29,117.745L359.526,126.35L359.683,114.278L359.919,99.111L359.998,98.678L360.549,120.84L360.628,123.997L361.021,115.764L361.257,96.449L361.336,97.068L361.493,102.764L361.572,100.349L361.65,101.03L361.965,135.573L362.044,129.816L362.28,88.897L362.909,119.602L362.988,118.116L363.145,105.364L363.303,88.402L363.381,91.126L363.775,130.126L363.854,129.259L364.011,112.111L364.247,83.449L364.798,126.597L364.876,122.14L365.112,87.968L365.191,89.392L365.663,132.416L366.135,97.873L366.214,98.43L366.293,99.483L366.45,105.24L366.529,104.064L366.686,100.349L366.922,117.064L367.001,116.816L367.158,111.74L367.473,81.84L367.788,119.85L367.866,119.354L368.102,111.183L368.26,114.835L368.496,113.535L368.653,100.349L368.732,100.597L368.968,113.35L369.047,112.854L369.283,90.197L369.361,92.426L369.597,110.873L369.676,113.04L369.912,134.15L370.227,84.502L370.305,89.949L370.541,109.945L370.62,111.369L370.778,125.483L370.856,124.616L371.171,100.226L371.328,107.964L371.407,106.107L371.564,100.659L371.879,106.911L372.036,101.278L372.115,98.926L372.194,101.154L372.43,115.702L372.509,113.226L372.666,99.545L372.745,103.816L372.981,126.597L373.217,116.197L373.374,112.173L373.453,112.235L373.61,115.764L373.767,106.85L374.004,95.583L374.161,94.654L374.24,97.254L374.554,125.421L374.712,118.921L375.026,102.64L375.262,90.754L375.341,86.049L375.42,87.102L375.577,91.868L375.656,87.102L376.049,30.087L376.364,44.201L376.679,94.159L376.836,90.445L376.915,92.488L377.466,150.183L377.702,140.154L377.938,117.869L378.016,119.911L378.252,140.65L378.331,139.35L378.41,135.883L378.724,113.535L378.803,111.864L378.882,113.845L379.039,128.888L379.118,128.145L379.511,100.721L379.59,103.135L379.826,123.502L379.905,121.769L380.298,106.045L380.377,107.097L380.691,130.002L380.849,116.507L380.928,110.316L381.006,110.688L381.242,120.097L381.4,136.378L381.478,134.521L381.714,103.383L381.793,104.064L381.95,113.288L382.186,98.121L382.265,99.421L382.737,118.364L382.816,117.373L382.973,120.159L383.131,110.873L383.367,100.969L383.445,98.245L383.524,99.111L383.839,113.535L383.917,113.907L384.075,111.183L384.39,98.678L384.547,101.835L384.704,106.478L385.019,137.183L385.098,130.435L385.412,101.154L385.491,95.954L385.57,96.821L385.885,120.221L386.121,99.792L386.199,105.859L386.357,125.421L386.514,108.15L386.671,95.211L386.75,94.716L386.829,96.511L387.065,133.654L387.143,133.345L387.458,94.778L387.616,100.473L387.694,100.102L387.852,95.954L387.93,98.802L388.324,136.75L388.402,134.15L388.717,92.426L388.796,91.249L388.953,99.916L389.189,118.302L389.268,119.169L389.583,107.159L389.819,110.44L390.055,96.697L390.369,116.507L390.527,108.397L390.605,108.645L390.92,119.85L390.999,118.302L391.235,102.083L391.314,101.711L391.55,113.102L391.707,107.097L391.786,108.088L391.864,106.169L392.022,92.24L392.1,95.645L392.336,116.259L392.494,117.188L392.73,103.692L392.809,107.221L393.045,125.731L393.438,98.369L393.674,106.726L393.753,108.273L393.91,118.921L393.989,118.673L394.382,94.654L394.54,101.464L394.618,100.783L394.776,96.573L394.854,98.616L395.169,119.54L395.405,130.312L395.562,114.897L395.798,90.507L395.877,92.116L396.113,121.459L396.192,119.107L396.428,91.745L396.821,126.04L396.9,125.297L396.979,124.926L397.057,124.988L397.215,109.945L397.372,97.44L397.608,103.321L397.765,97.44L398.002,124.864L398.08,120.469L398.316,91.002L398.552,115.269L398.788,102.083L399.103,112.111L399.182,111.43L399.339,106.354L399.418,107.654L399.575,120.716L399.654,129.321L399.733,127.464L400.126,78.373L400.205,81.035L400.519,113.164L400.677,118.797L400.834,117.992L400.991,123.254L401.07,125.916L401.228,122.45L401.306,119.354L401.7,89.392L402.014,117.559L402.093,114.34L402.329,97.688L402.408,99.916L402.722,134.335L403.116,94.654L403.195,97.378L403.273,100.597L403.431,92.859L403.509,94.654L403.745,126.535L403.824,122.573L404.06,101.526L404.139,101.03L404.296,109.078L404.375,107.159L404.532,92.364L404.611,96.883L404.847,135.45L405.083,94.964L405.162,99.049L405.398,120.716L405.555,107.716L405.791,83.264L405.948,105.426L406.184,139.226L406.263,137.678L406.578,108.892L406.657,108.769L406.814,96.202L406.971,87.535L407.129,96.573L407.365,120.84L407.443,119.911L407.679,113.411L407.758,115.269L407.994,132.85L408.152,113.783L408.466,67.354L408.545,71.068L408.938,136.007L409.017,130.683L409.332,71.564L409.489,114.588L409.646,154.393L409.725,148.574L409.961,98.121L410.04,99.111L410.276,116.507L410.512,101.959L410.748,113.164L410.827,112.545L411.063,102.269L411.141,101.773L411.299,103.197L411.377,102.949L411.535,101.092L411.85,116.569L411.928,116.011L412.164,101.526L412.479,125.854L412.794,94.407L412.951,101.959L413.109,111.616L413.266,105.24L413.345,105.735L413.502,113.969L413.581,112.235L413.738,94.902L413.817,95.583L414.053,129.878L414.131,124.492L414.367,95.273L414.682,111.554L414.761,111.678L414.918,110.316L414.997,109.573L415.076,109.945L415.312,120.035L415.39,117.807L415.469,115.764L415.626,122.078L415.705,119.788L416.098,78.806L416.177,83.883L416.649,137.616L416.728,132.602L416.964,108.459L417.043,112.483L417.121,110.935L417.515,91.126L417.829,112.483L417.987,125.05L418.38,91.868L418.459,91.435L418.616,105.178L418.852,126.473L419.088,102.145L419.167,102.33L419.324,111.74L419.403,110.997L419.639,100.288L419.796,107.654L420.033,120.964L420.111,120.097L420.269,113.04L420.347,113.473L420.426,113.659L420.741,100.411L421.213,113.907L421.449,115.578L421.921,90.383L422.236,105.983L422.393,111.059L422.472,110.75L422.629,108.026L422.786,118.611L422.944,131.797L423.022,127.464L423.258,100.721L423.337,99.854L423.495,97.316L423.809,127.031L424.124,107.902L424.203,104.992L424.36,89.888L424.439,92.054L424.675,124.121L424.989,97.626L425.068,98.926L425.147,101.711L425.226,101.649L425.304,99.73L425.383,100.783L425.619,134.583L425.698,133.778L426.17,87.473L426.248,90.197L426.484,117.188L426.799,100.349L427.035,122.45L427.114,121.15L427.429,104.559L427.665,90.507L427.743,90.321L427.901,101.278L428.137,113.907L428.373,121.645L428.452,120.531L428.53,117.992L428.609,118.735L428.766,122.202L428.845,122.326L428.924,119.354L429.238,84.873L429.317,90.63L429.553,125.173L429.632,123.44L429.946,92.302L430.104,105.611L430.261,114.154L430.34,113.473L430.576,96.635L430.655,99.173L431.048,123.997L431.127,124.926L431.284,115.207L431.52,98.121L431.756,111.802L431.835,110.75L432.228,101.897L432.464,112.359L432.543,111.616L432.622,112.545L432.7,111.307L432.858,105.983L433.094,122.883L433.33,81.716L433.408,85.616L433.723,130.683L433.959,108.954L434.195,122.883L434.353,106.973L434.51,92.488L434.589,92.797L434.746,98.121" style="fill:none;fill-rule:nonzero;stroke:rgb(31,119,180);stroke-width:1.5px;stroke-linecap:square;"/>
            </g>
            <g transform="matrix(1,0,0,1,0,89.2503)">
                <path d="M352.212,123.893L438.676,123.893" style="fill:none;fill-rule:nonzero;stroke:rgb(255,165,0);stroke-width:1.5px;stroke-dasharray:5.55,2.4;"/>
            </g>
        </g>
    </g>
    <g transform="matrix(0,-1,-1,0,444.452,597.009)">
        <path d="M283.844,92.24L420.581,92.24" style="fill:none;fill-rule:nonzero;stroke:black;stroke-width:0.8px;stroke-linecap:square;stroke-linejoin:miter;"/>
    </g>
    <g transform="matrix(0,-1,-1,0,530.916,683.473)">
        <path d="M370.308,92.24L507.044,92.24" style="fill:none;fill-rule:nonzero;stroke:black;stroke-width:0.8px;stroke-linecap:square;stroke-linejoin:miter;"/>
    </g>
    <g transform="matrix(1,0,0,1,0,289.293)">
        <path d="M352.212,23.872L438.676,23.872" style="fill:none;fill-rule:nonzero;stroke:black;stroke-width:0.8px;stroke-linecap:square;stroke-linejoin:miter;"/>
    </g>
    <g transform="matrix(1,0,0,1,0,15.821)">
        <path d="M352.212,160.608L438.676,160.608" style="fill:none;fill-rule:nonzero;stroke:black;stroke-width:0.8px;stroke-linecap:square;stroke-linejoin:miter;"/>
    </g>
</svg>
