<svg xmlns="http://www.w3.org/2000/svg" height="24" width="24"><path d="m19.2 20.775-7.15-7.15L9.3 16.35q.225.375.313.8.087.425.087.85 0 1.5-1.075 2.575Q7.55 21.65 6.05 21.65q-1.525 0-2.6-1.075Q2.375 19.5 2.375 18q0-1.5 1.075-2.575 1.075-1.075 2.6-1.075.425 0 .85.088.425.087.8.287L10.425 12 7.7 9.275q-.375.2-.8.287-.425.088-.85.088-1.525 0-2.6-1.075Q2.375 7.5 2.375 6q0-1.5 1.075-2.575Q4.525 2.35 6.025 2.35q1.525 0 2.6 1.075Q9.7 4.5 9.7 6q0 .425-.087.85-.088.425-.313.8l12.325 12.3v.825Zm-4.4-9.925-1.6-1.625 6-6h2.425v.825Zm-8.75-2.7q.875 0 1.513-.625Q8.2 6.9 8.2 6q0-.9-.637-1.525-.638-.625-1.513-.625-.9 0-1.537.625Q3.875 5.1 3.875 6q0 .9.638 1.525.637.625 1.537.625Zm6 4.1q.1 0 .175-.075.075-.075.075-.175 0-.1-.075-.175-.075-.075-.175-.075-.1 0-.175.075-.075.075-.075.175 0 .1.075.175.075.075.175.075Zm-6 7.9q.875 0 1.513-.625Q8.2 18.9 8.2 18q0-.9-.637-1.525-.638-.625-1.513-.625-.9 0-1.537.625-.638.625-.638 1.525 0 .9.638 1.525.637.625 1.537.625Z"/></svg>