<?xml version="1.0" encoding="UTF-8" standalone="no"?>
<!DOCTYPE svg PUBLIC "-//W3C//DTD SVG 1.1//EN" "http://www.w3.org/Graphics/SVG/1.1/DTD/svg11.dtd">
<svg width="100%" height="100%" viewBox="0 0 24 24" version="1.1" xmlns="http://www.w3.org/2000/svg" xmlns:xlink="http://www.w3.org/1999/xlink" xml:space="preserve" xmlns:serif="http://www.serif.com/" style="fill-rule:evenodd;clip-rule:evenodd;stroke-linejoin:round;stroke-miterlimit:2;">
    <g>
        <rect x="0" y="0" width="24" height="24" style="fill:none;"/>
    </g>
    <g>
        <g>
            <path d="M22,20.59L17.31,15.9C18.37,14.55 19,12.85 19,11C19,6.58 15.42,3 11,3C6.92,3 3.56,6.05 3.07,10L5.09,10C5.57,7.17 8.03,5 11,5C14.31,5 17,7.69 17,11C17,14.31 14.31,17 11,17C8.58,17 6.5,15.56 5.55,13.5L3.4,13.5C4.45,16.69 7.46,19 11,19C12.85,19 14.55,18.37 15.9,17.31L20.59,22L22,20.59Z" style="fill:rgb(56,118,173);fill-rule:nonzero;"/>
            <path d="M8.43,9.69L9.65,15L11.29,15L12.55,11.22L13.5,13.5L15.5,13.5L15.5,12L14.5,12L13.25,9L11.71,9L10.59,12.37L9.35,7L7.7,7L6.45,11L1,11L1,12.5L7.55,12.5L8.43,9.69Z" style="fill:rgb(56,118,173);fill-rule:nonzero;"/>
        </g>
    </g>
</svg>
