<?xml version="1.0" encoding="UTF-8" standalone="no"?>
<!DOCTYPE svg PUBLIC "-//W3C//DTD SVG 1.1//EN" "http://www.w3.org/Graphics/SVG/1.1/DTD/svg11.dtd">
<svg width="100%" height="100%" viewBox="0 0 24 24" version="1.1" xmlns="http://www.w3.org/2000/svg" xmlns:xlink="http://www.w3.org/1999/xlink" xml:space="preserve" xmlns:serif="http://www.serif.com/" style="fill-rule:evenodd;clip-rule:evenodd;stroke-linejoin:round;stroke-miterlimit:2;">
    <path d="M3,14.5C2.867,14.5 2.75,14.45 2.65,14.35C2.55,14.25 2.5,14.133 2.5,14C2.5,13.867 2.55,13.75 2.65,13.65C2.75,13.55 2.867,13.5 3,13.5C3.133,13.5 3.25,13.55 3.35,13.65C3.45,13.75 3.5,13.867 3.5,14C3.5,14.133 3.45,14.25 3.35,14.35C3.25,14.45 3.133,14.5 3,14.5ZM3,10.5C2.867,10.5 2.75,10.45 2.65,10.35C2.55,10.25 2.5,10.133 2.5,10C2.5,9.867 2.55,9.75 2.65,9.65C2.75,9.55 2.867,9.5 3,9.5C3.133,9.5 3.25,9.55 3.35,9.65C3.45,9.75 3.5,9.867 3.5,10C3.5,10.133 3.45,10.25 3.35,10.35C3.25,10.45 3.133,10.5 3,10.5ZM6,18.925C5.733,18.925 5.513,18.838 5.338,18.663C5.163,18.488 5.075,18.267 5.075,18C5.075,17.733 5.163,17.512 5.338,17.337C5.513,17.162 5.733,17.075 6,17.075C6.267,17.075 6.488,17.162 6.663,17.337C6.838,17.512 6.925,17.733 6.925,18C6.925,18.267 6.838,18.488 6.663,18.663C6.488,18.838 6.267,18.925 6,18.925ZM6,14.925C5.733,14.925 5.513,14.837 5.338,14.662C5.163,14.487 5.075,14.267 5.075,14C5.075,13.733 5.163,13.512 5.338,13.337C5.513,13.162 5.733,13.075 6,13.075C6.267,13.075 6.488,13.162 6.663,13.337C6.838,13.512 6.925,13.733 6.925,14C6.925,14.267 6.838,14.487 6.663,14.662C6.488,14.837 6.267,14.925 6,14.925ZM6,10.925C5.733,10.925 5.513,10.837 5.338,10.662C5.163,10.487 5.075,10.267 5.075,10C5.075,9.733 5.163,9.512 5.338,9.337C5.513,9.162 5.733,9.075 6,9.075C6.267,9.075 6.488,9.162 6.663,9.337C6.838,9.512 6.925,9.733 6.925,10C6.925,10.267 6.838,10.487 6.663,10.662C6.488,10.837 6.267,10.925 6,10.925ZM6,6.925C5.733,6.925 5.513,6.837 5.338,6.662C5.163,6.487 5.075,6.267 5.075,6C5.075,5.733 5.163,5.512 5.338,5.337C5.513,5.162 5.733,5.075 6,5.075C6.267,5.075 6.488,5.162 6.663,5.337C6.838,5.512 6.925,5.733 6.925,6C6.925,6.267 6.838,6.487 6.663,6.662C6.488,6.837 6.267,6.925 6,6.925ZM10,15.35C9.633,15.35 9.317,15.217 9.05,14.95C8.783,14.683 8.65,14.367 8.65,14C8.65,13.633 8.783,13.317 9.05,13.05C9.317,12.783 9.633,12.65 10,12.65C10.367,12.65 10.683,12.783 10.95,13.05C11.217,13.317 11.35,13.633 11.35,14C11.35,14.367 11.217,14.683 10.95,14.95C10.683,15.217 10.367,15.35 10,15.35ZM10,11.35C9.633,11.35 9.317,11.217 9.05,10.95C8.783,10.683 8.65,10.367 8.65,10C8.65,9.633 8.783,9.317 9.05,9.05C9.317,8.783 9.633,8.65 10,8.65C10.367,8.65 10.683,8.783 10.95,9.05C11.217,9.317 11.35,9.633 11.35,10C11.35,10.367 11.217,10.683 10.95,10.95C10.683,11.217 10.367,11.35 10,11.35ZM10,18.925C9.733,18.925 9.513,18.838 9.338,18.663C9.163,18.488 9.075,18.267 9.075,18C9.075,17.733 9.163,17.512 9.338,17.337C9.513,17.162 9.733,17.075 10,17.075C10.267,17.075 10.488,17.162 10.663,17.337C10.838,17.512 10.925,17.733 10.925,18C10.925,18.267 10.838,18.488 10.663,18.663C10.488,18.838 10.267,18.925 10,18.925ZM10,6.925C9.733,6.925 9.513,6.837 9.338,6.662C9.163,6.487 9.075,6.267 9.075,6C9.075,5.733 9.163,5.512 9.338,5.337C9.513,5.162 9.733,5.075 10,5.075C10.267,5.075 10.488,5.162 10.663,5.337C10.838,5.512 10.925,5.733 10.925,6C10.925,6.267 10.838,6.487 10.663,6.662C10.488,6.837 10.267,6.925 10,6.925ZM10,21.5C9.867,21.5 9.75,21.45 9.65,21.35C9.55,21.25 9.5,21.133 9.5,21C9.5,20.867 9.55,20.75 9.65,20.65C9.75,20.55 9.867,20.5 10,20.5C10.133,20.5 10.25,20.55 10.35,20.65C10.45,20.75 10.5,20.867 10.5,21C10.5,21.133 10.45,21.25 10.35,21.35C10.25,21.45 10.133,21.5 10,21.5ZM10,3.5C9.867,3.5 9.75,3.45 9.65,3.35C9.55,3.25 9.5,3.133 9.5,3C9.5,2.867 9.55,2.75 9.65,2.65C9.75,2.55 9.867,2.5 10,2.5C10.133,2.5 10.25,2.55 10.35,2.65C10.45,2.75 10.5,2.867 10.5,3C10.5,3.133 10.45,3.25 10.35,3.35C10.25,3.45 10.133,3.5 10,3.5ZM14,15.35C13.633,15.35 13.317,15.217 13.05,14.95C12.783,14.683 12.65,14.367 12.65,14C12.65,13.633 12.783,13.317 13.05,13.05C13.317,12.783 13.633,12.65 14,12.65C14.367,12.65 14.683,12.783 14.95,13.05C15.217,13.317 15.35,13.633 15.35,14C15.35,14.367 15.217,14.683 14.95,14.95C14.683,15.217 14.367,15.35 14,15.35ZM14,11.35C13.633,11.35 13.317,11.217 13.05,10.95C12.783,10.683 12.65,10.367 12.65,10C12.65,9.633 12.783,9.317 13.05,9.05C13.317,8.783 13.633,8.65 14,8.65C14.367,8.65 14.683,8.783 14.95,9.05C15.217,9.317 15.35,9.633 15.35,10C15.35,10.367 15.217,10.683 14.95,10.95C14.683,11.217 14.367,11.35 14,11.35ZM14,18.925C13.733,18.925 13.513,18.838 13.338,18.663C13.163,18.488 13.075,18.267 13.075,18C13.075,17.733 13.163,17.512 13.338,17.337C13.513,17.162 13.733,17.075 14,17.075C14.267,17.075 14.488,17.162 14.663,17.337C14.838,17.512 14.925,17.733 14.925,18C14.925,18.267 14.838,18.488 14.663,18.663C14.488,18.838 14.267,18.925 14,18.925ZM14,6.925C13.733,6.925 13.513,6.837 13.338,6.662C13.163,6.487 13.075,6.267 13.075,6C13.075,5.733 13.163,5.512 13.338,5.337C13.513,5.162 13.733,5.075 14,5.075C14.267,5.075 14.488,5.162 14.663,5.337C14.838,5.512 14.925,5.733 14.925,6C14.925,6.267 14.838,6.487 14.663,6.662C14.488,6.837 14.267,6.925 14,6.925ZM14,21.5C13.867,21.5 13.75,21.45 13.65,21.35C13.55,21.25 13.5,21.133 13.5,21C13.5,20.867 13.55,20.75 13.65,20.65C13.75,20.55 13.867,20.5 14,20.5C14.133,20.5 14.25,20.55 14.35,20.65C14.45,20.75 14.5,20.867 14.5,21C14.5,21.133 14.45,21.25 14.35,21.35C14.25,21.45 14.133,21.5 14,21.5ZM14,3.5C13.867,3.5 13.75,3.45 13.65,3.35C13.55,3.25 13.5,3.133 13.5,3C13.5,2.867 13.55,2.75 13.65,2.65C13.75,2.55 13.867,2.5 14,2.5C14.133,2.5 14.25,2.55 14.35,2.65C14.45,2.75 14.5,2.867 14.5,3C14.5,3.133 14.45,3.25 14.35,3.35C14.25,3.45 14.133,3.5 14,3.5ZM18,18.925C17.733,18.925 17.512,18.838 17.337,18.663C17.162,18.488 17.075,18.267 17.075,18C17.075,17.733 17.162,17.512 17.337,17.337C17.512,17.162 17.733,17.075 18,17.075C18.267,17.075 18.488,17.162 18.663,17.337C18.838,17.512 18.925,17.733 18.925,18C18.925,18.267 18.838,18.488 18.663,18.663C18.488,18.838 18.267,18.925 18,18.925ZM18,14.925C17.733,14.925 17.512,14.837 17.337,14.662C17.162,14.487 17.075,14.267 17.075,14C17.075,13.733 17.162,13.512 17.337,13.337C17.512,13.162 17.733,13.075 18,13.075C18.267,13.075 18.488,13.162 18.663,13.337C18.838,13.512 18.925,13.733 18.925,14C18.925,14.267 18.838,14.487 18.663,14.662C18.488,14.837 18.267,14.925 18,14.925ZM18,10.925C17.733,10.925 17.512,10.837 17.337,10.662C17.162,10.487 17.075,10.267 17.075,10C17.075,9.733 17.162,9.512 17.337,9.337C17.512,9.162 17.733,9.075 18,9.075C18.267,9.075 18.488,9.162 18.663,9.337C18.838,9.512 18.925,9.733 18.925,10C18.925,10.267 18.838,10.487 18.663,10.662C18.488,10.837 18.267,10.925 18,10.925ZM18,6.925C17.733,6.925 17.512,6.837 17.337,6.662C17.162,6.487 17.075,6.267 17.075,6C17.075,5.733 17.162,5.512 17.337,5.337C17.512,5.162 17.733,5.075 18,5.075C18.267,5.075 18.488,5.162 18.663,5.337C18.838,5.512 18.925,5.733 18.925,6C18.925,6.267 18.838,6.487 18.663,6.662C18.488,6.837 18.267,6.925 18,6.925ZM21,14.5C20.867,14.5 20.75,14.45 20.65,14.35C20.55,14.25 20.5,14.133 20.5,14C20.5,13.867 20.55,13.75 20.65,13.65C20.75,13.55 20.867,13.5 21,13.5C21.133,13.5 21.25,13.55 21.35,13.65C21.45,13.75 21.5,13.867 21.5,14C21.5,14.133 21.45,14.25 21.35,14.35C21.25,14.45 21.133,14.5 21,14.5ZM21,10.5C20.867,10.5 20.75,10.45 20.65,10.35C20.55,10.25 20.5,10.133 20.5,10C20.5,9.867 20.55,9.75 20.65,9.65C20.75,9.55 20.867,9.5 21,9.5C21.133,9.5 21.25,9.55 21.35,9.65C21.45,9.75 21.5,9.867 21.5,10C21.5,10.133 21.45,10.25 21.35,10.35C21.25,10.45 21.133,10.5 21,10.5Z" style="fill:rgb(56,118,173);fill-rule:nonzero;"/>
</svg>
