<?xml version="1.0" encoding="utf-8"?>

<!DOCTYPE svg PUBLIC "-//W3C//DTD SVG 1.1//EN" "http://www.w3.org/Graphics/SVG/1.1/DTD/svg11.dtd">
<svg version="1.1" id="Layer_1" xmlns="http://www.w3.org/2000/svg" xmlns:xlink="http://www.w3.org/1999/xlink" x="0px" y="0px"
	 viewBox="0 0 395 276" enable-background="new 0 0 395 276" xml:space="preserve">
<g>
	<path d="M288.75,4.79c0.97-0.01,2.68-1.14,3.21,0.08c6.37,12.95,6.76,28.02,4.7,42.06c-2.65,15.61-7.28,30.8-11.4,46.06
		c-0.58,1.63,0.51,3.14,1.24,4.51c2.88,4.5,4.52,9.63,6.4,14.59c2.96,8.68,2.52,17.9,2.98,26.91c0.12,3.8-0.48,7.74,0.6,11.43
		c2.75,3.87,6.2,7.24,9.89,10.21c2.39,1.99,5.69,3.04,7.35,5.81c0.55,1.7-1.05,3.11-2.27,4.01c-5.21,3.33-11.83,4.31-16.31,8.78
		c-2.4,2.08-1.94,5.75-0.9,8.39c3,4.02,8.49,0.36,12.42,1.86c2.09,2.67,0.9,6.7-1.39,8.88c-4.88,4.67-11.54,6.59-17.71,8.89
		c-1.69,0.62-4.13,2.23-3.17,4.33c4.12,4.27,11.48,2.55,15.32,7.25c-5.36,6.09-13.29,9.02-20.36,12.64
		c-15.35,7.85-31.58,14.01-48.41,17.79c-3.7,0.94-7.5,1.52-11.04,3.01c5.43,5.43,9.95,12.17,11.81,19.69
		c0.63,1.51-0.82,2.55-1.58,3.65c-26.73-0.21-53.48-0.08-80.22,0.38h-36.68c0.07-1.73-0.16-3.6,0.82-5.14
		c2.99-5.44,7.23-10.13,9.67-15.89c-6.83-0.06-13.23-2.71-19.83-4.14c-19.28-5.79-38.59-12.82-55-24.75
		c-1.96-1.32-3.83-2.82-5.22-4.74c-0.84-1.02-2.07-2.94-0.34-3.79c5.28-1.14,11.06-0.64,15.9-3.34c-5.88-2.12-12.27-2.7-17.86-5.68
		c-4.63-1.89-9.07-5.47-9.63-10.77c4.05,0.02,8.16,0.44,12.17-0.23c2.57-0.83,2.42-4.45,0.48-5.89
		c-6.49-6.37-15.41-9.27-22.87-14.25c-1.41-0.97-3.18-2.9-1.9-4.63c2.81-1.75,6.28-1.64,9.3-2.87c5.78-2.32,11.86-5.55,14.78-11.33
		c1.93-3.62,0.22-7.68,0.16-11.49c-0.02-6.19-0.5-12.44,0.49-18.58c1.57-10.95,4.09-22.05,9.69-31.7c-0.43-3.38-2.01-6.5-2.94-9.76
		c-3.81-12.13-7.4-24.35-9.6-36.89c-3.18-14.13-2.38-29.11,1.85-42.94c0.2-1.82,1.96-1.32,3.17-0.92
		c6.57,1.96,13.01,4.36,19.32,7.05c16.02,6.12,29.73,16.76,43.03,27.33c22.08-11.01,47.22-16.29,71.84-13.94
		c12.31,1.12,24.66,3,36.41,6.93c4.59,1.49,8.88,4.13,13.54,5.17c9.92-9.05,20.54-17.55,32.49-23.81
		C271.43,11,279.98,7.57,288.75,4.79 M267.75,31.8c-7.51,3.24-13.98,8.45-19.93,13.98c-0.82,0.91-2.84,2.37-1.1,3.46
		c9.13,6.88,17.12,15.07,24.8,23.49c1-4.82,2.59-9.49,3.82-14.25c1.36-6.39,1.99-12.92,2.12-19.44c-0.05-2.79,0.12-6.29-2.5-8.04
		C272.61,30.02,269.99,30.91,267.75,31.8 M60.47,34.99c-2.3,14.23,2.58,28.26,6.42,41.79C73.62,66.38,82,56.84,92.05,49.53
		c-7.48-6.98-16.07-13.27-25.95-16.31C64.18,32.44,61.05,32.54,60.47,34.99 M233.47,124.59c-3.73,1.23-7.34,3.01-10.39,5.5
		c-7.83,6.93-11.18,17.64-11.17,27.84c0.52,9.21,5.71,17.62,12.63,23.49c8.7,7,21.01,9.09,31.58,5.61
		c12.04-4.52,19.93-17.39,19.72-30.08c0.17-11.77-6.38-23.43-16.7-29.16C251.43,123.39,242.03,122.91,233.47,124.59 M90.44,125.64
		c-20.48,4.83-30.68,32.04-19.75,49.6c5.47,9.44,16.41,15.07,27.24,14.7c11.91,0.39,22.94-7.41,28.23-17.79
		c6.75-12.68,4.84-30.48-6.64-39.83C111.58,125.64,100.49,123.3,90.44,125.64 M147.65,196.73c-0.56,5.74,1.57,11.37,4.54,16.17
		c3.03,4.95,7.84,9.14,13.74,10.03c6.79,1.2,14.76,0.98,20.08-4.01c6.14-5.72,8.99-14.38,8.69-22.65
		C179.01,196.35,163.34,196.67,147.65,196.73z"/>
	<path fill="#FFFFFF" d="M267.75,31.8c2.24-0.89,4.86-1.78,7.21-0.8c2.62,1.75,2.45,5.25,2.5,8.04c-0.13,6.52-0.76,13.05-2.12,19.44
		c-1.23,4.76-2.82,9.43-3.82,14.25c-7.68-8.42-15.67-16.61-24.8-23.49c-1.74-1.09,0.28-2.55,1.1-3.46
		C253.77,40.25,260.24,35.04,267.75,31.8z"/>
	<path fill="#FFFFFF" d="M60.47,34.99c0.58-2.45,3.71-2.55,5.63-1.77c9.88,3.04,18.47,9.33,25.95,16.31
		C82,56.84,73.62,66.38,66.89,76.78C63.05,63.25,58.17,49.22,60.47,34.99z"/>
	<path fill="#FFFFFF" d="M233.47,124.59c8.56-1.68,17.96-1.2,25.67,3.2c10.32,5.73,16.87,17.39,16.7,29.16
		c0.21,12.69-7.68,25.56-19.72,30.08c-10.57,3.48-22.88,1.39-31.58-5.61c-6.92-5.87-12.11-14.28-12.63-23.49
		c-0.01-10.2,3.34-20.91,11.17-27.84C226.13,127.6,229.74,125.82,233.47,124.59 M238.56,132.67c-6.82,1.54-13.14,6.3-15.91,12.79
		c-2.22,6.97-2.82,15.17,1.2,21.63c3.9,7.66,12.35,13.3,21.12,12.54c11.41,0.35,21.63-9.45,22.52-20.67
		c0.42-7.58-2.19-15.59-8.05-20.62C253.86,133.26,245.91,131.42,238.56,132.67z"/>
	<path fill="#FFFFFF" d="M90.44,125.64c10.05-2.34,21.14,0,29.08,6.68c11.48,9.35,13.39,27.15,6.64,39.83
		c-5.29,10.38-16.32,18.18-28.23,17.79c-10.83,0.37-21.77-5.26-27.24-14.7C59.76,157.68,69.96,130.47,90.44,125.64 M93.09,134.11
		c-8.39,1.89-15.68,8.52-17.62,17.01c-0.55,4.57-1.34,9.39,0.23,13.85c2.1,7.1,7.68,13.13,14.82,15.33
		c8.24,1.94,17.44-0.2,23.5-6.28c4.72-5.08,8.3-11.84,7.38-18.97C121.09,141.29,106.39,130.32,93.09,134.11z"/>
	<path d="M238.56,132.67c7.35-1.25,15.3,0.59,20.88,5.67c5.86,5.03,8.47,13.04,8.05,20.62c-0.89,11.22-11.11,21.02-22.52,20.67
		c-8.77,0.76-17.22-4.88-21.12-12.54c-4.02-6.46-3.42-14.66-1.2-21.63C225.42,138.97,231.74,134.21,238.56,132.67z"/>
	<path d="M93.09,134.11c13.3-3.79,28,7.18,28.31,20.94c0.92,7.13-2.66,13.89-7.38,18.97c-6.06,6.08-15.26,8.22-23.5,6.28
		c-7.14-2.2-12.72-8.23-14.82-15.33c-1.57-4.46-0.78-9.28-0.23-13.85C77.41,142.63,84.7,136,93.09,134.11z"/>
	<path d="M337.23,185.17c8.88-4.66,20-4.45,28.94-0.06c12.63,5.95,20.76,20.03,20.03,33.9c-0.26,5.24-6.36,9.56-11.29,7.09
		c-3.82-1.59-4.14-6.11-5.72-9.38c-2.52-5.5-6.87-11.13-13.27-11.98c-6.12-1.17-13.19,2.06-14.99,8.31
		c-3.99,12.69,0.11,25.97-0.61,38.9c0.04,5.78-0.56,11.81-3.51,16.91c-1.43,2.43-3.23,5.15-6.22,5.69
		c-7.63,0.45-15.26,0.03-22.87-0.43c-1.2-4.62,3.3-7.53,6.28-10.13c4.71-3.28,6.65-9.31,6.37-14.84
		c-1.04-13.38-3.28-26.87-1.21-40.27C321.11,198.76,327.83,189.54,337.23,185.17z"/>
	<path fill="#FFFFFF" d="M147.65,196.73c15.69-0.06,31.36-0.38,47.05-0.46c0.3,8.27-2.55,16.93-8.69,22.65
		c-5.32,4.99-13.29,5.21-20.08,4.01c-5.9-0.89-10.71-5.08-13.74-10.03C149.22,208.1,147.09,202.47,147.65,196.73z"/>
	<path d="M59.4,261.38c7.44-3.26,15.82-3.45,23.73-2.16c6.81,1.59,13.6,4.95,17.66,10.82c0.24,1.7,0.63,4.71-1.69,5.1
		c-6.67,0.3-13.37,0.13-20.05,0.16c-9.6-0.13-19.26,0.45-28.8-0.59c-0.16-1.91-0.43-3.82-0.31-5.73
		C51.42,264.91,55.72,263.01,59.4,261.38z"/>
	<path d="M244.71,263.67c3.19-3.88,8.5-4.47,13.18-4.82c6.1-0.19,12.22,0.15,18.23,1.28c4.26,0.86,8.72-0.57,12.91,0.72
		c2.18,4.43,2.25,9.65,2.48,14.51c-16.86-0.1-33.72,0.07-50.57-0.13C241.41,271.22,241.69,266.71,244.71,263.67z"/>
</g>
</svg>
