<?xml version="1.0" encoding="UTF-8" standalone="no"?>
<!DOCTYPE svg PUBLIC "-//W3C//DTD SVG 1.1//EN" "http://www.w3.org/Graphics/SVG/1.1/DTD/svg11.dtd">
<svg width="100%" height="100%" viewBox="0 0 24 24" version="1.1" xmlns="http://www.w3.org/2000/svg" xmlns:xlink="http://www.w3.org/1999/xlink" xml:space="preserve" xmlns:serif="http://www.serif.com/" style="fill-rule:evenodd;clip-rule:evenodd;stroke-linejoin:round;stroke-miterlimit:2;">
    <path d="M11.25,16.75L12.75,16.75L12.75,11L11.25,11L11.25,16.75ZM12,9.3C12.233,9.3 12.425,9.221 12.575,9.062C12.725,8.904 12.8,8.708 12.8,8.475C12.8,8.258 12.725,8.071 12.575,7.912C12.425,7.754 12.233,7.675 12,7.675C11.767,7.675 11.575,7.754 11.425,7.912C11.275,8.071 11.2,8.258 11.2,8.475C11.2,8.708 11.275,8.904 11.425,9.062C11.575,9.221 11.767,9.3 12,9.3ZM12,21.5C10.683,21.5 9.446,21.25 8.288,20.75C7.129,20.25 6.125,19.575 5.275,18.725C4.425,17.875 3.75,16.871 3.25,15.712C2.75,14.554 2.5,13.317 2.5,12C2.5,10.683 2.75,9.446 3.25,8.287C3.75,7.129 4.425,6.125 5.275,5.275C6.125,4.425 7.129,3.75 8.288,3.25C9.446,2.75 10.683,2.5 12,2.5C13.317,2.5 14.554,2.75 15.713,3.25C16.871,3.75 17.875,4.425 18.725,5.275C19.575,6.125 20.25,7.129 20.75,8.287C21.25,9.446 21.5,10.683 21.5,12C21.5,13.317 21.25,14.554 20.75,15.712C20.25,16.871 19.575,17.875 18.725,18.725C17.875,19.575 16.871,20.25 15.713,20.75C14.554,21.25 13.317,21.5 12,21.5ZM12,20C14.233,20 16.125,19.225 17.675,17.675C19.225,16.125 20,14.233 20,12C20,9.767 19.225,7.875 17.675,6.325C16.125,4.775 14.233,4 12,4C9.767,4 7.875,4.775 6.325,6.325C4.775,7.875 4,9.767 4,12C4,14.233 4.775,16.125 6.325,17.675C7.875,19.225 9.767,20 12,20Z" style="fill:rgb(56,118,173);fill-rule:nonzero;"/>
</svg>
