<?xml version="1.0" encoding="UTF-8" standalone="no"?>
<!DOCTYPE svg PUBLIC "-//W3C//DTD SVG 1.1//EN" "http://www.w3.org/Graphics/SVG/1.1/DTD/svg11.dtd">
<svg width="100%" height="100%" viewBox="0 0 24 24" version="1.1" xmlns="http://www.w3.org/2000/svg" xmlns:xlink="http://www.w3.org/1999/xlink" xml:space="preserve" xmlns:serif="http://www.serif.com/" style="fill-rule:evenodd;clip-rule:evenodd;stroke-linejoin:round;stroke-miterlimit:2;">
    <path d="M7.375,16.75L8.875,16.75L8.875,10.25L7.375,10.25L7.375,16.75ZM11.25,16.75L12.75,16.75L12.75,7.25L11.25,7.25L11.25,16.75ZM15.125,16.75L16.625,16.75L16.625,13.25L15.125,13.25L15.125,16.75ZM5.3,20.5C4.8,20.5 4.375,20.325 4.025,19.975C3.675,19.625 3.5,19.2 3.5,18.7L3.5,5.3C3.5,4.8 3.675,4.375 4.025,4.025C4.375,3.675 4.8,3.5 5.3,3.5L18.7,3.5C19.2,3.5 19.625,3.675 19.975,4.025C20.325,4.375 20.5,4.8 20.5,5.3L20.5,18.7C20.5,19.2 20.325,19.625 19.975,19.975C19.625,20.325 19.2,20.5 18.7,20.5L5.3,20.5ZM5.3,19L18.7,19C18.767,19 18.833,18.967 18.9,18.9C18.967,18.833 19,18.767 19,18.7L19,5.3C19,5.233 18.967,5.167 18.9,5.1C18.833,5.033 18.767,5 18.7,5L5.3,5C5.233,5 5.167,5.033 5.1,5.1C5.033,5.167 5,5.233 5,5.3L5,18.7C5,18.767 5.033,18.833 5.1,18.9C5.167,18.967 5.233,19 5.3,19ZM5,5L5,19L5,5Z" style="fill:rgb(56,118,173);fill-rule:nonzero;"/>
</svg>
