<?xml version="1.0" encoding="UTF-8" standalone="no"?>
<!DOCTYPE svg PUBLIC "-//W3C//DTD SVG 1.1//EN" "http://www.w3.org/Graphics/SVG/1.1/DTD/svg11.dtd">
<svg width="100%" height="100%" viewBox="0 0 24 24" version="1.1" xmlns="http://www.w3.org/2000/svg" xmlns:xlink="http://www.w3.org/1999/xlink" xml:space="preserve" xmlns:serif="http://www.serif.com/" style="fill-rule:evenodd;clip-rule:evenodd;stroke-linejoin:round;stroke-miterlimit:2;">
    <path d="M12,17.45C13.217,17.45 14.262,17.012 15.137,16.137C16.012,15.262 16.45,14.217 16.45,13C16.45,11.783 16.012,10.737 15.137,9.862C14.262,8.987 13.217,8.55 12,8.55C11.333,8.55 10.729,8.687 10.188,8.962C9.646,9.237 9.183,9.575 8.8,9.975L8.8,8.35L7.6,8.35L7.6,12.1L11.35,12.1L11.35,10.9L9.575,10.9C9.842,10.567 10.188,10.292 10.613,10.075C11.038,9.858 11.5,9.75 12,9.75C12.9,9.75 13.667,10.067 14.3,10.7C14.933,11.333 15.25,12.1 15.25,13C15.25,13.9 14.933,14.667 14.3,15.3C13.667,15.933 12.9,16.25 12,16.25C11.267,16.25 10.625,16.038 10.075,15.613C9.525,15.188 9.133,14.65 8.9,14L7.65,14C7.9,15.033 8.425,15.867 9.225,16.5C10.025,17.133 10.95,17.45 12,17.45ZM6.3,21.5C5.8,21.5 5.375,21.325 5.025,20.975C4.675,20.625 4.5,20.2 4.5,19.7L4.5,4.3C4.5,3.8 4.675,3.375 5.025,3.025C5.375,2.675 5.8,2.5 6.3,2.5L13.8,2.5L19.5,8.2L19.5,19.7C19.5,20.2 19.325,20.625 18.975,20.975C18.625,21.325 18.2,21.5 17.7,21.5L6.3,21.5ZM6.3,20L17.7,20C17.767,20 17.833,19.967 17.9,19.9C17.967,19.833 18,19.767 18,19.7L18,8.85L13.15,4L6.3,4C6.233,4 6.167,4.033 6.1,4.1C6.033,4.167 6,4.233 6,4.3L6,19.7C6,19.767 6.033,19.833 6.1,19.9C6.167,19.967 6.233,20 6.3,20ZM6,20L6,4L6,20Z" style="fill:rgb(56,118,173);fill-rule:nonzero;"/>
</svg>
