<?xml version="1.0" encoding="UTF-8" standalone="no"?>
<!DOCTYPE svg PUBLIC "-//W3C//DTD SVG 1.1//EN" "http://www.w3.org/Graphics/SVG/1.1/DTD/svg11.dtd">
<svg width="100%" height="100%" viewBox="0 0 24 24" version="1.1" xmlns="http://www.w3.org/2000/svg" xmlns:xlink="http://www.w3.org/1999/xlink" xml:space="preserve" xmlns:serif="http://www.serif.com/" style="fill-rule:evenodd;clip-rule:evenodd;stroke-linejoin:round;stroke-miterlimit:2;">
    <path d="M5.425,10.625L7.625,11.55C7.892,11 8.179,10.475 8.488,9.975C8.796,9.475 9.133,8.975 9.5,8.475L8.05,8.2C7.983,8.183 7.929,8.183 7.888,8.2C7.846,8.217 7.8,8.242 7.75,8.275L5.425,10.625ZM8.825,12.5L11.65,15.325C12.4,15.008 13.175,14.575 13.975,14.025C14.775,13.475 15.533,12.842 16.25,12.125C17.367,11.008 18.233,9.787 18.85,8.462C19.467,7.137 19.775,5.775 19.775,4.375C18.375,4.375 17.013,4.679 15.688,5.287C14.363,5.896 13.133,6.767 12,7.9C11.283,8.617 10.65,9.375 10.1,10.175C9.55,10.975 9.125,11.75 8.825,12.5ZM13.625,10.5C13.292,10.15 13.125,9.733 13.125,9.25C13.125,8.767 13.292,8.358 13.625,8.025C13.975,7.692 14.396,7.525 14.887,7.525C15.379,7.525 15.792,7.692 16.125,8.025C16.458,8.358 16.625,8.767 16.625,9.25C16.625,9.733 16.458,10.15 16.125,10.5C15.792,10.833 15.379,11 14.887,11C14.396,11 13.975,10.833 13.625,10.5ZM13.525,18.725L15.85,16.4C15.9,16.35 15.933,16.304 15.95,16.262C15.967,16.221 15.967,16.167 15.95,16.1L15.65,14.65C15.167,15.017 14.671,15.35 14.163,15.65C13.654,15.95 13.133,16.242 12.6,16.525L13.525,18.725ZM21.125,3C21.342,4.933 21.117,6.762 20.45,8.487C19.783,10.212 18.683,11.842 17.15,13.375L17.062,13.462L16.975,13.55L17.425,15.8C17.475,16.1 17.458,16.396 17.375,16.688C17.292,16.979 17.142,17.225 16.925,17.425L13,21.35L11.125,16.925L7.2,13L2.8,11.125L6.7,7.2C6.9,7 7.146,6.854 7.438,6.762C7.729,6.671 8.025,6.65 8.325,6.7L10.625,7.175C10.658,7.142 10.683,7.113 10.7,7.088C10.717,7.063 10.742,7.033 10.775,7C12.308,5.467 13.938,4.362 15.663,3.687C17.388,3.012 19.208,2.783 21.125,3ZM4.525,16.075C5.008,15.592 5.6,15.346 6.3,15.337C7,15.329 7.592,15.575 8.075,16.075C8.575,16.558 8.821,17.15 8.812,17.85C8.804,18.55 8.558,19.142 8.075,19.625C7.692,20.008 7.071,20.333 6.213,20.6C5.354,20.867 4.242,21.083 2.875,21.25C3.042,19.9 3.263,18.796 3.538,17.938C3.813,17.079 4.142,16.458 4.525,16.075ZM5.6,17.125C5.417,17.308 5.242,17.621 5.075,18.062C4.908,18.504 4.792,18.95 4.725,19.4C5.192,19.35 5.642,19.242 6.075,19.075C6.508,18.908 6.817,18.733 7,18.55C7.2,18.35 7.304,18.108 7.312,17.825C7.321,17.542 7.225,17.3 7.025,17.1C6.825,16.9 6.587,16.804 6.312,16.812C6.037,16.821 5.8,16.925 5.6,17.125Z" style="fill:rgb(56,118,173);fill-rule:nonzero;"/>
</svg>
