<?xml version="1.0" encoding="UTF-8" standalone="no"?>
<!DOCTYPE svg PUBLIC "-//W3C//DTD SVG 1.1//EN" "http://www.w3.org/Graphics/SVG/1.1/DTD/svg11.dtd">
<svg width="100%" height="100%" viewBox="0 0 24 24" version="1.1" xmlns="http://www.w3.org/2000/svg" xmlns:xlink="http://www.w3.org/1999/xlink" xml:space="preserve" xmlns:serif="http://www.serif.com/" style="fill-rule:evenodd;clip-rule:evenodd;stroke-linejoin:round;stroke-miterlimit:2;">
    <rect x="0" y="0" width="24" height="24" style="fill:none;"/>
    <path d="M10,13C10.55,13 11,13.45 11,14C11,14.55 10.55,15 10,15C9.45,15 9,14.55 9,14C9,13.45 9.45,13 10,13M10,11C8.34,11 7,12.34 7,14C7,15.66 8.34,17 10,17C11.66,17 13,15.66 13,14C13,12.34 11.66,11 10,11ZM18.5,9L19.59,6.59L22,5.5L19.59,4.41L18.5,2L17.41,4.41L15,5.5L17.41,6.59L18.5,9ZM21.28,12.72L20.5,11L19.72,12.72L18,13.5L19.72,14.28L20.5,16L21.28,14.28L23,13.5L21.28,12.72ZM16.25,14C16.25,13.88 16.25,13.75 16.24,13.63L18.18,12.16L15.68,7.83L13.44,8.77C13.24,8.64 13.02,8.51 12.8,8.4L12.5,6L7.5,6L7.2,8.41C6.98,8.52 6.77,8.65 6.56,8.78L4.32,7.83L1.82,12.16L3.76,13.63C3.75,13.75 3.75,13.88 3.75,14C3.75,14.12 3.75,14.25 3.76,14.37L1.82,15.84L4.32,20.17L6.56,19.23C6.76,19.36 6.98,19.49 7.2,19.6L7.5,22L12.5,22L12.8,19.59C13.02,19.48 13.23,19.36 13.44,19.22L15.68,20.16L18.18,15.83L16.24,14.36C16.25,14.25 16.25,14.12 16.25,14ZM14.83,17.64L13.1,16.91C12.54,17.51 11.8,17.95 10.97,18.14L10.73,20L9.27,20L9.04,18.14C8.21,17.95 7.47,17.51 6.91,16.91L5.18,17.64L4.45,16.37L5.94,15.24C5.82,14.85 5.76,14.44 5.76,14.01C5.76,13.58 5.82,13.17 5.94,12.78L4.45,11.65L5.18,10.38L6.91,11.11C7.47,10.51 8.21,10.07 9.04,9.88L9.27,8L10.74,8L10.97,9.86C11.8,10.05 12.54,10.49 13.1,11.09L14.83,10.36L15.56,11.63L14.07,12.76C14.19,13.15 14.25,13.56 14.25,13.99C14.25,14.42 14.19,14.83 14.07,15.22L15.56,16.35L14.83,17.64Z" style="fill:rgb(56,118,173);fill-rule:nonzero;"/>
</svg>
