<?xml version="1.0" encoding="UTF-8" standalone="no"?>
<!DOCTYPE svg PUBLIC "-//W3C//DTD SVG 1.1//EN" "http://www.w3.org/Graphics/SVG/1.1/DTD/svg11.dtd">
<svg width="100%" height="100%" viewBox="0 0 24 24" version="1.1" xmlns="http://www.w3.org/2000/svg" xmlns:xlink="http://www.w3.org/1999/xlink" xml:space="preserve" xmlns:serif="http://www.serif.com/" style="fill-rule:evenodd;clip-rule:evenodd;stroke-linejoin:round;stroke-miterlimit:2;">
    <path d="M9.7,21.5L9.3,18.45C9.033,18.367 8.763,18.242 8.488,18.075C8.213,17.908 7.958,17.733 7.725,17.55L4.9,18.75L2.6,14.75L5.05,12.9C5.017,12.75 4.996,12.6 4.988,12.45C4.979,12.3 4.975,12.15 4.975,12C4.975,11.867 4.979,11.725 4.988,11.575C4.996,11.425 5.017,11.267 5.05,11.1L2.6,9.25L4.9,5.275L7.725,6.45C7.958,6.267 8.213,6.096 8.488,5.938C8.763,5.779 9.033,5.65 9.3,5.55L9.7,2.5L14.3,2.5L14.7,5.55C15,5.667 15.271,5.796 15.512,5.937C15.754,6.079 16,6.25 16.25,6.45L19.1,5.275L21.4,9.25L18.925,11.125C18.958,11.292 18.975,11.442 18.975,11.575L18.975,12C18.975,12.133 18.971,12.271 18.962,12.412C18.954,12.554 18.933,12.717 18.9,12.9L21.35,14.75L19.05,18.75L16.25,17.55C16,17.75 15.746,17.925 15.488,18.075C15.229,18.225 14.967,18.35 14.7,18.45L14.3,21.5L9.7,21.5ZM12,15C12.833,15 13.542,14.708 14.125,14.125C14.708,13.542 15,12.833 15,12C15,11.167 14.708,10.458 14.125,9.875C13.542,9.292 12.833,9 12,9C11.167,9 10.458,9.292 9.875,9.875C9.292,10.458 9,11.167 9,12C9,12.833 9.292,13.542 9.875,14.125C10.458,14.708 11.167,15 12,15ZM12,13.5C11.583,13.5 11.229,13.354 10.938,13.062C10.646,12.771 10.5,12.417 10.5,12C10.5,11.583 10.646,11.229 10.938,10.938C11.229,10.646 11.583,10.5 12,10.5C12.417,10.5 12.771,10.646 13.062,10.938C13.354,11.229 13.5,11.583 13.5,12C13.5,12.417 13.354,12.771 13.062,13.062C12.771,13.354 12.417,13.5 12,13.5ZM11,20L12.975,20L13.325,17.325C13.842,17.192 14.308,17 14.725,16.75C15.142,16.5 15.55,16.183 15.95,15.8L18.425,16.85L19.425,15.15L17.25,13.525C17.333,13.258 17.388,13 17.413,12.75C17.438,12.5 17.45,12.25 17.45,12C17.45,11.733 17.438,11.479 17.413,11.238C17.388,10.996 17.333,10.75 17.25,10.5L19.425,8.85L18.45,7.15L15.925,8.2C15.592,7.85 15.192,7.537 14.725,7.262C14.258,6.987 13.792,6.792 13.325,6.675L13,4L11.025,4L10.675,6.675C10.175,6.792 9.708,6.975 9.275,7.225C8.842,7.475 8.425,7.792 8.025,8.175L5.55,7.15L4.575,8.85L6.725,10.45C6.642,10.7 6.583,10.95 6.55,11.2C6.517,11.45 6.5,11.717 6.5,12C6.5,12.267 6.517,12.525 6.55,12.775C6.583,13.025 6.642,13.275 6.725,13.525L4.575,15.15L5.55,16.85L8.025,15.8C8.408,16.183 8.817,16.5 9.25,16.75C9.683,17 10.158,17.192 10.675,17.325L11,20Z" style="fill:rgb(56,118,173);fill-rule:nonzero;"/>
</svg>
