<?xml version="1.0" encoding="UTF-8" standalone="no"?>
<!DOCTYPE svg PUBLIC "-//W3C//DTD SVG 1.1//EN" "http://www.w3.org/Graphics/SVG/1.1/DTD/svg11.dtd">
<svg width="100%" height="100%" viewBox="0 0 24 24" version="1.1" xmlns="http://www.w3.org/2000/svg" xmlns:xlink="http://www.w3.org/1999/xlink" xml:space="preserve" xmlns:serif="http://www.serif.com/" style="fill-rule:evenodd;clip-rule:evenodd;stroke-linejoin:round;stroke-miterlimit:2;">
    <path d="M8.05,16.775C8.3,16.775 8.513,16.687 8.688,16.512C8.863,16.337 8.95,16.125 8.95,15.875C8.95,15.625 8.863,15.417 8.688,15.25C8.513,15.083 8.3,15 8.05,15C7.8,15 7.592,15.083 7.425,15.25C7.258,15.417 7.175,15.625 7.175,15.875C7.175,16.125 7.258,16.337 7.425,16.512C7.592,16.687 7.8,16.775 8.05,16.775ZM8.05,12.875C8.3,12.875 8.513,12.792 8.688,12.625C8.863,12.458 8.95,12.25 8.95,12C8.95,11.75 8.863,11.542 8.688,11.375C8.513,11.208 8.3,11.125 8.05,11.125C7.8,11.125 7.592,11.208 7.425,11.375C7.258,11.542 7.175,11.75 7.175,12C7.175,12.25 7.258,12.458 7.425,12.625C7.592,12.792 7.8,12.875 8.05,12.875ZM8.05,9C8.3,9 8.513,8.917 8.688,8.75C8.863,8.583 8.95,8.375 8.95,8.125C8.95,7.875 8.863,7.662 8.688,7.487C8.513,7.312 8.3,7.225 8.05,7.225C7.8,7.225 7.592,7.312 7.425,7.487C7.258,7.662 7.175,7.875 7.175,8.125C7.175,8.375 7.258,8.583 7.425,8.75C7.592,8.917 7.8,9 8.05,9ZM11.1,16.625L16.8,16.625L16.8,15.125L11.1,15.125L11.1,16.625ZM11.1,12.75L16.8,12.75L16.8,11.25L11.1,11.25L11.1,12.75ZM11.1,8.875L16.8,8.875L16.8,7.375L11.1,7.375L11.1,8.875ZM5.3,20.5C4.8,20.5 4.375,20.325 4.025,19.975C3.675,19.625 3.5,19.2 3.5,18.7L3.5,5.3C3.5,4.8 3.675,4.375 4.025,4.025C4.375,3.675 4.8,3.5 5.3,3.5L18.7,3.5C19.2,3.5 19.625,3.675 19.975,4.025C20.325,4.375 20.5,4.8 20.5,5.3L20.5,18.7C20.5,19.2 20.325,19.625 19.975,19.975C19.625,20.325 19.2,20.5 18.7,20.5L5.3,20.5ZM5.3,19L18.7,19C18.767,19 18.833,18.967 18.9,18.9C18.967,18.833 19,18.767 19,18.7L19,5.3C19,5.233 18.967,5.167 18.9,5.1C18.833,5.033 18.767,5 18.7,5L5.3,5C5.233,5 5.167,5.033 5.1,5.1C5.033,5.167 5,5.233 5,5.3L5,18.7C5,18.767 5.033,18.833 5.1,18.9C5.167,18.967 5.233,19 5.3,19ZM5,5L5,19L5,5Z" style="fill:rgb(56,118,173);fill-rule:nonzero;"/>
</svg>
