<?xml version="1.0" encoding="UTF-8" standalone="no"?>
<!DOCTYPE svg PUBLIC "-//W3C//DTD SVG 1.1//EN" "http://www.w3.org/Graphics/SVG/1.1/DTD/svg11.dtd">
<svg width="100%" height="100%" viewBox="0 0 100 100" version="1.1" xmlns="http://www.w3.org/2000/svg" xmlns:xlink="http://www.w3.org/1999/xlink" xml:space="preserve" xmlns:serif="http://www.serif.com/" style="fill-rule:evenodd;clip-rule:evenodd;stroke-linejoin:round;stroke-miterlimit:2;">
    <g transform="matrix(1,0,0,1,0,-272.44)">
        <g>
            <g transform="matrix(4.16667,0,0,4.16667,0,272.44)">
                <rect x="0" y="0" width="24" height="24" style="fill:none;fill-rule:nonzero;"/>
            </g>
            <g transform="matrix(-4.16667,0,0,4.16667,100,272.44)">
                <path d="M17,6L7,6C3.69,6 1,8.69 1,12C1,15.31 3.69,18 7,18L17,18C20.31,18 23,15.31 23,12C23,8.69 20.31,6 17,6Z" style="fill:rgb(163,163,163);fill-rule:nonzero;"/>
            </g>
            <g transform="matrix(-4.46429,0,0,4.46429,105.06,268.831)">
                <path d="M17,8.04C14.804,8.04 13.031,9.813 13.031,12.009C13.031,14.204 14.804,15.977 17,15.977C19.196,15.977 20.969,14.204 20.969,12.009C20.969,9.813 19.196,8.04 17,8.04Z" style="fill:rgb(226,226,226);fill-rule:nonzero;"/>
            </g>
        </g>
    </g>
</svg>
