<?xml version="1.0" encoding="UTF-8" standalone="no"?>
<!DOCTYPE svg PUBLIC "-//W3C//DTD SVG 1.1//EN" "http://www.w3.org/Graphics/SVG/1.1/DTD/svg11.dtd">
<svg width="100%" height="100%" viewBox="0 0 24 24" version="1.1" xmlns="http://www.w3.org/2000/svg" xmlns:xlink="http://www.w3.org/1999/xlink" xml:space="preserve" xmlns:serif="http://www.serif.com/" style="fill-rule:evenodd;clip-rule:evenodd;stroke-linejoin:round;stroke-miterlimit:2;">
    <path d="M19.2,20.775L12.05,13.625L9.3,16.35C9.45,16.6 9.554,16.867 9.613,17.15C9.671,17.433 9.7,17.717 9.7,18C9.7,19 9.342,19.858 8.625,20.575C7.908,21.292 7.05,21.65 6.05,21.65C5.033,21.65 4.167,21.292 3.45,20.575C2.733,19.858 2.375,19 2.375,18C2.375,17 2.733,16.142 3.45,15.425C4.167,14.708 5.033,14.35 6.05,14.35C6.333,14.35 6.617,14.379 6.9,14.438C7.183,14.496 7.45,14.592 7.7,14.725L10.425,12L7.7,9.275C7.45,9.408 7.183,9.504 6.9,9.562C6.617,9.621 6.333,9.65 6.05,9.65C5.033,9.65 4.167,9.292 3.45,8.575C2.733,7.858 2.375,7 2.375,6C2.375,5 2.733,4.142 3.45,3.425C4.167,2.708 5.025,2.35 6.025,2.35C7.042,2.35 7.908,2.708 8.625,3.425C9.342,4.142 9.7,5 9.7,6C9.7,6.283 9.671,6.567 9.613,6.85C9.554,7.133 9.45,7.4 9.3,7.65L21.625,19.95L21.625,20.775L19.2,20.775ZM14.8,10.85L13.2,9.225L19.2,3.225L21.625,3.225L21.625,4.05L14.8,10.85ZM6.05,8.15C6.633,8.15 7.138,7.942 7.563,7.525C7.988,7.108 8.2,6.6 8.2,6C8.2,5.4 7.988,4.892 7.563,4.475C7.138,4.058 6.633,3.85 6.05,3.85C5.45,3.85 4.938,4.058 4.513,4.475C4.088,4.892 3.875,5.4 3.875,6C3.875,6.6 4.088,7.108 4.513,7.525C4.938,7.942 5.45,8.15 6.05,8.15ZM12.05,12.25C12.117,12.25 12.175,12.225 12.225,12.175C12.275,12.125 12.3,12.067 12.3,12C12.3,11.933 12.275,11.875 12.225,11.825C12.175,11.775 12.117,11.75 12.05,11.75C11.983,11.75 11.925,11.775 11.875,11.825C11.825,11.875 11.8,11.933 11.8,12C11.8,12.067 11.825,12.125 11.875,12.175C11.925,12.225 11.983,12.25 12.05,12.25ZM6.05,20.15C6.633,20.15 7.138,19.942 7.563,19.525C7.988,19.108 8.2,18.6 8.2,18C8.2,17.4 7.988,16.892 7.563,16.475C7.138,16.058 6.633,15.85 6.05,15.85C5.45,15.85 4.938,16.058 4.513,16.475C4.088,16.892 3.875,17.4 3.875,18C3.875,18.6 4.088,19.108 4.513,19.525C4.938,19.942 5.45,20.15 6.05,20.15Z" style="fill:rgb(56,118,173);fill-rule:nonzero;"/>
</svg>
