<?xml version="1.0" encoding="UTF-8" standalone="no"?>
<!DOCTYPE svg PUBLIC "-//W3C//DTD SVG 1.1//EN" "http://www.w3.org/Graphics/SVG/1.1/DTD/svg11.dtd">
<svg width="100%" height="100%" viewBox="0 0 24 24" version="1.1" xmlns="http://www.w3.org/2000/svg" xmlns:xlink="http://www.w3.org/1999/xlink" xml:space="preserve" xmlns:serif="http://www.serif.com/" style="fill-rule:evenodd;clip-rule:evenodd;stroke-linejoin:round;stroke-miterlimit:2;">
    <rect x="0" y="0" width="24" height="24" style="fill:none;fill-rule:nonzero;"/>
    <path d="M9,21C9,21.55 9.45,22 10,22L14,22C14.55,22 15,21.55 15,21L15,20L9,20L9,21ZM12,2C8.14,2 5,5.14 5,9C5,11.38 6.19,13.47 8,14.74L8,17C8,17.55 8.45,18 9,18L15,18C15.55,18 16,17.55 16,17L16,14.74C17.81,13.47 19,11.38 19,9C19,5.14 15.86,2 12,2ZM14.85,13.1L14,13.7L14,16L10,16L10,13.7L9.15,13.1C7.8,12.16 7,10.63 7,9C7,6.24 9.24,4 12,4C14.76,4 17,6.24 17,9C17,10.63 16.2,12.16 14.85,13.1Z" style="fill:rgb(56,118,173);fill-rule:nonzero;"/>
</svg>
