<?xml version="1.0" encoding="UTF-8" standalone="no"?>
<!DOCTYPE svg PUBLIC "-//W3C//DTD SVG 1.1//EN" "http://www.w3.org/Graphics/SVG/1.1/DTD/svg11.dtd">
<svg width="100%" height="100%" viewBox="0 0 24 24" version="1.1" xmlns="http://www.w3.org/2000/svg" xmlns:xlink="http://www.w3.org/1999/xlink" xml:space="preserve" xmlns:serif="http://www.serif.com/" style="fill-rule:evenodd;clip-rule:evenodd;stroke-linejoin:round;stroke-miterlimit:2;">
    <path d="M20.5,7.2L20.5,18.7C20.5,19.2 20.325,19.625 19.975,19.975C19.625,20.325 19.2,20.5 18.7,20.5L5.3,20.5C4.8,20.5 4.375,20.325 4.025,19.975C3.675,19.625 3.5,19.2 3.5,18.7L3.5,5.3C3.5,4.8 3.675,4.375 4.025,4.025C4.375,3.675 4.8,3.5 5.3,3.5L16.8,3.5L20.5,7.2ZM19,7.85L16.15,5L5.3,5C5.217,5 5.146,5.029 5.088,5.088C5.029,5.146 5,5.217 5,5.3L5,18.7C5,18.783 5.029,18.854 5.088,18.913C5.146,18.971 5.217,19 5.3,19L18.7,19C18.783,19 18.854,18.971 18.913,18.913C18.971,18.854 19,18.783 19,18.7L19,7.85ZM12,17.275C12.7,17.275 13.292,17.029 13.775,16.537C14.258,16.046 14.5,15.458 14.5,14.775C14.5,14.075 14.258,13.483 13.775,13C13.292,12.517 12.7,12.275 12,12.275C11.3,12.275 10.708,12.517 10.225,13C9.742,13.483 9.5,14.075 9.5,14.775C9.5,15.458 9.742,16.046 10.225,16.537C10.708,17.029 11.3,17.275 12,17.275ZM6.375,9.875L14.6,9.875L14.6,6.375L6.375,6.375L6.375,9.875ZM5,5L5,19L5,5Z" style="fill:rgb(56,118,173);fill-rule:nonzero;"/>
</svg>
